<svg width="32" height="32" viewBox="0 0 32 32" fill="none" xmlns="http://www.w3.org/2000/svg">
<path d="M18.333 28.9999C16.4777 28.9999 15.1235 28.553 14.2705 27.6592C13.4802 26.9027 13.0216 25.864 12.995 24.7703C12.9853 24.4381 13.0623 24.109 13.2184 23.8155C13.3639 23.562 13.5742 23.3515 13.8277 23.2058C14.1223 23.0588 14.447 22.9823 14.7763 22.9823C15.1055 22.9823 15.4302 23.0588 15.7249 23.2058C15.9779 23.351 16.1872 23.5616 16.3307 23.8155C16.4913 24.1076 16.5711 24.4372 16.5621 24.7703C16.5787 25.1682 16.4646 25.5606 16.2372 25.8875C16.0476 26.1544 15.7767 26.3526 15.465 26.4526C15.7698 26.8407 16.2011 27.1095 16.6837 27.2123C17.2237 27.3692 17.783 27.4498 18.3452 27.4519C19.0897 27.4584 19.8188 27.2404 20.4375 26.8263C21.0793 26.3729 21.5579 25.7248 21.8024 24.978C22.1124 24.0891 22.2636 23.1527 22.2493 22.2115C22.2743 21.2302 22.1087 20.2534 21.7618 19.3352C21.5008 18.6008 21.0055 17.9726 20.3521 17.5477C19.7448 17.1634 19.0399 16.9618 18.3213 16.9668C17.695 17.0198 17.0912 17.2248 16.5621 17.564L15.2577 18.218V17.564L21.1199 9.69989H12.995V17.8606C12.972 18.4495 13.1278 19.0315 13.4418 19.5302C13.5938 19.7475 13.7993 19.9219 14.0384 20.0365C14.2775 20.1511 14.5422 20.202 14.8068 20.1842C15.2956 20.1743 15.7684 20.0077 16.1554 19.7089C16.5941 19.3874 16.9759 18.9947 17.2848 18.547C17.3127 18.4685 17.3639 18.4005 17.4317 18.3521C17.4862 18.3051 17.5557 18.2792 17.6276 18.279C17.7687 18.2919 17.9023 18.3487 18.0095 18.4414C18.1453 18.5932 18.2192 18.7903 18.2166 18.9939C18.2009 19.1307 18.1765 19.2664 18.1435 19.4001C17.8549 20.0987 17.3711 20.6994 16.75 21.1302C16.1732 21.5205 15.4918 21.7275 14.7954 21.724C13.0362 21.724 11.8176 21.3773 11.1394 20.684C10.7908 20.3008 10.5221 19.8519 10.3491 19.3636C10.1761 18.8753 10.1023 18.3573 10.1319 17.8401V9.69989H5.99931V8.18364H10.1511V4.72646L9.20057 3.77525V2.99999H11.9589L12.995 3.53631V8.18364L23.7279 8.151L24.7964 9.22347L18.2152 15.8367C18.6128 15.6768 19.0315 15.5755 19.4582 15.5361C20.3028 15.5731 21.1268 15.8083 21.8636 16.2227C22.7169 16.6283 23.436 17.27 23.9356 18.0717C24.3833 18.7505 24.7002 19.5069 24.87 20.3021C25.0096 20.9293 25.0845 21.5692 25.0935 22.2117C25.0978 23.4378 24.8198 24.6485 24.281 25.75C23.77 26.8165 22.91 27.6765 21.8434 28.1875C20.7516 28.7255 19.5501 29.0036 18.333 28.9999Z" fill="#2C7DF7"/>
</svg>
