<svg width="32" height="32" viewBox="0 0 32 32" fill="none" xmlns="http://www.w3.org/2000/svg">
<path d="M21.9315 11.724C21.4745 11.4629 20.8869 11.4629 20.3647 11.724L16.7089 13.8783L14.2282 15.2492L10.6377 17.4035C10.1808 17.6646 9.59322 17.6646 9.07097 17.4035L6.26386 15.7062C5.80689 15.445 5.48048 14.9228 5.48048 14.3353V11.0712C5.48048 10.5489 5.7416 10.0267 6.26386 9.70026L9.07097 8.06822C9.52794 7.80709 10.1155 7.80709 10.6377 8.06822L13.4448 9.76554C13.9018 10.0267 14.2282 10.5489 14.2282 11.1365V13.2908L16.7089 11.8546V9.63498C16.7089 9.11272 16.4478 8.59047 15.9255 8.26406L10.703 5.19583C10.246 4.9347 9.6585 4.9347 9.13625 5.19583L3.78315 8.32934C3.2609 8.59047 2.99977 9.11272 2.99977 9.63498V15.7715C2.99977 16.2937 3.2609 16.816 3.78315 17.1424L9.07097 20.2106C9.52794 20.4717 10.1155 20.4717 10.6377 20.2106L14.2282 18.1216L16.7089 16.6854L20.2994 14.5964C20.7564 14.3353 21.3439 14.3353 21.8662 14.5964L24.6733 16.2284C25.1303 16.4896 25.4567 17.0118 25.4567 17.5993V20.8634C25.4567 21.3857 25.1955 21.9079 24.6733 22.2343L21.9315 23.8664C21.4745 24.1275 20.8869 24.1275 20.3647 23.8664L17.5576 22.2343C17.1006 21.9732 16.7742 21.451 16.7742 20.8634V18.7744L14.2935 20.2106V22.3649C14.2935 22.8872 14.5546 23.4094 15.0769 23.7358L20.3647 26.804C20.8217 27.0652 21.4092 27.0652 21.9315 26.804L27.2193 23.7358C27.6762 23.4747 28.0026 22.9524 28.0026 22.3649V16.1631C28.0026 15.6409 27.7415 15.1186 27.2193 14.7922L21.9315 11.724Z" fill="#8247E5"/>
</svg>
