<svg width="32" height="32" viewBox="0 0 32 32" fill="none" xmlns="http://www.w3.org/2000/svg">
<path d="M28.3966 23.6225C28.4016 22.9507 30.9637 22.9795 30.9462 22.3515C30.9337 21.8673 29.799 21.8786 30.1556 20.854C30.681 19.3277 30.9662 17.6888 30.9662 15.9837C30.9662 7.70806 24.2557 0.999996 15.9826 0.999996C7.70694 0.999996 0.998875 7.70806 0.998875 15.9837C0.997165 17.6795 1.28399 19.3632 1.84708 20.9628C2.05975 21.6421 1.00138 21.9086 1.00138 22.3139C1.00138 22.9495 3.23073 22.8644 3.23073 23.6025C3.23073 24.248 1.02765 24.4457 1.02765 25.0962C1.02765 25.9932 5.90795 25.6805 5.96925 26.4524C6.01804 27.0491 4.29286 27.0841 4.2816 27.7209C4.26533 28.7368 10.9434 28.404 10.9434 29.0808C10.9434 29.5925 7.90585 29.4073 7.90585 30.0116C7.90585 30.6158 11.9042 30.9999 16.3103 30.9999C20.7165 30.9999 23.7578 30.5095 23.7578 29.979C23.7578 29.4498 20.9204 29.5599 20.9792 29.0808C21.0818 28.2463 27.377 28.673 27.377 27.7084C27.377 27.1992 25.6456 27.0804 25.7006 26.5324C25.7807 25.7568 30.9662 25.8731 30.9662 25.0687C30.9662 24.4369 28.3979 24.2806 28.4004 23.625L28.3966 23.6225ZM24.3808 21.6759C24.2432 22.1876 25.822 22.2639 25.822 22.7981C25.822 23.4474 21.008 23.1884 21.0555 24.0479C21.0855 24.5883 24.4758 24.6796 24.4108 25.2451C24.3182 26.0633 19.1614 25.6555 19.1101 26.4386C19.0726 27.0141 21.6272 27.0328 21.6322 27.557C21.6372 27.9986 19.6256 28.2388 15.7774 28.2388C11.39 28.2388 9.25948 28.0024 9.50093 27.5095C9.72736 27.0491 13.6106 27.1342 13.5718 26.4098C13.5318 25.6867 6.67608 25.9007 6.46841 25.1988C6.29702 24.6158 8.72153 24.4957 8.70652 23.9415C8.69025 23.3773 5.60019 23.5049 5.53264 22.8218C5.48885 22.3715 7.14773 22.4015 7.07642 21.836C7.02387 21.4257 6.3383 21.4832 5.93297 20.635C5.15159 18.9482 4.80763 17.0918 4.93282 15.237C5.05801 13.3822 5.64832 11.5888 6.64928 10.0223C7.65024 8.45581 9.02962 7.16662 10.6601 6.27371C12.2907 5.3808 14.1198 4.91292 15.9788 4.91324C17.8012 4.9128 19.5955 5.36231 21.2025 6.22188C22.8094 7.08144 24.1793 8.32447 25.1905 9.84061C26.2016 11.3568 26.8228 13.0991 26.9989 14.913C27.175 16.7269 26.9005 18.5561 26.1998 20.2385C25.6806 21.4169 24.5109 21.1805 24.377 21.6772H24.3795L24.3808 21.6759Z" fill="#07D3BA"/>
</svg>
