<svg width="32" height="32" viewBox="0 0 32 32" fill="none" xmlns="http://www.w3.org/2000/svg">
<path d="M31.1356 14.9979C30.5744 6.73206 23.4189 0.48882 15.1559 1.05077C11.0397 1.33139 7.42436 3.24883 4.90163 6.12109L4.89381 6.11612C4.87605 6.13885 4.86042 6.1623 4.84479 6.18503C2.33911 9.07576 0.929622 12.9156 1.20953 17.0333C1.23582 17.4261 1.28128 17.8112 1.33812 18.1934C1.33812 18.2119 1.34309 18.2268 1.34593 18.2445C1.3843 18.496 1.42834 18.7482 1.47665 18.9948C1.52283 19.2228 1.57398 19.4494 1.63081 19.6746C3.36355 26.5828 9.83484 31.4748 17.192 30.9747C25.4557 30.4128 31.7011 23.258 31.1392 14.9929C31.1384 14.9929 31.1356 14.9979 31.1356 14.9979ZM27.8705 15.2203C27.9401 16.2376 27.8754 17.2329 27.6936 18.1934C27.6936 18.1884 27.6886 18.1834 27.6886 18.1778C26.5995 15.5208 24.4483 13.6012 22.5593 12.5405C22.9415 8.03783 21.4141 6.13885 19.6842 5.83053C18.3259 5.57548 17.018 6.46991 16.7629 7.82825C16.7537 7.87656 16.7459 7.92558 16.7402 7.9746C16.5633 9.34502 17.5309 10.5996 18.9013 10.7765C18.9035 10.7765 18.9049 10.7772 18.907 10.7772C19.0278 10.7929 19.1457 10.7978 19.2608 10.795C19.2693 10.9556 19.2736 11.1168 19.2736 11.2774C17.6744 10.8824 16.1804 10.8021 14.8171 10.9257C14.3049 10.9591 13.7948 11.0238 13.2896 11.1182C13.4594 9.59793 14.0313 7.88864 15.1382 6.64113C16.2081 5.43198 17.8002 4.74144 19.535 4.91834C19.864 4.95173 20.2156 5.03414 20.531 5.13928C20.5467 5.14426 20.5623 5.14923 20.5751 5.15207C24.5947 6.79032 27.555 10.6067 27.8676 15.2203C27.8683 15.2203 27.8705 15.2203 27.8705 15.2203ZM17.4151 17.5107C17.4151 17.5107 17.4151 17.5135 17.4123 17.5156C17.0329 18.0605 16.6031 18.5685 16.1285 19.0331C15.4096 18.2737 14.8014 17.4176 14.3212 16.4891C14.2985 16.4401 14.2729 16.3967 14.2494 16.3477V16.3427C13.9681 15.741 13.7429 15.1144 13.5767 14.4715C14.6416 14.22 15.6866 14.1276 16.6855 14.1766L16.8446 14.1845H16.8496C17.4762 14.2356 18.1284 14.3514 18.8033 14.5361C18.49 15.5897 18.0232 16.5914 17.4172 17.5085C17.4179 17.5078 17.4151 17.5107 17.4151 17.5107ZM12.2915 4.95031L12.2837 4.96025C10.5254 7.23007 9.93998 10.0505 9.96556 12.2173C5.87349 14.1376 4.9954 16.4095 5.59145 18.062C5.60637 18.1081 5.62484 18.1522 5.6426 18.1962C6.17684 19.4722 7.64388 20.0746 8.92052 19.5411C10.1964 19.0068 10.7989 17.5398 10.2654 16.2632C10.2185 16.1545 10.1645 16.0486 10.1041 15.947C10.2327 15.8618 10.3712 15.7779 10.5204 15.6906C10.9772 17.2748 11.6521 18.6118 12.4407 19.7308C12.7256 20.1542 13.0339 20.562 13.3699 20.9555C11.9683 21.5694 10.2021 21.9288 8.56672 21.5942C6.98602 21.271 5.59145 20.2394 4.87605 18.6474C4.73894 18.3355 4.63593 18.0094 4.56772 17.6748C4.52581 17.3878 4.49384 17.0993 4.47253 16.8095C4.10737 11.4372 7.43999 6.65463 12.2915 4.95031ZM16.9682 27.7117C13.7777 27.9298 10.7946 26.8414 8.54115 24.9055C11.3857 25.2934 14.1223 24.3897 15.9857 23.2836C19.6949 25.8689 22.1025 25.4938 23.2371 24.151C24.1379 23.101 24.0171 21.5196 22.9671 20.6188C22.9294 20.5868 22.8918 20.5556 22.852 20.5257C21.7516 19.6867 20.1801 19.8991 19.3411 20.9989C19.3404 20.9996 19.3404 20.9996 19.3397 21.0003C19.2679 21.0955 19.204 21.1985 19.1471 21.3008C19.0114 21.2312 18.8672 21.1545 18.7209 21.0699C19.7659 19.9915 20.6227 18.7454 21.2543 17.3835C21.4802 16.9224 21.6791 16.4486 21.8496 15.9641C23.0822 16.8727 24.2778 18.2204 24.8071 19.8039C25.3179 21.3342 25.1225 23.0591 24.1009 24.4736C23.8992 24.7478 23.6683 25 23.4132 25.2252L23.4033 25.2352C21.5576 26.6894 19.3148 27.5512 16.9704 27.7074C16.9711 27.7096 16.9682 27.7117 16.9682 27.7117Z" fill="url(#paint0_linear_9237_18663)"/>
<path opacity="0.9" d="M19.6842 5.82845C19.4029 5.77517 19.1145 5.77162 18.8317 5.81851C20.2675 6.59856 21.3118 8.77318 20.7626 13.0649C20.5808 14.4609 20.1709 15.8171 19.5485 17.0795C19.0122 18.2318 18.3145 19.3017 17.4762 20.2572C17.8733 20.5563 18.2896 20.8299 18.7209 21.0764C19.7659 19.9987 20.6227 18.7526 21.255 17.3907C21.8787 16.1282 22.2886 14.772 22.4691 13.376C23.1241 8.26735 21.5171 6.15738 19.6842 5.83129V5.82845Z" fill="url(#paint1_radial_9237_18663)"/>
<path opacity="0.8" d="M20.7626 13.062C21.3118 8.77172 20.2675 6.59568 18.8324 5.81492C18.7756 5.82273 18.7223 5.83552 18.6655 5.84831C20.07 6.65678 21.0809 8.82856 20.5396 13.062C20.3577 14.458 19.9478 15.8142 19.3255 17.0766C18.809 18.1884 18.1412 19.2228 17.3412 20.1514C17.3874 20.1876 17.4315 20.221 17.4769 20.2537C18.3145 19.2974 19.0122 18.2275 19.5485 17.0759C20.1716 15.8142 20.5822 14.458 20.7626 13.062Z" fill="white"/>
<path opacity="0.5" d="M15.3073 22.7934C15.1716 22.6911 15.043 22.5831 14.9123 22.4751C12.7945 23.3589 9.85971 23.9123 6.94411 23.2353C7.41868 23.8434 7.95292 24.4032 8.53831 24.9062C11.3829 25.2941 14.1194 24.3904 15.9829 23.2843C15.7541 23.1245 15.5275 22.9596 15.3051 22.7913L15.3073 22.7934Z" fill="url(#paint2_radial_9237_18663)"/>
<path opacity="0.6" d="M14.9144 22.4751C14.8505 22.4212 14.7837 22.3679 14.7226 22.3139C12.5892 23.1657 9.63947 23.6772 6.73098 22.9504C6.80273 23.0456 6.87519 23.1429 6.94624 23.2353C9.86041 23.9123 12.7966 23.3582 14.9144 22.4751Z" fill="url(#paint3_linear_9237_18663)"/>
<path opacity="0.9" d="M5.59429 18.0649C5.60921 18.111 5.62768 18.1551 5.64544 18.1984C5.74064 18.4243 5.86354 18.6268 6.01273 18.8094C5.97153 17.1768 7.332 15.1819 11.321 13.5131C12.6204 12.9725 14.0008 12.65 15.4053 12.5583C16.6713 12.4454 17.9479 12.5143 19.194 12.7636C19.2587 12.2244 19.2842 11.7214 19.2793 11.2774C17.8229 10.9108 16.3161 10.7922 14.8206 10.9258C13.4161 11.0181 12.0357 11.3407 10.7364 11.8806C5.98573 13.8676 4.9613 16.3144 5.59571 18.067L5.59429 18.0649Z" fill="url(#paint4_radial_9237_18663)"/>
<path opacity="0.8" d="M11.3211 13.516C7.332 15.1847 5.97082 17.1796 6.01274 18.8122C6.04897 18.8555 6.08733 18.8974 6.1257 18.9379C6.12285 17.3182 7.49895 15.3567 11.434 13.7085C12.7334 13.1678 14.1137 12.8453 15.5183 12.7537C16.7395 12.6457 17.9692 12.7061 19.1734 12.9334C19.1812 12.8773 19.1883 12.8204 19.194 12.7636C17.9472 12.5157 16.6713 12.4468 15.4053 12.5583C14.0008 12.6506 12.6211 12.9732 11.3211 13.5131C11.3211 13.5138 11.3211 13.516 11.3211 13.516Z" fill="white"/>
<path opacity="0.4" d="M22.4748 13.3725C22.4549 13.5423 22.4265 13.7057 22.398 13.8726C24.2203 15.2644 26.169 17.5306 27.0421 20.3922C27.3305 19.6761 27.5479 18.9337 27.6914 18.175C26.6052 15.518 24.4547 13.5998 22.565 12.5399C22.5423 12.8098 22.5138 13.0841 22.4776 13.3718C22.4776 13.3725 22.4748 13.3725 22.4748 13.3725Z" fill="url(#paint5_radial_9237_18663)"/>
<path opacity="0.5" d="M22.398 13.8732C22.3824 13.9549 22.3696 14.0402 22.354 14.1219C24.1592 15.5442 26.0766 17.8417 26.9007 20.7246C26.949 20.6145 26.9959 20.5037 27.0393 20.3935C26.1669 17.5312 24.221 15.2671 22.3952 13.8732C22.3945 13.8732 22.398 13.8732 22.398 13.8732Z" fill="url(#paint6_linear_9237_18663)"/>
<path opacity="0.9" d="M23.2371 24.149C23.4225 23.9302 23.5702 23.6822 23.6733 23.4151C22.2794 24.2669 19.8732 24.085 16.4312 21.4636C15.3122 20.6089 14.3425 19.5753 13.561 18.4038C12.83 17.3637 12.2517 16.2249 11.8432 15.0207C11.3452 15.2338 10.8962 15.4647 10.5112 15.6906C10.9225 17.1349 11.5732 18.4997 12.4364 19.7287C13.2065 20.8789 14.1663 21.919 15.3065 22.7885C19.4036 25.9101 22.035 25.5734 23.2335 24.1483L23.2371 24.149Z" fill="url(#paint7_radial_9237_18663)"/>
<path opacity="0.8" d="M16.4347 21.4642C19.8739 24.085 22.2822 24.2669 23.6754 23.4144C23.696 23.3611 23.7138 23.3071 23.7294 23.2552C22.3277 24.0694 19.9407 23.8555 16.547 21.271C15.428 20.4163 14.4583 19.3827 13.6768 18.2112C12.9728 17.2081 12.4108 16.1126 12.0059 14.956C11.9519 14.9787 11.9008 14.9993 11.8496 15.0228C12.2574 16.227 12.8357 17.3665 13.5667 18.4065C14.3368 19.5567 15.2966 20.5968 16.4368 21.4664L16.4347 21.4642Z" fill="white"/>
<path opacity="0.3" d="M10.7328 11.8763C10.8891 11.8116 11.0461 11.7526 11.2045 11.6937C11.4972 9.41889 12.4854 6.59849 14.5293 4.41392C13.7642 4.52404 13.0119 4.70378 12.283 4.95811C10.5239 7.22793 9.93927 10.0483 9.96484 12.2158C10.2085 12.1008 10.4629 11.9871 10.73 11.8777L10.7328 11.8763Z" fill="url(#paint8_radial_9237_18663)"/>
<path opacity="0.4" d="M11.2045 11.6937C11.2848 11.666 11.3616 11.6347 11.4411 11.607C11.7693 9.33225 12.8016 6.52393 14.8839 4.36778C14.7659 4.38057 14.6473 4.3962 14.5294 4.41183C12.4862 6.59852 11.498 9.4175 11.2053 11.6916L11.2045 11.6937Z" fill="url(#paint9_linear_9237_18663)"/>
<path opacity="0.4" d="M15.1559 1.05078C11.0383 1.33069 7.42436 3.24813 4.90092 6.12039L4.84408 6.18433C5.33428 6.67239 6.94127 7.63218 7.5906 8.03286C8.885 6.63829 10.4991 5.58047 12.2943 4.94961C12.4201 4.78479 12.5536 4.62352 12.6922 4.46722C14.3858 2.55475 16.699 1.54594 19.3844 1.54594C19.6821 1.54594 20.2909 1.59496 20.3037 1.59496C18.6328 1.11472 16.8908 0.930004 15.1559 1.05078Z" fill="url(#paint10_linear_9237_18663)"/>
<path opacity="0.4" d="M16.9682 27.7146C13.7777 27.9327 10.7946 26.8443 8.54114 24.9091C8.32943 24.8814 8.11915 24.8466 7.90957 24.804C5.40673 24.2932 3.37349 22.7942 2.03362 20.4711C1.88585 20.2146 1.75158 19.9503 1.63081 19.6803C3.36354 26.5885 9.83483 31.4813 17.1899 30.9804C17.2233 30.2231 17.0002 28.4655 16.9661 27.7153C16.9661 27.7146 16.9682 27.7146 16.9682 27.7146Z" fill="url(#paint11_linear_9237_18663)"/>
<path opacity="0.4" d="M31.1363 14.9979C30.6745 14.9517 28.4253 15.1286 27.8712 15.2209C27.9401 16.2383 27.8762 17.2336 27.6936 18.1941C27.7703 18.3838 27.8449 18.5791 27.9117 18.7766C28.7209 21.1999 28.4381 23.7077 27.0982 26.0336C26.9498 26.2901 26.7892 26.5388 26.6159 26.7789C26.6159 26.7789 26.6237 26.7732 26.6258 26.7682C29.6735 23.8036 31.4468 19.573 31.1363 15.0007C31.1363 15 31.1363 14.9979 31.1363 14.9979Z" fill="url(#paint12_linear_9237_18663)"/>
<path opacity="0.5" d="M19.5386 4.91695C19.8668 4.95034 20.2185 5.03275 20.5346 5.1379C20.5495 5.14287 20.5659 5.14784 20.5779 5.15068C21.8659 5.6764 23.0502 6.42519 24.0768 7.36367C24.0768 7.36367 24.0818 7.36651 24.0846 7.36864C24.5776 6.80669 25.5246 6.18791 25.5246 6.18791C25.5246 6.18791 24.0747 4.70382 21.8539 4.24205C20.3009 3.9188 16.797 3.60835 14.5862 7.36864L14.6068 7.34875C14.7716 7.10152 14.9435 6.86068 15.141 6.63974C16.2116 5.43059 17.803 4.73935 19.5386 4.91695Z" fill="url(#paint13_linear_9237_18663)"/>
<path opacity="0.5" d="M24.1024 24.4771C23.9006 24.7513 23.6697 25.0035 23.4147 25.2295C23.4047 25.2394 23.3919 25.2501 23.3813 25.2607C22.2822 26.1125 21.0411 26.7633 19.7162 27.1831C19.7133 27.1831 19.7112 27.1831 19.7084 27.186C19.9499 27.8943 20.011 29.0239 20.011 29.0239C20.011 29.0239 22.0208 28.5109 23.5312 26.8187C24.5862 25.6351 26.6087 22.755 24.4569 18.9614C24.4569 18.9614 24.4597 18.9741 24.4647 18.9891C24.5982 19.2541 24.719 19.5254 24.8114 19.8053C25.3222 21.3356 25.1268 23.0605 24.1052 24.475C24.1045 24.475 24.1024 24.4771 24.1024 24.4771Z" fill="url(#paint14_linear_9237_18663)"/>
<path opacity="0.5" d="M4.88102 18.6531C4.7439 18.3405 4.64018 18.0144 4.57269 17.6798C4.56985 17.6648 4.56488 17.6485 4.56275 17.6336C4.37306 16.2504 4.43416 14.8487 4.7297 13.4989V13.4911C3.99511 13.3469 2.98702 12.8339 2.98702 12.8339C2.98702 12.8339 2.4272 14.8338 3.13834 16.985C3.63635 18.4918 5.11759 21.6823 9.4782 21.7157C9.4782 21.7157 9.46541 21.7129 9.45049 21.7079C9.15566 21.6901 8.86083 21.6596 8.57027 21.6006C6.98886 21.2774 5.595 20.2451 4.87818 18.6538C4.87818 18.6531 4.88102 18.6531 4.88102 18.6531Z" fill="url(#paint15_linear_9237_18663)"/>
<path opacity="0.6" d="M18.907 10.7751C19.0278 10.79 19.1457 10.795 19.2608 10.7928C19.2608 10.7928 19.1812 9.23486 18.9915 8.43421C18.799 7.63569 18.5163 7.10429 18.2086 6.80449C17.9856 6.58923 17.2844 6.32139 16.7409 7.96959C16.564 9.34 17.5309 10.5953 18.902 10.7722C18.9042 10.7722 18.9056 10.7729 18.9077 10.7729V10.7751H18.907Z" fill="url(#paint16_linear_9237_18663)"/>
<path opacity="0.5" d="M10.2696 16.2681C10.2227 16.1594 10.1687 16.0543 10.1076 15.9527C10.1076 15.9527 8.79548 16.7995 8.20014 17.3643C7.6048 17.9291 7.28582 18.4406 7.18139 18.8583C7.10679 19.1589 7.22472 19.8984 8.92406 19.546C10.2 19.0118 10.8024 17.5448 10.2696 16.2681Z" fill="url(#paint17_linear_9237_18663)"/>
<path opacity="0.6" d="M19.3432 20.9989C19.2715 21.0941 19.2075 21.1971 19.1507 21.2987C19.1507 21.2987 20.5396 22.0098 21.3274 22.2435C22.1153 22.4773 22.7156 22.4979 23.1291 22.3792C23.4267 22.2947 24.0072 21.8194 22.8541 20.5264C21.7537 19.6881 20.1822 19.8998 19.3432 21.0003L19.3425 21.001C19.3432 21.0017 19.3432 20.9989 19.3432 20.9989Z" fill="url(#paint18_linear_9237_18663)"/>
<path opacity="0.3" d="M18.804 14.5383C18.4893 15.5854 18.0467 16.5381 17.5053 17.3771C17.4769 17.4205 17.4485 17.4645 17.4179 17.5107C17.4179 17.5107 17.4179 17.5135 17.4151 17.5157C17.0357 18.0606 16.6059 18.5685 16.1314 19.0332C16.4752 19.3976 16.8446 19.7514 17.2531 20.0881C17.717 20.4533 18.2079 20.7822 18.7209 21.0735C19.7659 19.9958 20.6227 18.7497 21.255 17.3878C21.4809 16.9267 21.6798 16.4522 21.8503 15.9677C21.3217 15.5805 20.7875 15.27 20.2952 15.059C19.81 14.8509 19.3105 14.6768 18.8004 14.5383H18.804Z" fill="url(#paint19_linear_9237_18663)"/>
<path opacity="0.3" d="M8.54114 24.9091C11.385 25.2963 14.1216 24.3933 15.9857 23.2865C15.757 23.1267 15.5303 22.9618 15.308 22.7935C14.599 22.2514 13.9489 21.6362 13.3678 20.9584C11.9661 21.5715 10.2 21.931 8.56459 21.5971C6.98389 21.2739 5.58932 20.2423 4.8732 18.651C4.73609 18.3384 4.63308 18.0123 4.56488 17.6777C4.97835 20.5783 6.44112 23.1089 8.53901 24.9084L8.54114 24.9091Z" fill="url(#paint20_linear_9237_18663)"/>
<path opacity="0.3" d="M16.1321 19.0325C15.4138 18.2737 14.8057 17.4169 14.3255 16.4891C14.3027 16.4401 14.2764 16.3968 14.2537 16.3477V16.3428C13.9724 15.741 13.7472 15.1144 13.5809 14.4715C13.0929 14.5873 12.6027 14.7308 12.1096 14.9162C11.5626 15.135 11.0319 15.3936 10.5232 15.6913C10.98 17.2756 11.655 18.6126 12.4435 19.7315C12.7284 20.1549 13.0367 20.5627 13.3735 20.9563C13.9738 20.6941 14.5102 20.3837 14.9386 20.0626C15.3598 19.7457 15.7598 19.4012 16.1349 19.0303C16.1342 19.0303 16.1321 19.0325 16.1321 19.0325Z" fill="url(#paint21_linear_9237_18663)"/>
<path opacity="0.3" d="M12.2844 4.9602C10.5261 7.23002 9.94068 10.0504 9.96626 12.2172C10.2199 12.0979 10.4756 11.9842 10.7335 11.8762C11.5562 11.5324 12.413 11.2766 13.2896 11.1139C13.4594 9.59362 14.0313 7.88432 15.1382 6.63681C16.2081 5.42766 17.8002 4.73713 19.5357 4.91402C19.8639 4.94741 20.2156 5.02982 20.5317 5.13497C20.5467 5.13994 20.5623 5.14491 20.5751 5.14776C18.9276 4.47569 17.1487 4.1901 15.3733 4.31371C14.2956 4.38831 13.2634 4.60641 12.2879 4.95026C12.2851 4.9531 12.283 4.95807 12.2801 4.9602H12.2844Z" fill="url(#paint22_linear_9237_18663)"/>
<path opacity="0.3" d="M27.6914 18.1728C26.6038 15.5158 24.4519 13.5956 22.5629 12.5356C22.5401 12.8056 22.5117 13.0826 22.4726 13.3725C22.3583 14.257 22.1508 15.1265 21.8539 15.9677C23.0865 16.8763 24.2821 18.224 24.8114 19.8082C25.3222 21.3385 25.1268 23.0634 24.1052 24.4779C23.9034 24.7521 23.6726 25.0043 23.4175 25.2295L23.4076 25.2395C25.6099 23.5096 27.1671 21.0146 27.7021 18.1913C27.7021 18.1863 27.6971 18.1807 27.6971 18.1757L27.6914 18.1728Z" fill="url(#paint23_linear_9237_18663)"/>
<path opacity="0.3" d="M13.2825 12.9206C13.3451 13.4434 13.4438 13.9614 13.5774 14.4707C14.643 14.2192 15.6873 14.1269 16.6862 14.1759L16.8453 14.1837H16.8503C17.4769 14.2349 18.1291 14.3507 18.804 14.5354C18.9475 14.0551 19.0683 13.5571 19.1557 13.0385C19.2509 12.392 19.2786 11.7938 19.2764 11.2724C17.6773 10.8774 16.1832 10.7971 14.8206 10.9207C14.3084 10.9541 13.7983 11.0188 13.2932 11.1132C13.2215 11.7654 13.2179 12.3835 13.2854 12.9184C13.2847 12.9184 13.2825 12.9206 13.2825 12.9206Z" fill="url(#paint24_linear_9237_18663)"/>
<defs>
<linearGradient id="paint0_linear_9237_18663" x1="5.93739" y1="26.2508" x2="25.0616" y2="7.12409" gradientUnits="userSpaceOnUse">
<stop stop-color="#E6007A"/>
<stop offset="0.21" stop-color="#703AC2"/>
<stop offset="0.46" stop-color="#0070EB"/>
<stop offset="0.77" stop-color="#0297FB"/>
<stop offset="1" stop-color="#0AE2FF"/>
</linearGradient>
<radialGradient id="paint1_radial_9237_18663" cx="0" cy="0" r="1" gradientUnits="userSpaceOnUse" gradientTransform="translate(20.4493 12.9772) scale(5.70391)">
<stop stop-color="white"/>
<stop offset="1" stop-color="white" stop-opacity="0"/>
</radialGradient>
<radialGradient id="paint2_radial_9237_18663" cx="0" cy="0" r="1" gradientUnits="userSpaceOnUse" gradientTransform="translate(12.0189 23.5574) scale(3.31915 3.31915)">
<stop stop-color="white"/>
<stop offset="1" stop-color="white" stop-opacity="0"/>
</radialGradient>
<linearGradient id="paint3_linear_9237_18663" x1="7.03901" y1="22.9965" x2="10.238" y2="22.9525" gradientUnits="userSpaceOnUse">
<stop stop-color="white" stop-opacity="0"/>
<stop offset="1" stop-color="white"/>
</linearGradient>
<radialGradient id="paint4_radial_9237_18663" cx="0" cy="0" r="1" gradientUnits="userSpaceOnUse" gradientTransform="translate(11.4087 13.8279) rotate(-120) scale(5.7039)">
<stop stop-color="white"/>
<stop offset="1" stop-color="white" stop-opacity="0"/>
</radialGradient>
<radialGradient id="paint5_radial_9237_18663" cx="0" cy="0" r="1" gradientUnits="userSpaceOnUse" gradientTransform="translate(24.7868 15.8401) rotate(-120) scale(3.31914)">
<stop stop-color="white"/>
<stop offset="1" stop-color="white" stop-opacity="0"/>
</radialGradient>
<linearGradient id="paint6_linear_9237_18663" x1="26.7853" y1="20.4324" x2="25.1478" y2="17.6844" gradientUnits="userSpaceOnUse">
<stop stop-color="white" stop-opacity="0"/>
<stop offset="1" stop-color="white"/>
</linearGradient>
<radialGradient id="paint7_radial_9237_18663" cx="0" cy="0" r="1" gradientUnits="userSpaceOnUse" gradientTransform="translate(16.3924 20.9711) rotate(120) scale(5.7039)">
<stop stop-color="white"/>
<stop offset="1" stop-color="white" stop-opacity="0"/>
</radialGradient>
<radialGradient id="paint8_radial_9237_18663" cx="0" cy="0" r="1" gradientUnits="userSpaceOnUse" gradientTransform="translate(11.7151 8.64677) rotate(120) scale(3.31914)">
<stop stop-color="white"/>
<stop offset="1" stop-color="white" stop-opacity="0"/>
</radialGradient>
<linearGradient id="paint9_linear_9237_18663" x1="14.687" y1="4.60992" x2="13.1276" y2="7.40338" gradientUnits="userSpaceOnUse">
<stop stop-color="white" stop-opacity="0"/>
<stop offset="1" stop-color="white"/>
</linearGradient>
<linearGradient id="paint10_linear_9237_18663" x1="15.3876" y1="3.19255" x2="10.4997" y2="4.61453" gradientUnits="userSpaceOnUse">
<stop stop-color="#231F20"/>
<stop offset="1" stop-color="white"/>
</linearGradient>
<linearGradient id="paint11_linear_9237_18663" x1="6.15268" y1="21.8293" x2="10.2396" y2="26.0952" gradientUnits="userSpaceOnUse">
<stop stop-color="#231F20"/>
<stop offset="1" stop-color="white"/>
</linearGradient>
<linearGradient id="paint12_linear_9237_18663" x1="28.0863" y1="21.1863" x2="29.5083" y2="16.8634" gradientUnits="userSpaceOnUse">
<stop stop-color="#231F20"/>
<stop offset="1" stop-color="white"/>
</linearGradient>
<linearGradient id="paint13_linear_9237_18663" x1="17.613" y1="5.66542" x2="24.1644" y2="7.16489" gradientUnits="userSpaceOnUse">
<stop stop-color="#231F20"/>
<stop offset="1" stop-color="white"/>
</linearGradient>
<linearGradient id="paint14_linear_9237_18663" x1="24.417" y1="22.4348" x2="19.8396" y2="27.3597" gradientUnits="userSpaceOnUse">
<stop stop-color="#231F20"/>
<stop offset="1" stop-color="white"/>
</linearGradient>
<linearGradient id="paint15_linear_9237_18663" x1="6.49036" y1="19.9457" x2="4.51539" y2="13.5213" gradientUnits="userSpaceOnUse">
<stop stop-color="#231F20"/>
<stop offset="1" stop-color="white"/>
</linearGradient>
<linearGradient id="paint16_linear_9237_18663" x1="19.0445" y1="8.08085" x2="16.973" y2="10.1553" gradientUnits="userSpaceOnUse">
<stop stop-color="#231F20"/>
<stop offset="1" stop-color="white"/>
</linearGradient>
<linearGradient id="paint17_linear_9237_18663" x1="7.86819" y1="17.4935" x2="10.6991" y2="18.254" gradientUnits="userSpaceOnUse">
<stop stop-color="#231F20"/>
<stop offset="1" stop-color="white"/>
</linearGradient>
<linearGradient id="paint18_linear_9237_18663" x1="21.6052" y1="22.4664" x2="20.8467" y2="19.6364" gradientUnits="userSpaceOnUse">
<stop stop-color="#231F20"/>
<stop offset="1" stop-color="white"/>
</linearGradient>
<linearGradient id="paint19_linear_9237_18663" x1="17.2932" y1="19.9475" x2="18.5381" y2="18.2305" gradientUnits="userSpaceOnUse">
<stop stop-color="#231F20"/>
<stop offset="1" stop-color="white"/>
</linearGradient>
<linearGradient id="paint20_linear_9237_18663" x1="13.0129" y1="19.2039" x2="10.5254" y2="20.3899" gradientUnits="userSpaceOnUse">
<stop stop-color="#231F20"/>
<stop offset="1" stop-color="white"/>
</linearGradient>
<linearGradient id="paint21_linear_9237_18663" x1="12.1123" y1="15.0628" x2="12.8823" y2="16.6622" gradientUnits="userSpaceOnUse">
<stop stop-color="#231F20"/>
<stop offset="1" stop-color="white"/>
</linearGradient>
<linearGradient id="paint22_linear_9237_18663" x1="15.689" y1="10.1257" x2="15.1575" y2="8.29019" gradientUnits="userSpaceOnUse">
<stop stop-color="#231F20"/>
<stop offset="1" stop-color="white"/>
</linearGradient>
<linearGradient id="paint23_linear_9237_18663" x1="21.436" y1="18.5311" x2="22.976" y2="18.8856" gradientUnits="userSpaceOnUse">
<stop stop-color="#231F20"/>
<stop offset="1" stop-color="white"/>
</linearGradient>
<linearGradient id="paint24_linear_9237_18663" x1="19.02" y1="13.3282" x2="17.0665" y2="12.9737" gradientUnits="userSpaceOnUse">
<stop stop-color="#231F20"/>
<stop offset="1" stop-color="white"/>
</linearGradient>
</defs>
</svg>
