<svg width="32" height="32" viewBox="0 0 32 32" fill="none" xmlns="http://www.w3.org/2000/svg">
<path d="M9.06272 13.0064C9.20588 12.709 9.34707 12.4156 9.55906 12.1755C9.83638 11.6474 10.1823 11.2068 10.5615 10.7942C11.7931 9.45498 13.3294 8.71449 15.1379 8.59405C17.1284 8.46089 18.9255 9.02484 20.5077 10.2504C20.8619 10.5246 21.203 10.6836 21.6988 10.5556C22.648 10.31 23.6043 10.0799 24.5817 9.94601C25.3644 9.83879 25.4803 9.52939 24.9977 8.93205C23.904 7.57905 22.6263 6.46633 21.0392 5.69547C19.0892 4.74782 17.0533 4.31953 14.8994 4.4502C12.5542 4.59266 10.4388 5.36837 8.58697 6.82365C7.21261 7.90355 6.18434 9.25151 5.39947 10.8166C4.84485 11.9216 4.52194 13.0775 4.33475 14.2842C4.28166 14.6254 4.49345 14.8246 4.84247 14.7438C5.52058 14.5862 6.19712 14.4218 6.87355 14.2574C7.38247 14.1337 7.89181 14.0099 8.40122 13.8892C8.57199 13.8484 8.65867 13.7383 8.74384 13.6054C8.86646 13.4142 8.96505 13.2094 9.06272 13.0064Z" fill="#7FFCA5"/>
<path d="M19.8625 26.9546C22.2886 26.099 24.2404 24.576 25.6607 22.4098L25.6617 22.4114C25.9 22.0126 26.1183 21.608 26.3319 21.1976C26.8814 20.1452 27.2573 19.0458 27.398 17.8686C27.4765 17.2157 27.3681 17.112 26.7161 17.25C26.2575 17.347 25.8005 17.4511 25.3435 17.5552C24.732 17.6945 24.1201 17.8339 23.5053 17.9559C23.1331 18.0291 22.949 18.2394 22.8259 18.5552C22.4776 19.4482 22.0034 20.2654 21.3593 20.978C20.2872 22.1643 18.9736 22.9589 17.4104 23.2967C16.3581 23.5238 15.2856 23.4825 14.2409 23.238C13.1593 22.9839 12.1469 22.5542 11.2921 21.8091C10.8848 21.453 10.4379 21.2842 9.86329 21.4403C8.99642 21.6759 8.11891 21.911 7.22992 22.011C6.46212 22.0965 6.18569 22.3042 6.78058 23.0966C6.7999 23.1224 6.82239 23.1463 6.84491 23.1703C6.86094 23.1874 6.877 23.2045 6.89194 23.2223C8.09111 24.6549 9.49917 25.8002 11.2311 26.557C14.0682 27.7963 16.9523 27.9819 19.8625 26.9546Z" fill="#7FFCA5"/>
<path d="M11.6106 15.3122C12.8708 16.11 13.2367 17.67 12.3999 18.8623C11.9711 19.4733 11.3392 19.8178 10.6298 19.9863C10.3943 20.0422 10.159 20.0988 9.92356 20.1553C8.68253 20.4533 7.44025 20.7517 6.18379 20.9619C5.82946 21.0212 5.4839 21.1128 5.13847 21.2044C4.66105 21.3309 4.18382 21.4574 3.68405 21.4984C1.89501 21.645 0.454908 19.7308 1.11574 18.0712C1.49831 17.11 2.19833 16.5869 3.18165 16.3757C3.48587 16.3104 3.79021 16.2454 4.09458 16.1804L4.09631 16.18C5.41059 15.8995 6.72535 15.6188 8.03232 15.3088C8.15801 15.2789 8.28342 15.2483 8.40879 15.2178C8.85134 15.1099 9.29329 15.0022 9.74466 14.9266C10.4149 14.8152 11.0251 14.9076 11.6106 15.3122Z" fill="#7FFCA5"/>
<path d="M29.305 15.2589C31.1329 14.2881 30.9667 11.7573 29.4184 10.913L29.4172 10.9132C28.8806 10.4816 28.2103 10.3861 27.5358 10.5297C25.3095 11.0024 23.0852 11.4873 20.8725 12.0204C19.4493 12.3628 18.3401 14.0154 19.1491 15.6679C19.679 16.751 20.8734 17.2642 22.2244 16.9651C24.2842 16.509 26.3416 16.0474 28.397 15.5765C28.7083 15.5048 29.0249 15.4074 29.305 15.2589Z" fill="#7FFCA5"/>
</svg>
