<svg width="32" height="32" viewBox="0 0 32 32" fill="none" xmlns="http://www.w3.org/2000/svg">
<path d="M23.263 5.21831L18.2463 12.6666C18.1749 12.7739 18.1447 12.9034 18.1613 13.0312C18.178 13.159 18.2404 13.2765 18.3369 13.3618C18.4335 13.4472 18.5577 13.4947 18.6866 13.4956C18.8154 13.4965 18.9403 13.4507 19.038 13.3666L23.9763 9.0833C24.0052 9.05741 24.0411 9.0405 24.0795 9.03464C24.1179 9.02879 24.1571 9.03423 24.1925 9.05031C24.2278 9.0664 24.2577 9.09242 24.2785 9.12521C24.2993 9.158 24.3101 9.19614 24.3096 9.23497V22.6449C24.3096 22.686 24.297 22.726 24.2734 22.7596C24.2498 22.7933 24.2165 22.8188 24.1779 22.8328C24.1393 22.8468 24.0974 22.8486 24.0577 22.838C24.0181 22.8273 23.9827 22.8047 23.9563 22.7732L9.02969 4.90498C8.7896 4.62147 8.49065 4.39366 8.15361 4.23737C7.81657 4.08109 7.44954 4.00008 7.07803 3.99998H6.55637C5.8783 3.99998 5.228 4.26935 4.74854 4.74881C4.26907 5.22828 3.99971 5.87857 3.99971 6.55664V25.4432C3.99971 26.1213 4.26907 26.7716 4.74854 27.2511C5.228 27.7305 5.8783 27.9999 6.55637 27.9999C6.99356 28 7.42348 27.8881 7.80512 27.6748C8.18676 27.4615 8.50737 27.154 8.73636 26.7816L13.753 19.3333C13.8245 19.226 13.8546 19.0965 13.838 18.9687C13.8213 18.8409 13.759 18.7234 13.6624 18.6381C13.5659 18.5527 13.4417 18.5052 13.3128 18.5043C13.1839 18.5034 13.0591 18.5492 12.9613 18.6333L8.02303 22.9166C7.99409 22.9425 7.95823 22.9594 7.91985 22.9652C7.88146 22.9711 7.8422 22.9656 7.80685 22.9496C7.7715 22.9335 7.7416 22.9075 7.7208 22.8747C7.7 22.8419 7.68919 22.8037 7.6897 22.7649V9.35163C7.68971 9.31058 7.70236 9.27052 7.72593 9.23691C7.74949 9.20329 7.78283 9.17774 7.82142 9.16372C7.86001 9.14971 7.90197 9.14791 7.94162 9.15856C7.98126 9.16922 8.01667 9.19182 8.04303 9.2233L22.968 27.0949C23.2081 27.3784 23.507 27.6062 23.8441 27.7625C24.1811 27.9188 24.5481 27.9998 24.9196 27.9999H25.4413C25.7772 28.0001 26.1098 27.9341 26.4202 27.8058C26.7306 27.6774 27.0126 27.4891 27.2502 27.2517C27.4878 27.0142 27.6763 26.7323 27.8048 26.422C27.9334 26.1117 27.9996 25.7791 27.9996 25.4432V6.55664C27.9996 5.87857 27.7303 5.22828 27.2508 4.74881C26.7713 4.26935 26.121 3.99998 25.443 3.99998C25.0058 3.99987 24.5758 4.1118 24.1942 4.32508C23.8126 4.53836 23.492 4.84589 23.263 5.21831Z" fill="black"/>
</svg>
