<svg width="24" height="24" viewBox="0 0 24 24" fill="none" xmlns="http://www.w3.org/2000/svg">
<path d="M24 11.9998C24 18.6278 18.6276 24 11.9997 24C5.37225 24 0 18.6278 0 11.9998C0 5.37234 5.37225 0 11.9997 0C18.6276 0 24 5.37234 24 11.9998Z" fill="#EC1C24"/>
<path d="M10.971 9.45841L13.8483 12.3347C14.2636 12.7505 14.9379 12.7505 15.3543 12.3347C15.7697 11.9189 15.7706 11.2451 15.3543 10.8292L12.4768 7.95185C10.418 5.89254 7.09041 5.85935 4.98787 7.84722C4.96824 7.86353 4.94932 7.88067 4.93116 7.8986C4.92197 7.90779 4.91447 7.91754 4.90538 7.92579C4.896 7.93479 4.88644 7.94285 4.87753 7.95185C4.85934 7.96994 4.84275 7.98897 4.82691 8.00782C2.838 10.1113 2.87222 13.4389 4.93125 15.4982L7.80862 18.375C8.22487 18.7906 8.89828 18.7906 9.31444 18.375C9.73087 17.959 9.73087 17.2844 9.31547 16.8693L6.438 13.9921C5.18194 12.7365 5.1735 10.6987 6.41194 9.43235C7.67812 8.19391 9.71475 8.20282 10.971 9.45841ZM14.6846 5.62657C14.2688 6.04254 14.2688 6.71622 14.6857 7.1321L17.5621 10.0096C18.8174 11.2651 18.8256 13.3025 17.5872 14.5692C16.3207 15.8067 14.2847 15.7984 13.0288 14.5428L10.1514 11.6657C9.73537 11.2497 9.06084 11.2497 8.64525 11.6657C8.22872 12.0813 8.22872 12.7571 8.64525 13.1718L11.5217 16.0493C13.5812 18.1085 16.9084 18.142 19.0113 16.1539C19.0308 16.1367 19.0492 16.1207 19.0685 16.1025C19.0773 16.0936 19.0855 16.0845 19.0941 16.0753C19.1034 16.0664 19.1125 16.0581 19.1213 16.0482C19.1397 16.031 19.1555 16.0122 19.1719 15.9925C21.1608 13.8899 21.1275 10.5633 19.0686 8.50291L16.1912 5.62647C15.7753 5.20994 15.1001 5.20994 14.6846 5.62657Z" fill="white"/>
</svg>
