<svg width="24" height="24" viewBox="0 0 24 24" fill="none" xmlns="http://www.w3.org/2000/svg">
<circle cx="12" cy="12" r="12" fill="black"/>
<path d="M20.7366 16.7407C20.1096 16.9001 19.7218 16.7477 19.3738 16.2252L16.8993 12.8016L16.5416 12.3276L13.6518 16.2365C13.3216 16.7067 12.9753 16.9114 12.3591 16.745L16.0595 11.7776L12.6144 7.29071C13.2069 7.17544 13.6163 7.23415 13.9798 7.76471L16.5465 11.2309L19.132 7.78357C19.4632 7.31333 19.8193 7.1345 20.4139 7.30795L19.0781 9.079L17.2683 11.4356C17.0528 11.7049 17.0824 11.8891 17.2807 12.1493L20.7366 16.7407ZM3.50431 11.6947L3.80703 10.2058C4.63115 7.25947 8.00845 6.03513 10.3375 7.85575C11.6987 8.92657 12.037 10.4412 11.9696 12.138H4.29719C4.18192 15.1921 6.38013 17.0353 9.18269 16.0948C10.1657 15.7646 10.7448 14.9949 11.0345 14.0318C11.1816 13.5492 11.4251 13.4738 11.8786 13.6117C11.647 14.8161 11.1245 15.8223 10.0203 16.452C8.37041 17.3946 6.01546 17.0897 4.77658 15.7797C4.03864 15.0197 3.73377 14.0566 3.59696 13.0267C3.57541 12.8565 3.53232 12.6944 3.5 12.5312C3.50287 12.2525 3.50431 11.9739 3.50431 11.6952V11.6947ZM4.3112 11.49H11.2446C11.1994 9.28153 9.82421 7.713 7.94488 7.69954C5.88188 7.68338 4.40061 9.21474 4.3112 11.49Z" fill="white"/>
</svg>
