<svg width="24" height="24" viewBox="0 0 24 24" fill="none" xmlns="http://www.w3.org/2000/svg">
<g clip-path="url(#clip0_8941_304)">
<path d="M14.06 12.3828C14.06 13.522 13.1365 14.4455 11.9973 14.4455C10.8581 14.4455 9.93457 13.522 9.93457 12.3828C9.93457 11.2436 10.8581 10.3201 11.9973 10.3201C13.1365 10.3201 14.06 11.2436 14.06 12.3828Z" fill="#61DAFB"/>
<path fill-rule="evenodd" clip-rule="evenodd" d="M18.4199 8.66352C21.2364 9.52562 23.0734 10.9158 23.0734 12.3827C23.0734 13.8451 21.2454 15.2353 18.447 16.0974C19.1014 18.959 18.8171 21.2384 17.5488 21.9696C17.2509 22.1411 16.9078 22.2224 16.5287 22.2224C15.2874 22.2224 13.6626 21.3467 12.0196 19.8211C10.3767 21.3558 8.75176 22.2404 7.51052 22.2404C7.13137 22.2404 6.78834 22.1592 6.49496 21.9877C5.22212 21.2565 4.93325 18.9726 5.58321 16.1019C2.76672 15.2398 0.929688 13.8496 0.929688 12.3827C0.929688 10.9203 2.7577 9.53464 5.56516 8.66803C4.91068 5.80641 5.19504 3.52704 6.46336 2.79584C6.76126 2.62432 7.10429 2.54308 7.48343 2.54308V2.53856C8.72467 2.53856 10.3496 3.4142 11.9925 4.9398C13.6355 3.40517 15.2604 2.52051 16.5016 2.52051V2.52503C16.8745 2.52568 17.2159 2.60696 17.5081 2.77778C18.781 3.50899 19.0698 5.79287 18.4199 8.66352ZM16.4971 3.52705C15.5584 3.52944 14.1793 4.27849 12.7102 5.64392C13.3466 6.30742 13.9785 7.0657 14.5878 7.90072C15.6034 8.00905 16.5693 8.17605 17.454 8.3927C17.5533 7.93683 17.6345 7.48998 17.6842 7.0657C17.8918 5.34151 17.6255 4.00097 17.0116 3.64891C16.8717 3.57218 16.7047 3.53155 16.4971 3.53155V3.52705ZM11.2749 5.64843C9.80342 4.28984 8.41775 3.54509 7.48343 3.54509V3.54961C7.27581 3.54961 7.09978 3.58572 6.96437 3.66696C6.35503 4.02354 6.09325 5.36408 6.30538 7.08827C6.35955 7.50804 6.43628 7.94586 6.54009 8.39722C7.42476 8.17605 8.39067 8.00905 9.41074 7.90072C10.0111 7.0657 10.643 6.31193 11.2749 5.64843ZM16.5874 11.155C16.8221 10.5547 17.0297 9.95441 17.1967 9.37215C16.6054 9.22772 15.9871 9.11036 15.3461 9.01558C15.5673 9.35861 15.7885 9.71067 15.9961 10.0718C16.2082 10.4328 16.4023 10.7939 16.5874 11.155ZM14.0417 15.9033C14.4163 15.3662 14.7774 14.7885 15.1295 14.1791C15.468 13.5879 15.7794 12.983 16.0638 12.3782C15.7794 11.7734 15.468 11.1731 15.125 10.5818C14.7729 9.97698 14.4073 9.40375 14.0327 8.86663C13.3647 8.81247 12.6831 8.78087 12.0015 8.78087C11.3155 8.78087 10.6339 8.81247 9.9614 8.87114C9.58677 9.40826 9.22569 9.986 8.87362 10.5953C8.5351 11.1866 8.21915 11.7914 7.93931 12.3963C8.22367 13.0011 8.5351 13.6014 8.87814 14.1927C9.2302 14.7975 9.5958 15.3707 9.97043 15.9078C10.6384 15.962 11.32 15.9936 12.0015 15.9936C12.6876 15.9936 13.3692 15.962 14.0417 15.9033ZM17.2102 15.3888C17.0387 14.802 16.8311 14.1972 16.5874 13.5924C16.4023 13.9535 16.2082 14.3191 16.0006 14.6801C15.793 15.0457 15.5718 15.4023 15.3506 15.7499C15.9961 15.6551 16.619 15.5332 17.2102 15.3888ZM10.7558 16.964C11.171 17.4921 11.5908 17.9751 12.0106 18.4084C12.4258 17.9751 12.8456 17.4921 13.2518 16.964C12.8411 16.9866 12.4213 16.9956 11.997 16.9956C11.5773 16.9956 11.162 16.9821 10.7558 16.964ZM6.80188 15.3933C7.39316 15.5377 8.01153 15.6551 8.65246 15.7499C8.43129 15.4068 8.21464 15.0548 8.0025 14.6937C7.79036 14.3326 7.59627 13.9715 7.41122 13.6104C7.17651 14.2107 6.96888 14.811 6.80188 15.3933ZM13.2428 7.80142C12.8275 7.27333 12.4078 6.79037 11.988 6.35707C11.5728 6.79037 11.153 7.27333 10.7468 7.80142C11.1575 7.77885 11.5773 7.76983 12.0015 7.76983C12.4213 7.76983 12.8366 7.78337 13.2428 7.80142ZM7.99798 10.0853C8.20561 9.7197 8.42678 9.36313 8.64794 9.01558C8.0025 9.11036 7.37962 9.23223 6.78834 9.37215C6.95986 9.95892 7.16748 10.5637 7.41122 11.1686C7.59627 10.8075 7.79036 10.4464 7.99798 10.0853ZM1.93171 12.3827C1.93171 13.0914 2.96532 13.9851 4.56314 14.6666C4.95582 14.8336 5.3801 14.9871 5.82694 15.127C6.07971 14.2468 6.41371 13.3306 6.82896 12.3918C6.4092 11.4484 6.07068 10.5276 5.8134 9.64297C5.37558 9.78289 4.95131 9.93184 4.56314 10.0988C2.96532 10.7759 1.93171 11.6741 1.93171 12.3827ZM6.31893 17.6997C6.1113 19.4239 6.3776 20.7645 6.99145 21.1165C7.12686 21.1933 7.29838 21.2339 7.50149 21.2384C8.44032 21.2384 9.82148 20.4892 11.2929 19.1215C10.6565 18.458 10.0246 17.6997 9.41526 16.8647C8.3997 16.7564 7.43379 16.5894 6.54912 16.3727C6.44982 16.8286 6.36858 17.2755 6.31893 17.6997ZM17.0387 21.0985C17.6481 20.7419 17.9099 19.4014 17.6977 17.6772C17.6481 17.2574 17.5668 16.8196 17.463 16.3637C16.5783 16.5849 15.6124 16.7519 14.5924 16.8602C13.992 17.6952 13.3601 18.449 12.7282 19.1125C14.1997 20.4711 15.5853 21.2158 16.5197 21.2158C16.7273 21.2158 16.9033 21.1797 17.0387 21.0985ZM18.1852 15.1225C18.623 14.9826 19.0473 14.8336 19.4354 14.6666C21.0333 13.9896 22.0669 13.0914 22.0714 12.3827C22.0714 11.6741 21.0378 10.7804 19.44 10.0988C19.0428 9.93184 18.6185 9.77838 18.1716 9.63846C17.9189 10.5186 17.5849 11.4349 17.1696 12.3737C17.5894 13.317 17.9279 14.2378 18.1852 15.1225Z" fill="#61DAFB"/>
</g>
<defs>
<clipPath id="clip0_8941_304">
<rect width="24" height="24" rx="4" fill="white"/>
</clipPath>
</defs>
</svg>
