<svg width="24" height="24" viewBox="0 0 24 24" fill="none" xmlns="http://www.w3.org/2000/svg">
<g clip-path="url(#clip0_8941_360)">
<path d="M13.5353 8.51399L12.7825 9.81769L10.2076 5.35794L2.30339 19.0468H7.65509C7.65509 19.7668 8.23878 20.3505 8.9588 20.3505H2.30339C1.83767 20.3505 1.40736 20.1019 1.17454 19.6986C0.941716 19.2952 0.94174 18.7983 1.1746 18.395L9.07885 4.70609C9.31173 4.3027 9.74213 4.0542 10.2079 4.0542C10.6737 4.0542 11.1041 4.3027 11.337 4.70609L13.5353 8.51399Z" fill="#00C58E"/>
<path d="M19.2408 18.3949L14.2878 9.81762L13.5349 8.51392L12.7821 9.81762L7.8296 18.3949C7.59674 18.7982 7.59672 19.2951 7.82954 19.6985C8.06236 20.1018 8.49267 20.3504 8.95839 20.3504H18.1104C18.5762 20.3504 19.0067 20.1021 19.2397 19.6987C19.4726 19.2953 19.4727 18.7983 19.2397 18.3949H19.2408ZM8.95839 19.0467L13.5349 11.1213L18.1104 19.0467H8.95839L8.95839 19.0467Z" fill="#2F495E"/>
<path d="M22.7828 19.6986C22.55 20.1019 22.1197 20.3504 21.6541 20.3504H18.1113C18.8313 20.3504 19.415 19.7667 19.415 19.0467H21.6513L15.3056 8.05594L14.2887 9.81757L13.5358 8.51387L14.1768 7.40409C14.4097 7.0007 14.8401 6.7522 15.3059 6.7522C15.7716 6.7522 16.202 7.0007 16.4349 7.40409L22.7828 18.3949C23.0157 18.7982 23.0157 19.2952 22.7828 19.6986Z" fill="#108775"/>
</g>
<defs>
<clipPath id="clip0_8941_360">
<rect width="22" height="16.39" fill="white" transform="translate(1 4)"/>
</clipPath>
</defs>
</svg>
