<svg width="24" height="24" viewBox="0 0 24 24" fill="none" xmlns="http://www.w3.org/2000/svg">
<g clip-path="url(#clip0_8941_300)">
<g clip-path="url(#clip1_8941_300)">
<path d="M1.70555 11.9998C1.70555 16.0747 4.07356 19.5959 7.50736 21.2648L2.59681 7.81027C2.00815 9.12847 1.70444 10.5561 1.70555 11.9998ZM18.9494 11.4803C18.9494 10.2081 18.4924 9.32698 18.1004 8.64119C17.5786 7.79322 17.0897 7.07512 17.0897 6.22715C17.0897 5.28085 17.8072 4.39997 18.8181 4.39997C18.8638 4.39997 18.907 4.40565 18.9517 4.40819C17.12 2.73027 14.6799 1.70581 11.9999 1.70581C8.40351 1.70581 5.23944 3.55102 3.39875 6.34585C3.64027 6.3531 3.86808 6.358 4.06122 6.358C5.13798 6.358 6.80473 6.22735 6.80473 6.22735C7.35966 6.19463 7.42509 7.0097 6.87094 7.07532C6.87094 7.07532 6.31307 7.14094 5.69252 7.17345L9.44129 18.324L11.6943 11.5675L10.0902 7.17326C9.5359 7.14074 9.01074 7.07512 9.01074 7.07512C8.45601 7.0426 8.52104 6.19444 9.07578 6.22715C9.07578 6.22715 10.7758 6.3578 11.7874 6.3578C12.8639 6.3578 14.5309 6.22715 14.5309 6.22715C15.0862 6.19444 15.1514 7.0095 14.5969 7.07512C14.5969 7.07512 14.038 7.14074 13.4187 7.17326L17.1388 18.2394L18.1654 14.8081C18.6107 13.3843 18.9494 12.3616 18.9494 11.4803Z" fill="#00749A"/>
<path d="M12.1808 12.9002L9.09218 21.8751C10.0365 22.1534 11.0158 22.2947 12.0002 22.2947C13.199 22.2947 14.3487 22.0873 15.4188 21.7112C15.3901 21.6662 15.3655 21.6188 15.3455 21.5693L12.1808 12.9002ZM21.0331 7.06079C21.0774 7.3887 21.1025 7.74089 21.1025 8.11933C21.1025 9.16397 20.9074 10.3383 20.3197 11.8066L17.1752 20.8981C20.2357 19.1134 22.2942 15.7977 22.2942 11.9997C22.297 10.2734 21.8632 8.57447 21.0331 7.06079Z" fill="#00749A"/>
<path d="M12.0002 0C5.38354 0 0.00012207 5.38302 0.00012207 11.9997C0.00012207 18.6172 5.38334 24.0002 12.0002 24.0002C18.6167 24.0002 24.0009 18.6174 24.0009 11.9997C24.0007 5.38302 18.6167 0 12.0002 0ZM12.0002 23.45C5.68696 23.45 0.550354 18.3134 0.550354 11.9997C0.550354 5.68664 5.68676 0.550427 12.0002 0.550427C18.3133 0.550427 23.4495 5.68664 23.4495 11.9997C23.4495 18.3134 18.3131 23.45 12.0002 23.45Z" fill="#00749A"/>
</g>
</g>
<defs>
<clipPath id="clip0_8941_300">
<rect width="24" height="24" rx="4" fill="white"/>
</clipPath>
<clipPath id="clip1_8941_300">
<rect width="24" height="24" fill="white"/>
</clipPath>
</defs>
</svg>
