<svg width="24" height="24" viewBox="0 0 24 24" fill="none" xmlns="http://www.w3.org/2000/svg">
<g clip-path="url(#clip0_8941_332)">
<g clip-path="url(#clip1_8941_332)">
<rect width="24" height="24" rx="12" fill="white"/>
<path d="M11.2024 0.0064525C11.1508 0.0111395 10.9868 0.0275442 10.8391 0.0392618C7.43399 0.346263 4.24445 2.18358 2.22434 5.00753C1.09945 6.57769 0.379986 8.35876 0.108138 10.2453C0.0120533 10.9038 0.000335693 11.0983 0.000335693 11.9912C0.000335693 12.8841 0.0120533 13.0786 0.108138 13.7371C0.759637 18.239 3.96323 22.0215 8.30812 23.4229C9.08617 23.6737 9.9064 23.8447 10.8391 23.9479C11.2024 23.9877 12.7725 23.9877 13.1358 23.9479C14.7458 23.7698 16.1097 23.3714 17.4549 22.6847C17.6611 22.5792 17.701 22.5511 17.6728 22.5277C17.6541 22.5136 16.7753 21.3348 15.7207 19.91L13.8037 17.3204L11.4016 13.7653C10.0798 11.8108 8.99243 10.2125 8.98305 10.2125C8.97368 10.2101 8.9643 11.7897 8.95962 13.7184C8.95259 17.0954 8.95024 17.2313 8.90806 17.311C8.84713 17.4258 8.80026 17.4727 8.70183 17.5243C8.62684 17.5618 8.56122 17.5688 8.20735 17.5688H7.80192L7.69412 17.5008C7.62381 17.4563 7.57225 17.3977 7.5371 17.3298L7.48789 17.2243L7.49257 12.5255L7.4996 7.82444L7.57225 7.73304C7.60975 7.68383 7.68943 7.62055 7.74567 7.59009C7.84176 7.54322 7.87925 7.53853 8.28468 7.53853C8.76276 7.53853 8.84244 7.55728 8.96665 7.6932C9.0018 7.7307 10.3025 9.68988 11.8586 12.0498C13.4147 14.4097 15.5426 17.6321 16.5878 19.214L18.486 22.0895L18.5821 22.0262C19.4328 21.4731 20.3327 20.6857 21.0452 19.8654C22.5614 18.1242 23.5387 16.001 23.8668 13.7371C23.9628 13.0786 23.9746 12.8841 23.9746 11.9912C23.9746 11.0983 23.9628 10.9038 23.8668 10.2453C23.2153 5.74339 20.0117 1.96095 15.6668 0.559523C14.9004 0.31111 14.0849 0.140033 13.1709 0.0369183C12.9459 0.0134831 11.3969 -0.0122957 11.2024 0.0064525ZM16.1097 7.25731C16.2222 7.31355 16.3136 7.42135 16.3464 7.53384C16.3651 7.59477 16.3698 8.89777 16.3651 11.8342L16.3581 16.0479L15.6152 14.9089L14.87 13.77V10.707C14.87 8.72669 14.8794 7.61352 14.8934 7.55962C14.9309 7.42838 15.0129 7.32527 15.1254 7.26434C15.2215 7.21512 15.2567 7.21044 15.6246 7.21044C15.9714 7.21044 16.0324 7.21512 16.1097 7.25731Z" fill="black"/>
<path d="M12.6389 12.0493C12.5569 12.1009 12.5311 12.136 12.6038 12.0962C12.6553 12.0657 12.7397 12.0025 12.7256 12.0001C12.7186 12.0001 12.6788 12.0236 12.6389 12.0493ZM12.4772 12.1548C12.435 12.1876 12.435 12.19 12.4866 12.1642C12.5147 12.1501 12.5382 12.1337 12.5382 12.129C12.5382 12.1103 12.5264 12.115 12.4772 12.1548ZM12.3601 12.2251C12.3179 12.2579 12.3179 12.2603 12.3694 12.2345C12.3975 12.2204 12.421 12.204 12.421 12.1993C12.421 12.1806 12.4093 12.1853 12.3601 12.2251ZM12.2429 12.2954C12.2007 12.3282 12.2007 12.3306 12.2522 12.3048C12.2804 12.2907 12.3038 12.2743 12.3038 12.2696C12.3038 12.2509 12.2921 12.2556 12.2429 12.2954ZM12.0648 12.3892C11.9757 12.436 11.9804 12.4548 12.0695 12.4102C12.1093 12.3892 12.1398 12.3681 12.1398 12.3634C12.1398 12.347 12.1374 12.3493 12.0648 12.3892Z" fill="black"/>
</g>
</g>
<defs>
<clipPath id="clip0_8941_332">
<rect width="24" height="24" rx="4" fill="white"/>
</clipPath>
<clipPath id="clip1_8941_332">
<rect width="24" height="24" rx="12" fill="white"/>
</clipPath>
</defs>
</svg>
