<svg width="24" height="24" viewBox="0 0 24 24" fill="none" xmlns="http://www.w3.org/2000/svg">
<path fill-rule="evenodd" clip-rule="evenodd" d="M18.7159 4.6495C19.2559 3.71409 18.9354 2.51798 18 1.97792C17.0646 1.43786 15.8685 1.75836 15.3284 2.69377L12 8.45876L8.6716 2.69377C8.13154 1.75836 6.93543 1.43786 6.00002 1.97792C5.0646 2.51798 4.74411 3.71409 5.28417 4.6495L9.74173 12.3702L5.28417 20.0909C4.7441 21.0264 5.0646 22.2225 6.00001 22.7625C6.93543 23.3026 8.13154 22.9821 8.6716 22.0467L12 16.2817L15.3284 22.0467C15.8685 22.9821 17.0646 23.3026 18 22.7625C18.9354 22.2225 19.2559 21.0264 18.7159 20.091L14.2583 12.3702L18.7159 4.6495Z" fill="#FF4131"/>
<path fill-rule="evenodd" clip-rule="evenodd" d="M6.00001 1.97787C6.93542 1.43781 8.13153 1.7583 8.67159 2.69372L13.235 10.5977C13.775 11.5331 13.4545 12.7292 12.5191 13.2693C11.5837 13.8094 10.3876 13.4889 9.84754 12.5535L5.28416 4.64945C4.7441 3.71404 5.0646 2.51793 6.00001 1.97787Z" fill="#FEBE00"/>
<path fill-rule="evenodd" clip-rule="evenodd" d="M13.4728 12.3637C13.4728 13.4438 12.5972 14.3195 11.5171 14.3195L1.95574 14.3195C0.875614 14.3195 1.90735e-06 13.4438 1.90735e-06 12.3637C1.90735e-06 11.2836 0.875614 10.408 1.95574 10.408L11.5171 10.408C12.5972 10.408 13.4728 11.2836 13.4728 12.3637Z" fill="#01AB4B"/>
<path fill-rule="evenodd" clip-rule="evenodd" d="M18.7158 4.6495C19.2559 3.71409 18.9354 2.51798 18 1.97792C17.0646 1.43786 15.8685 1.75836 15.3284 2.69377L10.6202 10.8487C10.2009 11.5748 10.3003 12.458 10.8032 13.0695C11.0863 13.8009 11.7964 14.3195 12.6278 14.3195H22.0443C23.1244 14.3195 24 13.4439 24 12.3638C24 11.2837 23.1244 10.4081 22.0443 10.4081H15.3911L18.7158 4.6495Z" fill="#0072EE"/>
<path d="M12 8.45227L15.3874 14.3195H8.61258L12 8.45227Z" fill="#014DAC"/>
</svg>
