<svg width="24" height="24" viewBox="0 0 24 24" fill="none" xmlns="http://www.w3.org/2000/svg">
<g clip-path="url(#clip0_8941_344)">
<path fill-rule="evenodd" clip-rule="evenodd" d="M15.284 15.5944V9.13C15.284 9.01946 15.2401 8.91345 15.1619 8.83529C15.0837 8.75713 14.9777 8.71322 14.8672 8.71322H8.41034V2.04053H21.5325C21.5872 2.04052 21.6414 2.05129 21.692 2.07224C21.7426 2.09318 21.7886 2.12388 21.8273 2.16259C21.866 2.20131 21.8967 2.24726 21.9177 2.29785C21.9386 2.34843 21.9494 2.40264 21.9494 2.45739V15.5944H15.284Z" fill="#8E75FF"/>
<path opacity="0.405" fill-rule="evenodd" clip-rule="evenodd" d="M8.40991 2.04053V8.71322H2.24736C2.20614 8.71321 2.16586 8.70098 2.13159 8.67809C2.09732 8.65519 2.07061 8.62265 2.05483 8.58457C2.03905 8.5465 2.03491 8.50461 2.04293 8.46418C2.05095 8.42375 2.07077 8.38661 2.09989 8.35745L8.40991 2.04053ZM15.2836 21.7634V15.5944H21.949L15.6395 21.9107C15.6103 21.9399 15.5732 21.9597 15.5328 21.9678C15.4923 21.9758 15.4504 21.9717 15.4124 21.9559C15.3743 21.9402 15.3417 21.9135 15.3188 21.8792C15.2959 21.8449 15.2836 21.8047 15.2836 21.7634ZM8.40991 8.71322H15.0751C15.1304 8.71322 15.1834 8.73518 15.2225 8.77425C15.2616 8.81333 15.2836 8.86634 15.2836 8.92161V15.5944H8.82678C8.77203 15.5944 8.71783 15.5836 8.66725 15.5627C8.61668 15.5417 8.57072 15.511 8.53201 15.4723C8.4933 15.4336 8.4626 15.3876 8.44165 15.3371C8.4207 15.2865 8.40991 15.2323 8.40991 15.1775V8.71322Z" fill="#8E75FF"/>
</g>
<defs>
<clipPath id="clip0_8941_344">
<rect width="20" height="20" fill="white" transform="translate(2 2)"/>
</clipPath>
</defs>
</svg>
