<svg width="24" height="24" viewBox="0 0 24 24" fill="none" xmlns="http://www.w3.org/2000/svg">
<g clip-path="url(#clip0_8941_340)">
<g clip-path="url(#clip1_8941_340)">
<path d="M12 24C18.6274 24 24 18.6274 24 12C24 5.37258 18.6274 0 12 0C5.37258 0 0 5.37258 0 12C0 18.6274 5.37258 24 12 24Z" fill="#2B2E3A"/>
<path d="M9.42176 6.72095C6.98379 6.27695 5.0561 6.74167 4.28782 8.07236C3.71454 9.06536 3.87842 10.3819 4.68532 11.7892C4.70125 11.8184 4.72286 11.8441 4.74888 11.8649C4.7749 11.8857 4.8048 11.901 4.83684 11.9101C4.86887 11.9192 4.90239 11.9217 4.93543 11.9176C4.96847 11.9136 5.00036 11.9029 5.02924 11.8864C5.05812 11.8698 5.0834 11.8477 5.1036 11.8212C5.12379 11.7947 5.13851 11.7645 5.14687 11.7323C5.15523 11.7001 5.15707 11.6665 5.15229 11.6336C5.1475 11.6006 5.13619 11.569 5.11901 11.5404C4.39226 10.2728 4.25079 9.13661 4.72085 8.32239C5.3591 7.21698 7.07848 6.80242 9.33213 7.21286C9.39689 7.22364 9.4633 7.20852 9.517 7.17076C9.57071 7.13299 9.60741 7.07563 9.61918 7.01104C9.63095 6.94645 9.61684 6.87982 9.5799 6.82555C9.54296 6.77127 9.48616 6.7337 9.42176 6.72095ZM5.9531 13.4997C6.93888 14.583 8.2196 15.5992 9.68023 16.4424C13.2168 18.4842 16.9818 19.0299 18.8373 17.7648C18.865 17.7466 18.8889 17.723 18.9074 17.6955C18.9259 17.6679 18.9388 17.637 18.9453 17.6044C18.9517 17.5718 18.9516 17.5383 18.945 17.5058C18.9383 17.4732 18.9253 17.4423 18.9066 17.4149C18.8879 17.3875 18.8639 17.3641 18.836 17.346C18.8082 17.3279 18.777 17.3156 18.7443 17.3097C18.7116 17.3038 18.6781 17.3045 18.6457 17.3117C18.6133 17.3189 18.5826 17.3325 18.5555 17.3517C16.8949 18.484 13.3185 17.9656 9.93026 16.0094C8.51332 15.1914 7.2731 14.2074 6.32295 13.1632C6.30089 13.1387 6.27422 13.1189 6.24448 13.1048C6.21473 13.0907 6.1825 13.0826 6.14962 13.081C6.11675 13.0794 6.08387 13.0843 6.05289 13.0954C6.02191 13.1065 5.99343 13.1237 5.96909 13.1458C5.94474 13.168 5.92501 13.1947 5.91103 13.2245C5.89704 13.2543 5.88908 13.2866 5.88759 13.3194C5.88611 13.3523 5.89113 13.3852 5.90237 13.4161C5.91361 13.4471 5.93085 13.4755 5.9531 13.4997Z" fill="#9FEAF9"/>
<path d="M18.2451 13.1956C19.8415 11.3097 20.3988 9.41297 19.6321 8.0851C19.068 7.10794 17.8754 6.59204 16.2904 6.57141C16.2247 6.57151 16.1617 6.59745 16.115 6.64363C16.0683 6.68981 16.0416 6.75252 16.0408 6.81821C16.0399 6.88389 16.065 6.94727 16.1105 6.99464C16.156 7.04202 16.2183 7.06958 16.2839 7.07138C17.7094 7.08994 18.7369 7.53441 19.1992 8.33513C19.8359 9.4381 19.3389 11.1295 17.8634 12.8725C17.8418 12.8975 17.8253 12.9266 17.815 12.958C17.8046 12.9894 17.8006 13.0226 17.8032 13.0555C17.8057 13.0885 17.8148 13.1206 17.8299 13.1501C17.8449 13.1795 17.8657 13.2057 17.8909 13.2271C17.9162 13.2484 17.9454 13.2646 17.9769 13.2746C18.0084 13.2846 18.0416 13.2882 18.0746 13.2853C18.1075 13.2823 18.1395 13.2729 18.1688 13.2575C18.1981 13.2421 18.224 13.2211 18.2451 13.1956ZM14.1425 6.80419C12.6991 7.11347 11.1628 7.71816 9.68732 8.56997C6.03651 10.6778 3.65497 13.7858 3.98572 16.0395C3.99013 16.0723 4.00101 16.1039 4.01772 16.1325C4.03443 16.161 4.05665 16.186 4.08308 16.2059C4.10951 16.2258 4.13962 16.2403 4.17169 16.2484C4.20375 16.2566 4.23712 16.2584 4.26986 16.2536C4.3026 16.2488 4.33405 16.2375 4.36241 16.2204C4.39076 16.2034 4.41545 16.1809 4.43504 16.1542C4.45463 16.1275 4.46873 16.0972 4.47652 16.0651C4.48432 16.0329 4.48565 15.9995 4.48044 15.9668C4.18672 13.9658 6.44422 11.0198 9.93735 9.003C11.3686 8.1766 12.8563 7.59113 14.2472 7.2931C14.2798 7.28668 14.3107 7.27385 14.3383 7.25535C14.3658 7.23685 14.3894 7.21306 14.4077 7.18535C14.4259 7.15765 14.4385 7.12658 14.4446 7.09397C14.4507 7.06137 14.4503 7.02786 14.4434 6.99542C14.4364 6.96298 14.4231 6.93224 14.4041 6.905C14.3852 6.87777 14.361 6.85457 14.333 6.83677C14.305 6.81898 14.2737 6.80693 14.241 6.80134C14.2083 6.79574 14.1748 6.79671 14.1425 6.80419Z" fill="#9FEAF9"/>
<path d="M8.22811 17.6018C9.06286 19.9324 10.4283 21.3675 11.9638 21.3675C13.0836 21.3675 14.1196 20.604 14.9276 19.2601C14.9451 19.232 14.9568 19.2006 14.962 19.1679C14.9673 19.1352 14.966 19.1018 14.9582 19.0695C14.9505 19.0373 14.9364 19.007 14.9167 18.9803C14.8971 18.9536 14.8724 18.931 14.844 18.9139C14.8156 18.8969 14.7841 18.8856 14.7513 18.8808C14.7185 18.876 14.6851 18.8778 14.653 18.886C14.6209 18.8943 14.5907 18.9088 14.5643 18.9288C14.5379 18.9488 14.5157 18.9739 14.499 19.0025C13.7729 20.2103 12.8811 20.8674 11.9638 20.8674C10.6883 20.8674 9.47039 19.5875 8.69892 17.4333C8.68835 17.4018 8.6716 17.3727 8.64964 17.3477C8.62768 17.3227 8.60095 17.3023 8.57103 17.2878C8.5411 17.2733 8.50858 17.2649 8.47536 17.2631C8.44214 17.2613 8.4089 17.2661 8.37758 17.2773C8.34626 17.2885 8.3175 17.3059 8.29296 17.3284C8.26843 17.3508 8.24863 17.378 8.23472 17.4082C8.22081 17.4384 8.21307 17.4711 8.21195 17.5043C8.21083 17.5376 8.21635 17.5707 8.2282 17.6018H8.22811ZM15.852 17.1459C16.2842 15.7651 16.5163 14.1723 16.5163 12.5125C16.5163 8.3707 15.0666 4.80033 13.0019 3.88355C12.9415 3.85828 12.8737 3.85766 12.8129 3.8818C12.7522 3.90595 12.7033 3.95294 12.6767 4.01271C12.6502 4.07247 12.6481 4.14026 12.671 4.20153C12.6938 4.26281 12.7398 4.31269 12.799 4.34049C14.6405 5.15827 16.0162 8.54667 16.0162 12.5125C16.0162 14.1228 15.7915 15.6653 15.375 16.9965C15.3646 17.028 15.3606 17.0612 15.3632 17.0943C15.3658 17.1273 15.375 17.1595 15.3901 17.189C15.4053 17.2184 15.4261 17.2446 15.4515 17.2659C15.4768 17.2873 15.5062 17.3034 15.5378 17.3132C15.5694 17.3231 15.6027 17.3267 15.6357 17.3236C15.6687 17.3205 15.7007 17.3109 15.73 17.2953C15.7592 17.2798 15.7851 17.2585 15.8061 17.2329C15.827 17.2072 15.8427 17.1777 15.8521 17.1459H15.852ZM20.5605 16.901C20.5605 16.2402 20.0249 15.7045 19.364 15.7045C18.7032 15.7045 18.1675 16.2402 18.1675 16.901C18.1675 17.5619 18.7032 18.0975 19.364 18.0975C20.0249 18.0975 20.5605 17.5619 20.5605 16.901ZM20.0606 16.901C20.0606 16.9925 20.0426 17.0831 20.0075 17.1676C19.9725 17.2521 19.9212 17.3289 19.8566 17.3936C19.7919 17.4582 19.7151 17.5096 19.6306 17.5446C19.5461 17.5796 19.4555 17.5976 19.364 17.5976C19.2725 17.5976 19.182 17.5796 19.0974 17.5446C19.0129 17.5096 18.9361 17.4582 18.8715 17.3936C18.8068 17.3289 18.7555 17.2521 18.7205 17.1676C18.6855 17.0831 18.6674 16.9925 18.6674 16.901C18.6674 16.7163 18.7408 16.5391 18.8715 16.4085C19.0021 16.2778 19.1793 16.2045 19.364 16.2045C19.5488 16.2045 19.7259 16.2778 19.8566 16.4085C19.9872 16.5391 20.0606 16.7163 20.0606 16.901ZM4.54626 18.0975C5.2072 18.0975 5.74289 17.5619 5.74289 16.901C5.74289 16.2402 5.20711 15.7045 4.54626 15.7045C3.88551 15.7045 3.34973 16.2402 3.34973 16.901C3.34973 17.5619 3.88551 18.0975 4.54626 18.0975ZM4.54626 17.5976C4.36152 17.5976 4.18435 17.5242 4.05372 17.3936C3.92309 17.2629 3.8497 17.0858 3.8497 16.901C3.8497 16.7163 3.92309 16.5391 4.05372 16.4085C4.18435 16.2778 4.36152 16.2045 4.54626 16.2045C4.731 16.2045 4.90818 16.2778 5.03881 16.4085C5.16944 16.5391 5.24282 16.7163 5.24282 16.901C5.24282 17.0858 5.16944 17.2629 5.03881 17.3936C4.90818 17.5242 4.731 17.5976 4.54626 17.5976Z" fill="#9FEAF9"/>
<path d="M11.9637 5.10412C12.6245 5.10412 13.1602 4.56843 13.1602 3.90759C13.1602 3.24675 12.6245 2.71106 11.9637 2.71106C11.3028 2.71106 10.7671 3.24675 10.7671 3.90759C10.7671 4.56843 11.3028 5.10412 11.9637 5.10412ZM11.9637 4.60415C11.7789 4.60415 11.6017 4.53076 11.4711 4.40013C11.3405 4.2695 11.2671 4.09233 11.2671 3.90759C11.2671 3.72285 11.3405 3.54568 11.4711 3.41505C11.6017 3.28442 11.7789 3.21103 11.9637 3.21103C12.1484 3.21103 12.3256 3.28442 12.4562 3.41505C12.5868 3.54568 12.6602 3.72285 12.6602 3.90759C12.6602 4.09233 12.5868 4.2695 12.4562 4.40013C12.3256 4.53076 12.1484 4.60415 11.9637 4.60415ZM12.1464 13.3587C11.679 13.4597 11.2186 13.1627 11.1175 12.6953C11.069 12.4709 11.1117 12.2364 11.2361 12.0435C11.3605 11.8505 11.5564 11.7149 11.7808 11.6663C12.2482 11.5654 12.7086 11.8624 12.8098 12.3297C12.9108 12.7971 12.6138 13.2576 12.1464 13.3587Z" fill="#9FEAF9"/>
</g>
</g>
<defs>
<clipPath id="clip0_8941_340">
<rect width="24" height="24" rx="4" fill="white"/>
</clipPath>
<clipPath id="clip1_8941_340">
<rect width="24" height="24" fill="white"/>
</clipPath>
</defs>
</svg>
