<svg width="24" height="24" viewBox="0 0 24 24" fill="none" xmlns="http://www.w3.org/2000/svg">
<g clip-path="url(#clip0_8941_284)">
<path d="M11.9993 20.8703C15.8468 20.8703 18.9657 17.7513 18.9657 13.9039C18.9657 10.0565 15.8468 6.9375 11.9993 6.9375C8.15189 6.9375 5.03293 10.0565 5.03293 13.9039C5.03293 17.7513 8.15189 20.8703 11.9993 20.8703Z" fill="#FFC627"/>
<path d="M14.7721 15.9985L12.1681 10.9137C11.9385 10.4657 11.3897 10.2865 10.9417 10.5161C10.4937 10.7457 10.3145 11.2945 10.5441 11.7425L11.6305 13.8649L9.68173 15.8081C9.32333 16.1665 9.32333 16.7433 9.68173 17.1017C9.86093 17.2809 10.0961 17.3705 10.3257 17.3705C10.5553 17.3705 10.7905 17.2809 10.9697 17.1017L12.5041 15.5729L13.1481 16.8273C13.3105 17.1409 13.6297 17.3257 13.9601 17.3257C14.1001 17.3257 14.2401 17.2921 14.3745 17.2249C14.8225 16.9953 15.0017 16.4465 14.7721 15.9985Z" fill="#232323"/>
<path d="M18.2773 1.84155C17.7565 2.17195 18.6357 5.17915 16.5525 6.95435C15.2365 6.10315 13.6741 5.60475 11.9885 5.60475C10.3085 5.60475 8.74611 6.10315 7.43571 6.94875C5.36371 5.17355 6.23731 2.17195 5.72211 1.84155C4.87651 1.29835 3.28051 4.40635 3.40371 6.38315C3.47091 7.43595 3.75091 8.98715 4.51811 10.1799C3.94691 11.3055 3.61651 12.5655 3.61651 13.9095C3.61651 18.4904 7.37411 22.2199 11.9885 22.2199C16.6085 22.2199 20.3605 18.4904 20.3605 13.9095C20.3605 12.5767 20.0357 11.3167 19.4701 10.2023C20.2485 8.99835 20.5285 7.44155 20.5957 6.38315C20.7189 4.40635 19.1229 1.30395 18.2773 1.84155ZM11.9885 20.3888C8.39331 20.3888 5.46451 17.4824 5.46451 13.9151C5.46451 10.3423 8.39331 7.44155 11.9885 7.44155C15.5893 7.44155 18.5181 10.3479 18.5181 13.9151C18.5181 17.4824 15.5893 20.3888 11.9885 20.3888Z" fill="#232323"/>
</g>
<defs>
<clipPath id="clip0_8941_284">
<rect width="24" height="24" rx="4" fill="white"/>
</clipPath>
</defs>
</svg>
