<svg width="24" height="24" viewBox="0 0 24 24" fill="none" xmlns="http://www.w3.org/2000/svg">
<rect width="24" height="24" rx="4" fill="#222222"/>
<path d="M9.48853 20.4827C10.2416 20.7859 11.0588 20.9658 11.9167 20.9957C13.0779 21.0362 14.182 20.7962 15.1691 20.3402C13.9854 19.8751 12.9134 19.195 11.9985 18.3495C11.4054 19.299 10.5282 20.0491 9.48853 20.4827Z" fill="#FF9100"/>
<path d="M11.9984 18.3497C9.90989 16.4181 8.64295 13.6225 8.75 10.5561C8.75349 10.4565 8.75876 10.357 8.76489 10.2575C8.39086 10.1607 8.00037 10.1017 7.5985 10.0877C7.02327 10.0676 6.46622 10.1389 5.94031 10.2871C5.3828 11.2636 5.04636 12.3841 5.00445 13.5844C4.89628 16.6819 6.77077 19.3884 9.48843 20.4829C10.5282 20.0493 11.4053 19.3001 11.9984 18.3497Z" fill="#FFC400"/>
<path d="M11.9985 18.3495C12.484 17.5724 12.7784 16.6614 12.8126 15.6799C12.9028 13.0981 11.1671 10.8771 8.76496 10.2573C8.75876 10.3568 8.75356 10.4563 8.75007 10.5559C8.64296 13.6222 9.90996 16.4179 11.9985 18.3495Z" fill="#FF9100"/>
<path d="M12.544 3C11.1759 4.09606 10.0955 5.54132 9.44182 7.20621C9.0676 8.15985 8.83243 9.1842 8.76379 10.258C11.166 10.8778 12.9017 13.0987 12.8115 15.6806C12.7773 16.6621 12.482 17.5722 11.9973 18.3502C12.9122 19.1967 13.9842 19.8759 15.1679 20.3409C17.5438 19.2426 19.2295 16.8794 19.3271 14.0842C19.3903 12.2732 18.6945 10.6591 17.7113 9.29665C16.673 7.85573 12.544 3 12.544 3Z" fill="#DD2C00"/>
</svg>
