<svg width="24" height="24" viewBox="0 0 24 24" fill="none" xmlns="http://www.w3.org/2000/svg">
<path d="M20.8616 18.1447C20.534 18.9133 20.1463 19.6208 19.6971 20.2713C19.0848 21.158 18.5834 21.7719 18.197 22.1127C17.5981 22.6722 16.9564 22.9587 16.2692 22.975C15.7758 22.975 15.1809 22.8324 14.4884 22.5432C13.7936 22.2553 13.155 22.1127 12.5712 22.1127C11.9589 22.1127 11.3022 22.2553 10.5997 22.5432C9.89623 22.8324 9.3295 22.9832 8.89619 22.9981C8.23721 23.0266 7.58037 22.7319 6.92473 22.1127C6.50627 21.742 5.98286 21.1064 5.35583 20.2061C4.68308 19.2446 4.12999 18.1297 3.69668 16.8587C3.23263 15.4857 3 14.1563 3 12.8692C3 11.3948 3.31365 10.1232 3.94188 9.0576C4.43561 8.20166 5.09245 7.52647 5.91454 7.03081C6.73663 6.53514 7.62489 6.28256 8.58148 6.2664C9.10489 6.2664 9.79128 6.43085 10.6442 6.75405C11.4948 7.07834 12.041 7.24279 12.2804 7.24279C12.4594 7.24279 13.0661 7.0505 14.0946 6.66714C15.0673 6.31162 15.8881 6.16441 16.5606 6.2224C18.3829 6.37178 19.7519 7.10142 20.6624 8.41595C19.0326 9.41896 18.2265 10.8238 18.2425 12.626C18.2572 14.0297 18.7586 15.1979 19.7439 16.1254C20.1904 16.5558 20.6891 16.8885 21.2439 17.1248C21.1236 17.4793 20.9966 17.8188 20.8616 18.1447ZM16.6823 1.44013C16.6823 2.54038 16.2866 3.56768 15.4978 4.51854C14.5459 5.64892 13.3945 6.30211 12.1459 6.19904C12.13 6.06705 12.1208 5.92812 12.1208 5.78214C12.1208 4.7259 12.5735 3.59552 13.3774 2.67127C13.7787 2.20331 14.2892 1.81421 14.9082 1.50381C15.5258 1.19805 16.1101 1.02896 16.6596 1C16.6756 1.14709 16.6823 1.29418 16.6823 1.44011V1.44013Z" fill="#18171A"/>
</svg>
