<svg width="32" height="32" viewBox="0 0 32 32" fill="none" xmlns="http://www.w3.org/2000/svg">
<path fill-rule="evenodd" clip-rule="evenodd" d="M2.86808 24.0752L12.8786 5.72258C14.2263 3.25196 17.7738 3.25196 19.1214 5.72259L29.1319 24.0752C30.4243 26.4445 28.7094 29.3333 26.0105 29.3333H5.98949C3.29061 29.3333 1.57572 26.4445 2.86808 24.0752ZM16 11.3333C16.9205 11.3333 17.6667 12.0795 17.6667 13V18.3333C17.6667 19.2538 16.9205 20 16 20C15.0795 20 14.3333 19.2538 14.3333 18.3333V13C14.3333 12.0795 15.0795 11.3333 16 11.3333ZM14.3262 23.1667C14.3262 22.2462 15.0724 21.5 15.9929 21.5H16.0054C16.9259 21.5 17.6721 22.2462 17.6721 23.1667C17.6721 24.0871 16.9259 24.8333 16.0054 24.8333H15.9929C15.0724 24.8333 14.3262 24.0871 14.3262 23.1667Z" fill="url(#paint0_linear_11312_1136)"/>
<path fill-rule="evenodd" clip-rule="evenodd" d="M2.86808 24.0752L12.8786 5.72258C14.2263 3.25196 17.7738 3.25196 19.1214 5.72259L29.1319 24.0752C30.4243 26.4445 28.7094 29.3333 26.0105 29.3333H5.98949C3.29061 29.3333 1.57572 26.4445 2.86808 24.0752ZM16 11.3333C16.9205 11.3333 17.6667 12.0795 17.6667 13V18.3333C17.6667 19.2538 16.9205 20 16 20C15.0795 20 14.3333 19.2538 14.3333 18.3333V13C14.3333 12.0795 15.0795 11.3333 16 11.3333ZM14.3262 23.1667C14.3262 22.2462 15.0724 21.5 15.9929 21.5H16.0054C16.9259 21.5 17.6721 22.2462 17.6721 23.1667C17.6721 24.0871 16.9259 24.8333 16.0054 24.8333H15.9929C15.0724 24.8333 14.3262 24.0871 14.3262 23.1667Z" fill="url(#paint1_linear_11312_1136)"/>
<defs>
<linearGradient id="paint0_linear_11312_1136" x1="16" y1="1.55611e-05" x2="16" y2="29.3333" gradientUnits="userSpaceOnUse">
<stop stop-color="#A799FF"/>
<stop offset="1" stop-color="#6851FF"/>
</linearGradient>
<linearGradient id="paint1_linear_11312_1136" x1="16" y1="1.55611e-05" x2="16" y2="29.3333" gradientUnits="userSpaceOnUse">
<stop stop-color="#FF9B80"/>
<stop offset="1" stop-color="#FC5C30"/>
</linearGradient>
</defs>
</svg>
