<svg width="32" height="32" viewBox="0 0 32 32" fill="none" xmlns="http://www.w3.org/2000/svg">
<rect width="26.241" height="18.9423" rx="1.53756" transform="matrix(0.707109 -0.707105 0.707109 0.707105 -0.254883 18.5551)" fill="url(#paint0_linear_10465_20652)"/>
<path fill-rule="evenodd" clip-rule="evenodd" d="M21.8345 5.00075L21.5924 5.24284C20.4541 6.38107 18.6087 6.38107 17.4704 5.24284L16.0482 3.8206L3.63208 16.2366L5.12994 17.7345C6.22643 18.8309 6.22643 20.6087 5.12994 21.7052L4.74698 22.0881L9.70683 27.0479L10.0896 26.6652C11.186 25.5687 12.9638 25.5687 14.0603 26.6652L15.5584 28.1633L27.9092 15.8126L26.3545 14.2578C25.2894 13.1927 25.2894 11.4658 26.3545 10.4007L26.7945 9.96074L21.8345 5.00075ZM30.6583 14.5312L30.6726 14.5168L30.7809 14.4084C31.3135 13.8759 31.3135 13.0124 30.7809 12.4799L30.6803 12.3793C30.6731 12.3717 30.6657 12.3642 30.6583 12.3568L22.5683 4.26688L19.4385 1.13703L19.3817 1.08029C18.8126 0.511173 17.8899 0.511172 17.3207 1.08029L17.264 1.13703L15.3143 3.08673L2.89821 15.5027L0.883226 17.5177L0.788685 17.6122C0.240443 18.1605 0.240444 19.0494 0.788686 19.5976L0.883228 19.6921L4.0131 22.822L8.97296 27.7818L8.97271 27.7821L12.1971 31.0065C12.7454 31.5547 13.6342 31.5547 14.1825 31.0065L14.2535 30.9354C14.2616 30.9277 14.2696 30.9199 14.2775 30.9119L30.6583 14.5312ZM15.3226 13.6357L13.8451 13.1378C13.0448 12.8662 12.6107 13.3004 12.8794 14.1035L13.3773 15.581C13.448 15.7853 13.4018 16.0953 13.2796 16.268L12.5405 17.3045C12.0682 17.9676 12.3527 18.5137 13.1687 18.5171L14.5547 18.5228C14.7894 18.5237 15.0807 18.687 15.2073 18.8859L15.8711 19.9449C16.3943 20.7798 17.0227 20.6846 17.2619 19.7327L17.5974 18.4039C17.6606 18.1611 17.9083 17.9134 18.1484 17.8529L19.4772 17.5175C20.4319 17.2755 20.5271 16.6527 19.6894 16.1267L18.6304 15.4629C18.4314 15.3363 18.2682 15.045 18.2672 14.8103L18.2615 13.4242C18.2609 12.6055 17.7121 12.3238 17.0489 12.7961L16.0124 13.5351C15.8369 13.6602 15.5269 13.7064 15.3226 13.6357Z" fill="url(#paint1_linear_10465_20652)"/>
<defs>
<linearGradient id="paint0_linear_10465_20652" x1="13.1205" y1="0" x2="13.1205" y2="18.9423" gradientUnits="userSpaceOnUse">
<stop stop-color="#544D82"/>
<stop offset="1" stop-color="#3D395A"/>
</linearGradient>
<linearGradient id="paint1_linear_10465_20652" x1="5.46996" y1="5.72387" x2="19.7481" y2="20.0021" gradientUnits="userSpaceOnUse">
<stop stop-color="#9E90F8"/>
<stop offset="1" stop-color="#585285"/>
</linearGradient>
</defs>
</svg>
