<svg width="32" height="32" viewBox="0 0 32 32" fill="none" xmlns="http://www.w3.org/2000/svg">
<path fill-rule="evenodd" clip-rule="evenodd" d="M16.0047 25.3341C21.1593 25.3341 25.338 21.1554 25.338 16.0008C25.338 10.8461 21.1593 6.66745 16.0047 6.66745C10.85 6.66745 6.67135 10.8461 6.67135 16.0008C6.67135 21.1554 10.85 25.3341 16.0047 25.3341ZM14.6917 12.8109C15.1258 12.0172 15.3429 11.6204 15.6317 11.4922C15.8727 11.3854 16.1476 11.3854 16.3885 11.4922C16.6774 11.6204 16.8944 12.0172 17.3285 12.8109L17.7788 13.6343C17.8582 13.7794 17.8979 13.852 17.9486 13.9155C17.9918 13.9695 18.0409 14.0186 18.095 14.0618C18.1585 14.1126 18.2311 14.1523 18.3762 14.2316L19.1996 14.682C19.9933 15.1161 20.3901 15.3331 20.5182 15.622C20.6251 15.8629 20.6251 16.1378 20.5182 16.3787C20.3901 16.6676 19.9933 16.8846 19.1996 17.3187L18.3762 17.7691C18.2311 17.8484 18.1585 17.8881 18.095 17.9389C18.0409 17.9821 17.9918 18.0312 17.9486 18.0852C17.8979 18.1488 17.8582 18.2213 17.7788 18.3664L17.3285 19.1898C16.8944 19.9835 16.6774 20.3804 16.3885 20.5085C16.1476 20.6153 15.8727 20.6153 15.6317 20.5085C15.3429 20.3804 15.1258 19.9835 14.6917 19.1898L14.2414 18.3664C14.1621 18.2213 14.1224 18.1488 14.0716 18.0852C14.0284 18.0312 13.9793 17.9821 13.9252 17.9389C13.8617 17.8881 13.7892 17.8484 13.6441 17.7691L12.8207 17.3187C12.027 16.8846 11.6301 16.6676 11.502 16.3787C11.3952 16.1378 11.3952 15.8629 11.502 15.622C11.6301 15.3331 12.027 15.1161 12.8207 14.682L13.6441 14.2316C13.7891 14.1523 13.8617 14.1126 13.9252 14.0618C13.9793 14.0186 14.0284 13.9695 14.0716 13.9155C14.1224 13.852 14.1621 13.7794 14.2414 13.6343L14.6917 12.8109Z" fill="url(#paint0_linear_10465_20426)"/>
<path fill-rule="evenodd" clip-rule="evenodd" d="M16 30C23.732 30 30 23.732 30 16C30 8.26801 23.732 2 16 2C8.26801 2 2 8.26801 2 16C2 23.732 8.26801 30 16 30ZM16.0047 27.2008C22.1903 27.2008 27.2047 22.1864 27.2047 16.0008C27.2047 9.81519 22.1903 4.80078 16.0047 4.80078C9.8191 4.80078 4.80469 9.81519 4.80469 16.0008C4.80469 22.1864 9.8191 27.2008 16.0047 27.2008Z" fill="url(#paint1_linear_10465_20426)"/>
<defs>
<linearGradient id="paint0_linear_10465_20426" x1="4.8" y1="1.06667" x2="32.4967" y2="31.1537" gradientUnits="userSpaceOnUse">
<stop stop-color="#6851FF"/>
<stop offset="1" stop-color="#CE99FF"/>
</linearGradient>
<linearGradient id="paint1_linear_10465_20426" x1="4.8" y1="1.06667" x2="32.4967" y2="31.1537" gradientUnits="userSpaceOnUse">
<stop stop-color="#6851FF"/>
<stop offset="1" stop-color="#CE99FF"/>
</linearGradient>
</defs>
</svg>
