<svg width="32" height="32" viewBox="0 0 32 32" fill="none" xmlns="http://www.w3.org/2000/svg">
<rect x="0.000137329" y="18.4999" width="26.2409" height="18.9423" rx="1.53755" transform="rotate(-45 0.000137329 18.4999)" fill="url(#paint0_linear_10465_20517)"/>
<path fill-rule="evenodd" clip-rule="evenodd" d="M22.0893 4.94587L21.8477 5.1875C20.7095 6.32574 18.864 6.32574 17.7258 5.1875L16.3033 3.76502L3.88684 16.1815L5.38469 17.6793C6.48117 18.7758 6.48117 20.5536 5.38469 21.65L5.00172 22.033L9.96187 26.9931L10.3451 26.6099C11.4416 25.5135 13.2193 25.5135 14.3158 26.6099L15.8136 28.1077L28.1641 15.7572L26.6093 14.2024C25.5442 13.1373 25.5442 11.4104 26.6093 10.3453L27.049 9.90553L22.0893 4.94587ZM30.9129 14.4761L30.9325 14.4562L31.0357 14.353C31.5683 13.8204 31.5683 12.957 31.0357 12.4244L27.7829 9.17164L27.7829 9.17167L22.8232 4.212L22.8237 4.21154L19.6371 1.02495C19.068 0.455833 18.1452 0.455832 17.5761 1.02495L17.5421 1.05901C17.5342 1.06654 17.5264 1.07417 17.5187 1.0819L3.15297 15.4476L1.138 17.4626L1.04346 17.5571C0.495217 18.1054 0.495217 18.9942 1.04346 19.5425L1.138 19.637L4.26785 22.7669L12.3578 30.8568C12.3656 30.8646 12.3734 30.8723 12.3813 30.8798L12.4526 30.9512C13.0009 31.4994 13.8897 31.4994 14.438 30.9512L16.5475 28.8417L16.5474 28.8416L30.9129 14.4761ZM15.5772 13.5806L14.0997 13.0827C13.2993 12.8111 12.8652 13.2452 13.134 14.0483L13.6319 15.5258C13.7026 15.7301 13.6563 16.0401 13.5341 16.2129L12.7951 17.2494C12.3227 17.9125 12.6072 18.4586 13.4232 18.4619L14.8092 18.4676C15.044 18.4686 15.3353 18.6319 15.4618 18.8308L16.1257 19.8898C16.6489 20.7247 17.2772 20.6295 17.5164 19.6776L17.8519 18.3488C17.9151 18.1059 18.1628 17.8583 18.4029 17.7978L19.7317 17.4623C20.6864 17.2203 20.7816 16.5976 19.9439 16.0716L18.8849 15.4077C18.686 15.2812 18.5227 14.9899 18.5217 14.7552L18.516 13.3691C18.5154 12.5503 17.9666 12.2686 17.3034 12.741L16.267 13.48C16.0914 13.605 15.7814 13.6513 15.5772 13.5806Z" fill="url(#paint1_linear_10465_20517)"/>
<defs>
<linearGradient id="paint0_linear_10465_20517" x1="13.1206" y1="18.4999" x2="13.1206" y2="37.4422" gradientUnits="userSpaceOnUse">
<stop stop-color="white"/>
<stop offset="0.578125" stop-color="#BDB2FF"/>
</linearGradient>
<linearGradient id="paint1_linear_10465_20517" x1="5.72495" y1="5.6685" x2="20.0031" y2="19.9467" gradientUnits="userSpaceOnUse">
<stop stop-color="#BDB2FF"/>
<stop offset="1" stop-color="#6851FF"/>
</linearGradient>
</defs>
</svg>
