<svg width="32" height="32" viewBox="0 0 32 32" fill="none" xmlns="http://www.w3.org/2000/svg">
<circle cx="16" cy="16" r="14.6667" fill="#D9D9D9"/>
<circle cx="16" cy="16" r="14.6667" fill="url(#paint0_linear_11179_10905)"/>
<path d="M19.7312 9.35555V10.8H22.3312C22.561 10.8 22.7815 10.8913 22.944 11.0538C23.1065 11.2164 23.1978 11.4368 23.1978 11.6667C23.1978 11.8965 23.1065 12.117 22.944 12.2795C22.7815 12.442 22.561 12.5333 22.3312 12.5333H10.1978C9.96799 12.5333 9.74755 12.442 9.58502 12.2795C9.42249 12.117 9.33118 11.8965 9.33118 11.6667C9.33118 11.4368 9.42249 11.2164 9.58502 11.0538C9.74755 10.8913 9.96799 10.8 10.1978 10.8H12.7978V9.35555C12.7978 8.23928 13.7038 7.33333 14.8201 7.33333H17.709C18.8252 7.33333 19.7312 8.23928 19.7312 9.35555ZM12.2154 15.0467L12.9781 22.6733C12.9853 22.7446 13.0187 22.8107 13.0719 22.8588C13.125 22.9068 13.1942 22.9334 13.2658 22.9333H19.2632C19.3348 22.9334 19.404 22.9068 19.4572 22.8588C19.5103 22.8107 19.5437 22.7446 19.5509 22.6733L20.3136 15.0467C20.3422 14.8228 20.4571 14.6189 20.6337 14.4784C20.8103 14.338 21.0348 14.2719 21.2594 14.2943C21.4839 14.3167 21.6909 14.4259 21.8362 14.5985C21.9816 14.7712 22.0538 14.9937 22.0377 15.2188L21.275 22.8455C21.2256 23.3447 20.9923 23.8076 20.6205 24.1442C20.2486 24.4809 19.7648 24.6671 19.2632 24.6667H13.2658C12.7646 24.6666 12.2812 24.4804 11.9095 24.1441C11.5377 23.8078 11.3041 23.3454 11.254 22.8467L10.4914 15.22C10.4769 15.1052 10.4855 14.9888 10.5168 14.8774C10.548 14.7661 10.6012 14.6621 10.6733 14.5716C10.7453 14.4811 10.8348 14.406 10.9363 14.3506C11.0378 14.2953 11.1494 14.2608 11.2645 14.2492C11.3796 14.2377 11.4958 14.2492 11.6063 14.2833C11.7169 14.3173 11.8195 14.3732 11.9081 14.4475C11.9967 14.5218 12.0696 14.6131 12.1223 14.716C12.1751 14.8189 12.2068 14.9313 12.2154 15.0467ZM14.5312 9.35555V10.8H17.9978V9.35555C17.9978 9.27893 17.9674 9.20545 17.9132 9.15128C17.8591 9.0971 17.7856 9.06666 17.709 9.06666H14.8201C14.7434 9.06666 14.67 9.0971 14.6158 9.15128C14.5616 9.20545 14.5312 9.27893 14.5312 9.35555Z" fill="white"/>
<path d="M19.7312 9.35555V10.8H22.3312C22.561 10.8 22.7815 10.8913 22.944 11.0538C23.1065 11.2164 23.1978 11.4368 23.1978 11.6667C23.1978 11.8965 23.1065 12.117 22.944 12.2795C22.7815 12.442 22.561 12.5333 22.3312 12.5333H10.1978C9.96799 12.5333 9.74755 12.442 9.58502 12.2795C9.42249 12.117 9.33118 11.8965 9.33118 11.6667C9.33118 11.4368 9.42249 11.2164 9.58502 11.0538C9.74755 10.8913 9.96799 10.8 10.1978 10.8H12.7978V9.35555C12.7978 8.23928 13.7038 7.33333 14.8201 7.33333H17.709C18.8252 7.33333 19.7312 8.23928 19.7312 9.35555ZM12.2154 15.0467L12.9781 22.6733C12.9853 22.7446 13.0187 22.8107 13.0719 22.8588C13.125 22.9068 13.1942 22.9334 13.2658 22.9333H19.2632C19.3348 22.9334 19.404 22.9068 19.4572 22.8588C19.5103 22.8107 19.5437 22.7446 19.5509 22.6733L20.3136 15.0467C20.3422 14.8228 20.4571 14.6189 20.6337 14.4784C20.8103 14.338 21.0348 14.2719 21.2594 14.2943C21.4839 14.3167 21.6909 14.4259 21.8362 14.5985C21.9816 14.7712 22.0538 14.9937 22.0377 15.2188L21.275 22.8455C21.2256 23.3447 20.9923 23.8076 20.6205 24.1442C20.2486 24.4809 19.7648 24.6671 19.2632 24.6667H13.2658C12.7646 24.6666 12.2812 24.4804 11.9095 24.1441C11.5377 23.8078 11.3041 23.3454 11.254 22.8467L10.4914 15.22C10.4769 15.1052 10.4855 14.9888 10.5168 14.8774C10.548 14.7661 10.6012 14.6621 10.6733 14.5716C10.7453 14.4811 10.8348 14.406 10.9363 14.3506C11.0378 14.2953 11.1494 14.2608 11.2645 14.2492C11.3796 14.2377 11.4958 14.2492 11.6063 14.2833C11.7169 14.3173 11.8195 14.3732 11.9081 14.4475C11.9967 14.5218 12.0696 14.6131 12.1223 14.716C12.1751 14.8189 12.2068 14.9313 12.2154 15.0467ZM14.5312 9.35555V10.8H17.9978V9.35555C17.9978 9.27893 17.9674 9.20545 17.9132 9.15128C17.8591 9.0971 17.7856 9.06666 17.709 9.06666H14.8201C14.7434 9.06666 14.67 9.0971 14.6158 9.15128C14.5616 9.20545 14.5312 9.27893 14.5312 9.35555Z" fill="url(#paint1_linear_11179_10905)"/>
<defs>
<linearGradient id="paint0_linear_11179_10905" x1="16" y1="1.33333" x2="16" y2="30.6667" gradientUnits="userSpaceOnUse">
<stop stop-color="#FF9B80"/>
<stop offset="1" stop-color="#FC5C30"/>
</linearGradient>
<linearGradient id="paint1_linear_11179_10905" x1="16.2645" y1="8.29629" x2="16.2645" y2="23.7037" gradientUnits="userSpaceOnUse">
<stop stop-color="white"/>
<stop offset="1" stop-color="#FFEAE5"/>
</linearGradient>
</defs>
</svg>
