<svg width="24" height="24" viewBox="0 0 24 24" fill="none" xmlns="http://www.w3.org/2000/svg">
<path d="M19.5 0H4.5C2.01472 0 0 2.01472 0 4.5V19.5C0 21.9853 2.01472 24 4.5 24H19.5C21.9853 24 24 21.9853 24 19.5V4.5C24 2.01472 21.9853 0 19.5 0Z" fill="#33DDB3"/>
<path d="M5.98352 7.62937C6.10977 7.545 6.2582 7.5 6.41005 7.5C6.61353 7.5 6.80868 7.58078 6.95262 7.72463C7.09656 7.8684 7.17751 8.06355 7.17767 8.26703C7.17779 8.41883 7.13288 8.56733 7.0486 8.69363C6.96433 8.81993 6.84449 8.9184 6.70424 8.9766C6.56398 9.0348 6.40963 9.0501 6.26068 9.02055C6.11174 8.991 5.9749 8.91795 5.86748 8.81063C5.76007 8.7033 5.6869 8.5665 5.65723 8.41763C5.62756 8.26868 5.64272 8.11432 5.7008 7.974C5.75888 7.83367 5.85727 7.71375 5.98352 7.62937Z" fill="#1D3944"/>
<path d="M3 7.5816H4.37137V15.879H3V7.5816Z" fill="#1D3944"/>
<path d="M21.5437 9.9555C21.0683 10.9745 20.5079 11.9516 19.8683 12.8765L21.75 15.8747H20.13L18.9736 14.0248C17.8116 15.3494 16.6608 15.9974 15.5511 15.9974C14.1997 15.9974 13.647 15.0317 13.647 13.9319C13.647 13.6703 13.6508 13.3487 13.6508 13.1469C13.6508 11.6976 13.4981 11.2901 13.009 11.3525C12.0688 11.4789 10.6419 13.6192 9.71235 15.8747H8.42257V9.9555H9.79328V12.917C10.5759 11.5973 11.2912 10.4664 12.4451 10.0303C13.1162 9.77543 13.68 9.88635 13.9741 10.016C15.0376 10.4852 15.0359 11.6297 15.0215 13.1643C15.0178 13.3668 15.0178 13.5836 15.0178 13.8155C15.0178 14.3718 15.1717 14.6161 15.5505 14.6534C15.776 14.6728 16.0021 14.6228 16.1984 14.5102V7.5816H17.5692V13.5195C17.5692 13.5195 18.758 12.4322 20.0154 9.9555H21.5437Z" fill="#1D3944"/>
<path d="M7.09543 9.95865H5.72406V15.8797H7.09543V9.95865Z" fill="#1D3944"/>
</svg>
