<svg width="24" height="24" viewBox="0 0 24 24" fill="none" xmlns="http://www.w3.org/2000/svg">
<path fill-rule="evenodd" clip-rule="evenodd" d="M3 1C1.89543 1 1 1.89543 1 3V21C1 22.1046 1.89543 23 3 23H21C22.1046 23 23 22.1046 23 21V3C23 1.89543 22.1046 1 21 1H3ZM4 4H20V9.6768H17.3905C16.4748 7.59394 14.4146 6.12888 12.0112 6.12888C8.76082 6.12888 6.12856 8.76113 6.12856 11.9888C6.12856 15.2165 8.76082 17.8714 12.0112 17.8714C14.3689 17.8714 16.4291 16.4524 17.3444 14.4149H19.9997V20H4V4Z" fill="white"/>
</svg>
