<svg width="25" height="24" viewBox="0 0 25 24" fill="none" xmlns="http://www.w3.org/2000/svg">
<path fill-rule="evenodd" clip-rule="evenodd" d="M12.3159 6.36074e-06C9.39213 -0.00296524 6.5629 1.03535 4.33518 2.92889C2.10746 4.82242 0.626879 7.4474 0.158754 10.3334C-0.30937 13.2194 0.265566 16.1778 1.78053 18.6784C3.29549 21.179 5.65146 23.0584 8.42622 23.9798C9.04554 24.0931 9.26457 23.7079 9.26457 23.3831C9.26457 23.0584 9.26457 22.3182 9.26457 21.291C5.8281 22.0387 5.10304 19.637 5.10304 19.637C4.87506 18.8926 4.39073 18.2531 3.73601 17.8319C2.62576 17.0766 3.82664 17.0766 3.82664 17.0766C4.21583 17.1316 4.5874 17.2744 4.91323 17.4942C5.23905 17.7141 5.51058 18.0052 5.70726 18.3455C5.87437 18.6485 6.09967 18.9155 6.37023 19.1312C6.64079 19.347 6.95129 19.5071 7.28391 19.6026C7.61653 19.698 7.96472 19.7268 8.3085 19.6874C8.65228 19.6479 8.98488 19.541 9.28723 19.3726C9.33463 18.7513 9.60249 18.1674 10.0425 17.7262C7.30843 17.4165 4.43841 16.3591 4.43841 11.684C4.41963 10.4627 4.87123 9.28099 5.6997 8.38349C5.33072 7.3216 5.37385 6.15988 5.82055 5.12828C5.82055 5.12828 6.85526 4.79596 9.20415 6.38958C11.2212 5.83579 13.3501 5.83579 15.3671 6.38958C17.716 4.79596 18.7432 5.12828 18.7432 5.12828C19.1961 6.14897 19.25 7.30235 18.8942 8.36083C19.7227 9.25834 20.1743 10.4401 20.1555 11.6614C20.1555 16.3893 17.278 17.424 14.5363 17.7035C14.8303 17.999 15.0573 18.3543 15.202 18.7452C15.3466 19.1361 15.4055 19.5536 15.3747 19.9693C15.3747 21.6158 15.3747 22.9451 15.3747 23.3454C15.3747 23.7456 15.5937 24.0553 16.2206 23.9345C18.9638 22.9888 21.2844 21.1041 22.7727 18.6132C24.2609 16.1223 24.8208 13.1856 24.3536 10.3219C23.8864 7.45814 22.4221 4.85167 20.2194 2.96295C18.0167 1.07422 15.2173 0.024771 12.3159 6.36074e-06Z" fill="white"/>
</svg>
