<svg width="24" height="24" viewBox="0 0 24 24" fill="none" xmlns="http://www.w3.org/2000/svg">
<path d="M6.79708 9.75487C6.90445 9.53177 7.01034 9.31173 7.16934 9.13167C7.37733 8.73561 7.63678 8.40512 7.92115 8.09566C8.84486 7.09128 9.99712 6.53591 11.3535 6.44558C12.8464 6.34571 14.1941 6.76868 15.3808 7.68781C15.6464 7.89346 15.9023 8.01271 16.2741 7.91677C16.986 7.73254 17.7033 7.55995 18.4363 7.45955C19.0233 7.37914 19.1103 7.14708 18.7483 6.69908C17.9281 5.68433 16.9698 4.84979 15.7794 4.27164C14.3169 3.56091 12.79 3.23969 11.1746 3.3377C9.4157 3.44454 7.82917 4.02632 6.44027 5.11778C5.4095 5.92771 4.6383 6.93867 4.04965 8.11246C3.63368 8.94127 3.3915 9.80817 3.25111 10.7132C3.21129 10.9691 3.37013 11.1185 3.6319 11.0579C4.14048 10.9397 4.64789 10.8164 5.15521 10.6931C5.5369 10.6003 5.9189 10.5075 6.30095 10.4169C6.42903 10.3863 6.49404 10.3038 6.55792 10.2041C6.64989 10.0607 6.72383 9.90709 6.79708 9.75487Z" fill="#7FFCA5"/>
<path d="M14.8969 20.216C16.7165 19.5743 18.1803 18.432 19.2455 16.8074L19.2463 16.8086C19.4251 16.5095 19.5887 16.2061 19.749 15.8982C20.1611 15.1089 20.443 14.2844 20.5485 13.4015C20.6074 12.9118 20.5261 12.8341 20.0371 12.9376C19.6932 13.0103 19.3504 13.0884 19.0077 13.1664C18.549 13.2709 18.0901 13.3755 17.629 13.467C17.3499 13.5219 17.2118 13.6796 17.1194 13.9165C16.8583 14.5862 16.5026 15.1991 16.0195 15.7335C15.2154 16.6233 14.2303 17.2192 13.0578 17.4726C12.2686 17.6429 11.4642 17.6119 10.6807 17.4285C9.86949 17.238 9.11018 16.9157 8.46911 16.3569C8.16361 16.0898 7.82846 15.9632 7.39751 16.0802C6.74736 16.257 6.08922 16.4333 5.42248 16.5083C4.84664 16.5724 4.63931 16.7282 5.08548 17.3225C5.09997 17.3418 5.11683 17.3598 5.13372 17.3778C5.14575 17.3906 5.15779 17.4034 5.169 17.4167C6.06838 18.4912 7.12442 19.3502 8.4234 19.9178C10.5512 20.8472 12.7142 20.9865 14.8969 20.216Z" fill="#7FFCA5"/>
<path d="M8.708 11.4842C9.65315 12.0826 9.92756 13.2525 9.29998 14.1468C8.97837 14.6051 8.50447 14.8634 7.97237 14.9898C7.7958 15.0317 7.61927 15.0741 7.44271 15.1165C6.51194 15.3401 5.58023 15.5638 4.63789 15.7215C4.37214 15.7659 4.11297 15.8347 3.85389 15.9033C3.49583 15.9983 3.13791 16.0931 2.76308 16.1239C1.4213 16.2338 0.341223 14.7982 0.836847 13.5534C1.12378 12.8326 1.64879 12.4402 2.38628 12.2818C2.61444 12.2328 2.8427 12.1841 3.07098 12.1354L3.07228 12.1351C4.05798 11.9247 5.04406 11.7141 6.02428 11.4816C6.11855 11.4592 6.21261 11.4363 6.30663 11.4134C6.63855 11.3325 6.97001 11.2517 7.30853 11.195C7.81122 11.1114 8.26888 11.1808 8.708 11.4842Z" fill="#7FFCA5"/>
<path d="M21.9788 11.4442C23.3497 10.7161 23.2251 8.818 22.0638 8.1848L22.0629 8.18498C21.6605 7.86121 21.1578 7.7896 20.6519 7.89736C18.9821 8.25183 17.314 8.61549 15.6544 9.01538C14.587 9.27213 13.7551 10.5116 14.3619 11.751C14.7593 12.5633 15.6551 12.9482 16.6683 12.7239C18.2132 12.3818 19.7562 12.0356 21.2978 11.6825C21.5313 11.6287 21.7688 11.5556 21.9788 11.4442Z" fill="#7FFCA5"/>
</svg>
