<svg width="24" height="24" viewBox="0 0 24 24" fill="none" xmlns="http://www.w3.org/2000/svg">
<g clip-path="url(#clip0_10462_20656)">
<path fill-rule="evenodd" clip-rule="evenodd" d="M12.0007 0.772125C18.2019 0.772125 23.2291 5.79923 23.2291 12.0005C23.2291 18.2017 18.2019 23.2289 12.0007 23.2289C5.79944 23.2289 0.772339 18.2017 0.772339 12.0005C0.772339 5.79923 5.79944 0.772125 12.0007 0.772125Z" fill="#171717"/>
<path fill-rule="evenodd" clip-rule="evenodd" d="M11.9783 5.52203C15.5559 5.52203 18.4562 8.4223 18.4562 11.9999C18.4562 15.5776 15.5559 18.4779 11.9783 18.4779C8.40064 18.4779 5.50037 15.5776 5.50037 11.9999C5.50037 8.4223 8.40064 5.52203 11.9783 5.52203Z" fill="black"/>
<path opacity="0.67" fill-rule="evenodd" clip-rule="evenodd" d="M12.1766 2.69213C12.0874 2.61004 12.0414 2.60849 12.0336 2.60849C12.0259 2.60849 11.9799 2.61004 11.8907 2.69213C11.7991 2.77639 11.6897 2.92177 11.5717 3.14609C11.3364 3.59383 11.1111 4.27058 10.9169 5.14381C10.6986 6.12581 10.526 7.32609 10.4172 8.66969C10.9429 8.92409 11.4835 9.20063 12.0335 9.49759C12.5835 9.20059 13.1243 8.924 13.6501 8.66956C13.5412 7.32602 13.3687 6.12579 13.1504 5.14381C12.9562 4.27058 12.7309 3.59383 12.4955 3.14609C12.3776 2.92177 12.2682 2.77639 12.1766 2.69213ZM11.5734 9.74964C11.1695 9.53503 10.7716 9.33203 10.382 9.14131C10.3525 9.57386 10.3295 10.0197 10.3135 10.4766C10.5195 10.3532 10.7286 10.2303 10.9405 10.108C11.1524 9.98576 11.3634 9.86627 11.5734 9.74964ZM9.99301 8.46774C10.3085 4.78335 11.1032 2.16904 12.0336 2.16904C12.9641 2.16904 13.7587 4.78329 14.0742 8.46763C17.4247 6.89859 20.0874 6.27927 20.5526 7.08454C21.0178 7.88981 19.1497 9.8847 16.1148 11.9999C19.1497 14.1152 21.0178 16.1101 20.5526 16.9153C20.0874 17.7206 17.4247 17.1013 14.0742 15.5322C13.7587 19.2166 12.9641 21.8308 12.0336 21.8308C11.1032 21.8308 10.3085 19.2165 9.99301 15.5321C6.64248 17.1012 3.97963 17.7206 3.5144 16.9153C3.04918 16.1101 4.91726 14.1152 7.9522 11.9999C4.91726 9.8847 3.04918 7.88984 3.5144 7.08454C3.97963 6.27925 6.64248 6.89863 9.99301 8.46774ZM8.33945 11.7337C7.22946 10.9676 6.27552 10.2181 5.53368 9.53809C4.87402 8.9334 4.40021 8.40002 4.12988 7.97243C3.99446 7.7582 3.92323 7.59079 3.896 7.46948C3.86948 7.35133 3.89115 7.31088 3.89493 7.30438C3.8987 7.29781 3.92303 7.25874 4.0388 7.22257C4.15765 7.18544 4.33842 7.1634 4.59183 7.17349C5.09759 7.19364 5.79676 7.33705 6.65059 7.60562C7.61077 7.90766 8.73717 8.35847 9.95593 8.93606C9.91352 9.51818 9.88287 10.1243 9.86522 10.7486C9.33283 11.0762 8.82282 11.4058 8.33945 11.7337ZM8.33945 12.2662C7.22946 13.0322 6.27552 13.7818 5.53368 14.4618C4.87402 15.0665 4.40021 15.5999 4.12988 16.0274C3.99446 16.2417 3.92323 16.4091 3.896 16.5304C3.86948 16.6485 3.89115 16.689 3.89493 16.6955C3.89868 16.702 3.92298 16.7411 4.0388 16.7773C4.15765 16.8144 4.33842 16.8365 4.59183 16.8264C5.09759 16.8062 5.79676 16.6628 6.65059 16.3942C7.61077 16.0922 8.73717 15.6414 9.95593 15.0638C9.91352 14.4817 9.88287 13.8756 9.86522 13.2512C9.33283 12.9237 8.82282 12.594 8.33945 12.2662ZM9.85358 12.727C9.46559 12.4847 9.09067 12.2418 8.73052 11.9999C9.09067 11.7581 9.46559 11.5152 9.85358 11.2729C9.84967 11.513 9.84769 11.7554 9.84769 11.9999C9.84769 12.2445 9.84967 12.4869 9.85358 12.727ZM10.2984 13.001C10.291 12.6721 10.2871 12.3381 10.2871 11.9999C10.2871 11.6617 10.291 11.3278 10.2984 10.9989C10.5797 10.828 10.8671 10.6577 11.1601 10.4886C11.4533 10.3195 11.7447 10.1558 12.0335 9.99778C12.3223 10.1558 12.6137 10.3195 12.9069 10.4886C13.2 10.6578 13.4875 10.8281 13.7688 10.999C13.7763 11.3279 13.7801 11.6618 13.7801 11.9999C13.7801 12.3381 13.7763 12.672 13.7688 13.0008C13.4875 13.1718 13.2 13.3421 12.9069 13.5112C12.6137 13.6804 12.3223 13.8441 12.0335 14.0021C11.7447 13.8441 11.4533 13.6804 11.1601 13.5112C10.8671 13.3422 10.5797 13.1719 10.2984 13.001ZM10.3135 13.5233C10.3295 13.9801 10.3525 14.426 10.382 14.8586C10.7716 14.6678 11.1695 14.4648 11.5734 14.2502C11.3634 14.1336 11.1524 14.0141 10.9405 13.8919C10.7286 13.7696 10.5195 13.6467 10.3135 13.5233ZM12.0335 14.5023C11.4835 14.7992 10.9429 15.0758 10.4172 15.3302C10.526 16.6738 10.6986 17.8741 10.9169 18.856C11.1111 19.7293 11.3364 20.406 11.5717 20.8538C11.6897 21.0781 11.7991 21.2235 11.8907 21.3077C11.9799 21.3898 12.0259 21.3914 12.0336 21.3914C12.0414 21.3914 12.0874 21.3898 12.1766 21.3077C12.2682 21.2235 12.3776 21.0781 12.4955 20.8538C12.7309 20.406 12.9562 19.7293 13.1504 18.856C13.3687 17.8741 13.5412 16.6739 13.6501 15.3303C13.1243 15.0759 12.5835 14.7993 12.0335 14.5023ZM14.1113 15.0639C15.33 15.6415 16.4563 16.0922 17.4164 16.3942C18.2702 16.6628 18.9694 16.8062 19.4752 16.8264C19.7286 16.8365 19.9093 16.8144 20.0282 16.7773C20.144 16.7411 20.1683 16.702 20.1721 16.6955C20.1758 16.689 20.1975 16.6486 20.171 16.5304C20.1438 16.4091 20.0725 16.2417 19.9371 16.0274C19.6668 15.5999 19.193 15.0665 18.5333 14.4618C17.7915 13.7818 16.8375 13.0322 15.7275 12.2662C15.2443 12.594 14.7343 12.9236 14.2021 13.251C14.1844 13.8755 14.1538 14.4817 14.1113 15.0639ZM15.7275 11.7337C16.8375 10.9676 17.7915 10.2181 18.5333 9.53809C19.193 8.9334 19.6668 8.40002 19.9371 7.97243C20.0725 7.7582 20.1438 7.59079 20.171 7.46948C20.1975 7.35129 20.1758 7.31086 20.1721 7.30438C20.1683 7.29783 20.144 7.25876 20.0282 7.22257C19.9093 7.18544 19.7286 7.1634 19.4752 7.17349C18.9694 7.19364 18.2702 7.33705 17.4164 7.60562C16.4563 7.90763 15.33 8.3584 14.1113 8.93593C14.1538 9.51816 14.1844 10.1244 14.2021 10.7488C14.7343 11.0763 15.2443 11.4059 15.7275 11.7337ZM14.2137 11.2731C14.6016 11.5153 14.9764 11.7581 15.3365 11.9999C14.9764 12.2417 14.6016 12.4846 14.2137 12.7268C14.2176 12.4868 14.2196 12.2444 14.2196 11.9999C14.2196 11.7555 14.2176 11.5131 14.2137 11.2731ZM13.7538 10.4768C13.7378 10.0198 13.7148 9.57384 13.6853 9.14117C13.2956 9.33194 12.8976 9.53499 12.4936 9.74964C12.7036 9.86627 12.9146 9.98576 13.1265 10.108C13.3385 10.2303 13.5476 10.3533 13.7538 10.4768ZM13.6853 14.8587C13.2956 14.6679 12.8976 14.4649 12.4936 14.2502C12.7036 14.1336 12.9146 14.0141 13.1265 13.8919C13.3385 13.7696 13.5476 13.6466 13.7538 13.5231C13.7378 13.9801 13.7148 14.426 13.6853 14.8587Z" fill="white"/>
<path fill-rule="evenodd" clip-rule="evenodd" d="M5.74923 9.24677C6.13105 9.24677 6.44055 9.55642 6.44055 9.93839C6.44055 10.3204 6.13105 10.63 5.74923 10.63C5.36743 10.63 5.05792 10.3204 5.05792 9.93839C5.05792 9.55642 5.36743 9.24677 5.74923 9.24677Z" fill="white"/>
<path fill-rule="evenodd" clip-rule="evenodd" d="M16.737 6.8783C17.119 6.8783 17.4287 7.18796 17.4287 7.56995C17.4287 7.95194 17.119 8.2616 16.737 8.2616C16.355 8.2616 16.0454 7.95194 16.0454 7.56995C16.0454 7.18796 16.355 6.8783 16.737 6.8783Z" fill="white"/>
<path fill-rule="evenodd" clip-rule="evenodd" d="M10.6402 17.7342C11.0222 17.7342 11.3319 18.0437 11.3319 18.4255C11.3319 18.8073 11.0222 19.1168 10.6402 19.1168C10.2582 19.1168 9.94855 18.8073 9.94855 18.4255C9.94855 18.0437 10.2582 17.7342 10.6402 17.7342Z" fill="white"/>
<path fill-rule="evenodd" clip-rule="evenodd" d="M11.9949 10.8237C12.6416 10.8237 13.1659 11.348 13.1659 11.9947C13.1659 12.6414 12.6416 13.1657 11.9949 13.1657C11.3482 13.1657 10.8239 12.6414 10.8239 11.9947C10.8239 11.348 11.3482 10.8237 11.9949 10.8237Z" fill="white"/>
</g>
<defs>
<clipPath id="clip0_10462_20656">
<rect width="22.4999" height="22.4999" fill="white" transform="translate(0.750061 0.75)"/>
</clipPath>
</defs>
</svg>
