<svg width="24" height="24" viewBox="0 0 24 24" fill="none" xmlns="http://www.w3.org/2000/svg">
<path d="M23.3518 11.2487C22.9308 5.04929 17.5643 0.366862 11.367 0.788323C8.27985 0.998787 5.56832 2.43687 3.67628 4.59107L3.67041 4.58734C3.65709 4.60439 3.64537 4.62197 3.63365 4.63902C1.75439 6.80707 0.697274 9.68696 0.907205 12.7752C0.926919 13.0698 0.96102 13.3586 1.00365 13.6453C1.00365 13.6591 1.00738 13.6703 1.00951 13.6837C1.03828 13.8723 1.07131 14.0614 1.10755 14.2463C1.14218 14.4173 1.18054 14.5873 1.22317 14.7562C2.52272 19.9374 7.37618 23.6064 12.8941 23.2313C19.0919 22.8098 23.7759 17.4438 23.3544 11.2449C23.3539 11.2449 23.3518 11.2487 23.3518 11.2487ZM20.9029 11.4154C20.9551 12.1784 20.9066 12.9249 20.7702 13.6453C20.7702 13.6416 20.7665 13.6378 20.7665 13.6336C19.9497 11.6408 18.3363 10.2011 16.9195 9.40564C17.2062 6.02862 16.0606 4.60439 14.7632 4.37314C13.7445 4.18186 12.7635 4.85268 12.5723 5.87144C12.5653 5.90767 12.5595 5.94443 12.5552 5.9812C12.4225 7.00901 13.1482 7.94997 14.176 8.08264C14.1776 8.08264 14.1787 8.08317 14.1803 8.08317C14.2709 8.0949 14.3593 8.09863 14.4457 8.0965C14.452 8.21691 14.4552 8.33786 14.4552 8.45828C13.2559 8.16203 12.1353 8.10182 11.1129 8.19453C10.7287 8.21958 10.3461 8.26806 9.96729 8.33893C10.0946 7.19869 10.5236 5.91672 11.3537 4.98109C12.1561 4.07423 13.3502 3.55633 14.6513 3.689C14.898 3.71404 15.1618 3.77585 15.3983 3.85471C15.4101 3.85844 15.4218 3.86217 15.4314 3.8643C18.4461 5.09298 20.6663 7.9553 20.9008 11.4154C20.9013 11.4154 20.9029 11.4154 20.9029 11.4154ZM13.0614 13.1333C13.0614 13.1333 13.0614 13.1354 13.0593 13.137C12.7747 13.5457 12.4524 13.9266 12.0964 14.2751C11.5572 13.7055 11.1011 13.0635 10.7409 12.3671C10.7239 12.3303 10.7047 12.2978 10.6871 12.261V12.2573C10.4761 11.806 10.3072 11.336 10.1826 10.8538C10.9812 10.6652 11.765 10.596 12.5142 10.6327L12.6335 10.6386H12.6373C13.1072 10.6769 13.5963 10.7638 14.1025 10.9023C13.8675 11.6925 13.5175 12.4438 13.063 13.1317C13.0635 13.1311 13.0614 13.1333 13.0614 13.1333ZM9.21868 3.71298L9.21282 3.72044C7.89409 5.4228 7.45504 7.5381 7.47422 9.1632C4.40517 10.6034 3.74661 12.3074 4.19364 13.5467C4.20483 13.5814 4.21869 13.6144 4.23201 13.6474C4.63269 14.6044 5.73296 15.0562 6.69044 14.6561C7.64739 14.2554 8.09922 13.1551 7.69907 12.1976C7.66391 12.1161 7.62341 12.0367 7.57812 11.9605C7.67456 11.8966 7.77846 11.8337 7.89036 11.7682C8.23296 12.9564 8.73914 13.9591 9.33057 14.7983C9.54423 15.1159 9.77548 15.4217 10.0275 15.7169C8.97624 16.1773 7.65165 16.4469 6.4251 16.1959C5.23957 15.9535 4.19364 15.1798 3.65709 13.9858C3.55426 13.7519 3.477 13.5073 3.42585 13.2563C3.39441 13.0411 3.37044 12.8247 3.35445 12.6074C3.08058 8.57817 5.58004 4.99122 9.21868 3.71298ZM12.7262 20.784C10.3333 20.9476 8.09602 20.1313 6.40592 18.6794C8.53933 18.9703 10.5918 18.2926 11.9893 17.463C14.7712 19.4019 16.5769 19.1206 17.4279 18.1135C18.1035 17.326 18.0129 16.14 17.2254 15.4643C17.1971 15.4404 17.1689 15.4169 17.1391 15.3945C16.3137 14.7653 15.1351 14.9246 14.5059 15.7494C14.5053 15.7499 14.5053 15.7499 14.5048 15.7505C14.451 15.8219 14.403 15.8991 14.3604 15.9759C14.2586 15.9236 14.1505 15.8661 14.0407 15.8027C14.8245 14.9939 15.4671 14.0593 15.9407 13.0379C16.1102 12.6921 16.2594 12.3367 16.3873 11.9733C17.3117 12.6548 18.2084 13.6655 18.6054 14.8532C18.9885 16.0009 18.842 17.2946 18.0758 18.3554C17.9244 18.5611 17.7513 18.7502 17.56 18.9192L17.5525 18.9266C16.1683 20.0173 14.4861 20.6636 12.7278 20.7808C12.7284 20.7824 12.7262 20.784 12.7262 20.784Z" fill="white"/>
<path opacity="0.9" d="M14.7633 4.37129C14.5523 4.33133 14.336 4.32867 14.1239 4.36384C15.2008 4.94887 15.984 6.57984 15.5721 9.79861C15.4357 10.8456 15.1283 11.8628 14.6615 12.8096C14.2593 13.6738 13.736 14.4762 13.1073 15.1929C13.4051 15.4172 13.7174 15.6223 14.0408 15.8072C14.8246 14.9989 15.4672 14.0644 15.9414 13.043C16.4092 12.0961 16.7166 11.079 16.852 10.032C17.3432 6.20047 16.138 4.61799 14.7633 4.37343V4.37129Z" fill="white"/>
<path opacity="0.8" d="M15.572 9.79648C15.9839 6.57878 15.2007 4.94675 14.1244 4.36118C14.0817 4.36704 14.0418 4.37663 13.9992 4.38622C15.0525 4.99257 15.8108 6.6214 15.4047 9.79648C15.2683 10.8435 14.9609 11.8606 14.4942 12.8075C14.1068 13.6413 13.6059 14.4171 13.006 15.1135C13.0406 15.1407 13.0736 15.1657 13.1078 15.1902C13.7359 14.4731 14.2592 13.6706 14.6615 12.8069C15.1287 11.8606 15.4367 10.8435 15.572 9.79648Z" fill="white"/>
<path opacity="0.5" d="M11.4805 17.0951C11.3787 17.0183 11.2823 16.9373 11.1842 16.8564C9.59591 17.5192 7.39483 17.9342 5.20813 17.4265C5.56405 17.8826 5.96474 18.3024 6.40378 18.6797C8.53719 18.9706 10.5896 18.2928 11.9872 17.4632C11.8156 17.3433 11.6457 17.2197 11.4789 17.0935L11.4805 17.0951Z" fill="white"/>
<path opacity="0.6" d="M11.1859 16.8564C11.1379 16.8159 11.0879 16.7759 11.042 16.7354C9.44198 17.3743 7.22971 17.7579 5.04834 17.2128C5.10215 17.2842 5.1565 17.3572 5.20978 17.4265C7.39542 17.9343 9.59756 17.5187 11.1859 16.8564Z" fill="white"/>
<path opacity="0.9" d="M4.19585 13.5486C4.20704 13.5832 4.22089 13.6163 4.23421 13.6488C4.30561 13.8182 4.39779 13.9701 4.50968 14.107C4.47877 12.8826 5.49913 11.3864 8.49092 10.1348C9.46545 9.72935 10.5007 9.48745 11.5541 9.41872C12.5036 9.334 13.4611 9.38568 14.3956 9.5727C14.4441 9.16829 14.4633 8.79105 14.4596 8.45804C13.3673 8.18311 12.2372 8.09412 11.1156 8.19429C10.0622 8.26356 9.02693 8.50546 8.0524 8.91041C4.48943 10.4007 3.7211 12.2357 4.19691 13.5502L4.19585 13.5486Z" fill="white"/>
<path opacity="0.8" d="M8.49085 10.137C5.49906 11.3886 4.47818 12.8847 4.50961 14.1091C4.53679 14.1417 4.56556 14.1731 4.59433 14.2035C4.5922 12.9886 5.62427 11.5175 8.57557 10.2814C9.5501 9.87589 10.5854 9.63398 11.6388 9.56525C12.5547 9.48426 13.477 9.52955 14.3801 9.70005C14.386 9.65796 14.3913 9.61534 14.3956 9.57271C13.4605 9.38676 12.5035 9.33507 11.554 9.41872C10.5006 9.48799 9.46591 9.72989 8.49085 10.1348C8.49085 10.1354 8.49085 10.137 8.49085 10.137Z" fill="white"/>
<path opacity="0.4" d="M16.8561 10.0293C16.8412 10.1567 16.8199 10.2792 16.7986 10.4044C18.1653 11.4482 19.6268 13.1479 20.2816 15.2941C20.498 14.7571 20.661 14.2003 20.7686 13.6312C19.9539 11.6385 18.3411 10.1998 16.9238 9.40488C16.9067 9.60735 16.8854 9.81302 16.8583 10.0288C16.8583 10.0293 16.8561 10.0293 16.8561 10.0293Z" fill="white"/>
<path opacity="0.5" d="M16.7987 10.405C16.7869 10.4662 16.7773 10.5302 16.7656 10.5915C18.1195 11.6582 19.5576 13.3813 20.1757 15.5435C20.2119 15.4609 20.2471 15.3778 20.2796 15.2952C19.6253 13.1485 18.1659 11.4504 16.7965 10.405C16.796 10.405 16.7987 10.405 16.7987 10.405Z" fill="white"/>
<path opacity="0.9" d="M17.4278 18.1117C17.5669 17.9476 17.6777 17.7616 17.755 17.5613C16.7096 18.2001 14.9049 18.0637 12.3234 16.0976C11.4842 15.4566 10.7569 14.6814 10.1708 13.8028C9.62255 13.0227 9.18883 12.1686 8.88246 11.2655C8.50895 11.4253 8.17221 11.5985 7.88342 11.7679C8.19193 12.8511 8.67999 13.8747 9.32737 14.7965C9.90494 15.6591 10.6248 16.4392 11.48 17.0913C14.5527 19.4326 16.5263 19.18 17.4252 18.1112L17.4278 18.1117Z" fill="white"/>
<path opacity="0.8" d="M12.3262 16.0982C14.9055 18.0637 16.7118 18.2001 17.7567 17.5607C17.7721 17.5208 17.7854 17.4803 17.7972 17.4414C16.7459 18.052 14.9556 17.8916 12.4103 15.9532C11.5711 15.3122 10.8438 14.537 10.2577 13.6584C9.72972 12.906 9.30826 12.0844 9.00455 11.217C8.96406 11.234 8.92569 11.2495 8.88733 11.2671C9.19317 12.1702 9.62688 13.0248 10.1752 13.8049C10.7527 14.6675 11.4726 15.4476 12.3278 16.0998L12.3262 16.0982Z" fill="white"/>
<path opacity="0.3" d="M8.04972 8.90721C8.16694 8.85872 8.2847 8.8145 8.40352 8.77027C8.62304 7.06418 9.36419 4.94888 10.8971 3.31046C10.3233 3.39304 9.75901 3.52785 9.21234 3.7186C7.89307 5.42096 7.45456 7.53626 7.47374 9.16189C7.6565 9.07558 7.84725 8.99033 8.04759 8.90827L8.04972 8.90721Z" fill="white"/>
<path opacity="0.4" d="M8.40344 8.77027C8.46365 8.74949 8.5212 8.72604 8.58087 8.70526C8.82704 6.99917 9.60122 4.89293 11.1629 3.27582C11.0745 3.28541 10.9855 3.29713 10.897 3.30885C9.36465 4.94888 8.6235 7.06311 8.40397 8.76867L8.40344 8.77027Z" fill="white"/>
<path opacity="0.4" d="M11.3671 0.788085C8.27884 0.998017 5.56838 2.4361 3.6758 4.5903L3.63318 4.63825C4.00083 5.0043 5.20607 5.72414 5.69306 6.02465C6.66386 4.97872 7.87443 4.18535 9.22087 3.71221C9.31518 3.58859 9.41535 3.46764 9.51925 3.35042C10.7895 1.91607 12.5244 1.15946 14.5384 1.15946C14.7617 1.15946 15.2183 1.19623 15.2279 1.19623C13.9747 0.836039 12.6682 0.697506 11.3671 0.788085Z" fill="url(#paint0_linear_10462_21041)"/>
<path opacity="0.4" d="M12.7262 20.7859C10.3333 20.9495 8.096 20.1332 6.40589 18.6818C6.24711 18.661 6.0894 18.6349 5.93222 18.603C4.05509 18.2199 2.53015 17.0956 1.52525 15.3533C1.41443 15.1609 1.31372 14.9627 1.22314 14.7603C2.52269 19.9414 7.37616 23.6109 12.8925 23.2353C12.9175 22.6673 12.7502 21.3491 12.7246 20.7865C12.7246 20.7859 12.7262 20.7859 12.7262 20.7859Z" fill="url(#paint1_linear_10462_21041)"/>
<path opacity="0.4" d="M23.3523 11.2484C23.0059 11.2138 21.319 11.3465 20.9034 11.4157C20.9551 12.1787 20.9071 12.9252 20.7702 13.6456C20.8277 13.7879 20.8837 13.9344 20.9338 14.0825C21.5407 15.9 21.3286 17.7808 20.3237 19.5253C20.2123 19.7176 20.0919 19.9041 19.9619 20.0842C19.9619 20.0842 19.9678 20.0799 19.9694 20.0762C22.2552 17.8527 23.5851 14.6798 23.3523 11.2506C23.3523 11.25 23.3523 11.2484 23.3523 11.2484Z" fill="url(#paint2_linear_10462_21041)"/>
<path opacity="0.5" d="M14.654 3.6877C14.9002 3.71274 15.1639 3.77455 15.401 3.8534C15.4122 3.85713 15.4245 3.86086 15.4335 3.86299C16.3995 4.25728 17.2877 4.81887 18.0577 5.52273C18.0577 5.52273 18.0614 5.52486 18.0635 5.52646C18.4333 5.105 19.1435 4.64091 19.1435 4.64091C19.1435 4.64091 18.0561 3.52785 16.3905 3.18152C15.2257 2.93908 12.5978 2.70624 10.9397 5.52646L10.9551 5.51154C11.0788 5.32612 11.2077 5.14549 11.3558 4.97979C12.1588 4.07293 13.3523 3.55449 14.654 3.6877Z" fill="url(#paint3_linear_10462_21041)"/>
<path opacity="0.5" d="M18.0769 18.3579C17.9255 18.5635 17.7524 18.7527 17.5611 18.9221C17.5536 18.9296 17.544 18.9376 17.5361 18.9456C16.7118 19.5844 15.7809 20.0725 14.7872 20.3874C14.7851 20.3874 14.7835 20.3874 14.7814 20.3895C14.9625 20.9207 15.0084 21.7679 15.0084 21.7679C15.0084 21.7679 16.5157 21.3832 17.6485 20.114C18.4397 19.2264 19.9567 17.0663 18.3427 14.221C18.3427 14.221 18.3449 14.2306 18.3486 14.2418C18.4488 14.4406 18.5394 14.6441 18.6086 14.854C18.9917 16.0017 18.8452 17.2954 18.079 18.3563C18.0785 18.3563 18.0769 18.3579 18.0769 18.3579Z" fill="url(#paint4_linear_10462_21041)"/>
<path opacity="0.5" d="M3.66091 13.9898C3.55807 13.7554 3.48028 13.5108 3.42966 13.2598C3.42753 13.2486 3.4238 13.2364 3.4222 13.2252C3.27994 12.1878 3.32576 11.1365 3.54742 10.1242V10.1183C2.99648 10.0102 2.24041 9.62546 2.24041 9.62546C2.24041 9.62546 1.82054 11.1253 2.3539 12.7387C2.72741 13.8688 3.83834 16.2617 7.10879 16.2868C7.10879 16.2868 7.0992 16.2847 7.08801 16.2809C6.86689 16.2676 6.64577 16.2447 6.42785 16.2005C5.24179 15.958 4.19639 15.1838 3.65878 13.9903C3.65878 13.9898 3.66091 13.9898 3.66091 13.9898Z" fill="url(#paint5_linear_10462_21041)"/>
<path opacity="0.6" d="M14.1804 8.08132C14.271 8.09251 14.3594 8.09624 14.4457 8.09464C14.4457 8.09464 14.3861 6.92616 14.2438 6.32567C14.0994 5.72678 13.8873 5.32823 13.6566 5.10338C13.4893 4.94194 12.9634 4.74106 12.5558 5.97721C12.4231 7.00502 13.1483 7.94651 14.1767 8.07919C14.1783 8.07919 14.1793 8.07972 14.1809 8.07972V8.08132H14.1804Z" fill="url(#paint6_linear_10462_21041)"/>
<path opacity="0.5" d="M7.70229 12.2011C7.66712 12.1196 7.62662 12.0407 7.5808 11.9645C7.5808 11.9645 6.59668 12.5997 6.15018 13.0233C5.70367 13.4468 5.46444 13.8305 5.38611 14.1438C5.33017 14.3692 5.41861 14.9238 6.69312 14.6595C7.65007 14.2589 8.1019 13.1586 7.70229 12.2011Z" fill="url(#paint7_linear_10462_21041)"/>
<path opacity="0.6" d="M14.5074 15.7492C14.4536 15.8206 14.4057 15.8978 14.363 15.974C14.363 15.974 15.4047 16.5074 15.9956 16.6827C16.5865 16.858 17.0367 16.8734 17.3468 16.7844C17.5701 16.721 18.0054 16.3646 17.1406 15.3948C16.3153 14.7661 15.1367 14.9249 14.5074 15.7502L14.5069 15.7508C14.5074 15.7513 14.5074 15.7492 14.5074 15.7492Z" fill="url(#paint8_linear_10462_21041)"/>
<path opacity="0.3" d="M14.1031 10.9037C13.8671 11.6891 13.5351 12.4036 13.1291 13.0328C13.1078 13.0653 13.0865 13.0984 13.0636 13.133C13.0636 13.133 13.0636 13.1351 13.0614 13.1367C12.7769 13.5454 12.4546 13.9264 12.0986 14.2748C12.3565 14.5482 12.6336 14.8135 12.94 15.0661C13.2879 15.34 13.6561 15.5866 14.0408 15.8051C14.8245 14.9968 15.4671 14.0622 15.9413 13.0408C16.1108 12.695 16.26 12.3391 16.3878 11.9757C15.9914 11.6853 15.5907 11.4525 15.2215 11.2942C14.8576 11.1381 14.483 11.0076 14.1004 10.9037H14.1031Z" fill="url(#paint9_linear_10462_21041)"/>
<path opacity="0.3" d="M6.4059 18.6818C8.53879 18.9722 10.5912 18.295 11.9893 17.4648C11.8178 17.3449 11.6478 17.2213 11.481 17.0951C10.9493 16.6885 10.4617 16.2271 10.0259 15.7188C8.97463 16.1786 7.65004 16.4482 6.42349 16.1978C5.23796 15.9553 4.19203 15.1817 3.65495 13.9882C3.55212 13.7537 3.47486 13.5092 3.42371 13.2582C3.73381 15.4337 4.83089 17.3316 6.40431 18.6813L6.4059 18.6818Z" fill="url(#paint10_linear_10462_21041)"/>
<path opacity="0.3" d="M12.0991 14.2743C11.5604 13.7053 11.1043 13.0627 10.7441 12.3668C10.7271 12.3301 10.7073 12.2976 10.6903 12.2608V12.2571C10.4793 11.8058 10.3104 11.3358 10.1857 10.8536C9.81967 10.9405 9.45202 11.0481 9.08225 11.1872C8.67197 11.3513 8.27396 11.5452 7.89246 11.7685C8.23506 12.9567 8.74124 13.9594 9.33267 14.7986C9.54633 15.1162 9.77758 15.422 10.0301 15.7172C10.4804 15.5206 10.8826 15.2877 11.2039 15.0469C11.5199 14.8093 11.8199 14.5509 12.1012 14.2727C12.1007 14.2727 12.0991 14.2743 12.0991 14.2743Z" fill="url(#paint11_linear_10462_21041)"/>
<path opacity="0.3" d="M9.21331 3.72019C7.89458 5.42256 7.45554 7.53786 7.47472 9.16296C7.66494 9.07345 7.85675 8.98819 8.05017 8.90721C8.66717 8.64932 9.30976 8.45751 9.96726 8.33549C10.0946 7.19525 10.5235 5.91328 11.3537 4.97765C12.1561 4.07079 13.3501 3.55289 14.6518 3.68556C14.898 3.7106 15.1617 3.77241 15.3988 3.85127C15.41 3.855 15.4217 3.85873 15.4313 3.86086C14.1957 3.35681 12.8615 3.14262 11.53 3.23533C10.7217 3.29127 9.94754 3.45485 9.21598 3.71273C9.21385 3.71487 9.21225 3.7186 9.21012 3.72019H9.21331Z" fill="url(#paint12_linear_10462_21041)"/>
<path opacity="0.3" d="M20.7687 13.6296C19.9529 11.6369 18.339 10.1966 16.9223 9.40167C16.9052 9.60414 16.8839 9.81194 16.8546 10.0293C16.7688 10.6927 16.6132 11.3449 16.3905 11.9757C17.3149 12.6572 18.2117 13.668 18.6086 14.8562C18.9917 16.0039 18.8452 17.2975 18.079 18.3584C17.9277 18.5641 17.7545 18.7532 17.5632 18.9221L17.5558 18.9296C19.2075 17.6322 20.3755 15.7609 20.7767 13.6435C20.7767 13.6397 20.773 13.6355 20.773 13.6317L20.7687 13.6296Z" fill="white"/>
<path opacity="0.3" d="M9.96202 9.69046C10.0089 10.0826 10.083 10.471 10.1831 10.8531C10.9824 10.6645 11.7656 10.5952 12.5148 10.632L12.6341 10.6378H12.6378C13.1078 10.6762 13.5969 10.763 14.1031 10.9016C14.2107 10.5414 14.3013 10.1679 14.3669 9.77891C14.4383 9.29404 14.459 8.84541 14.4574 8.45431C13.2581 8.15807 12.1375 8.09786 11.1156 8.19057C10.7314 8.21561 10.3489 8.2641 9.97001 8.33496C9.9162 8.82409 9.91354 9.28765 9.96415 9.68886C9.96362 9.68886 9.96202 9.69046 9.96202 9.69046Z" fill="white"/>
<defs>
<linearGradient id="paint0_linear_10462_21041" x1="11.5408" y1="2.39441" x2="7.87488" y2="3.4609" gradientUnits="userSpaceOnUse">
<stop stop-color="#231F20"/>
<stop offset="1" stop-color="white"/>
</linearGradient>
<linearGradient id="paint1_linear_10462_21041" x1="4.61455" y1="16.372" x2="7.67975" y2="19.5714" gradientUnits="userSpaceOnUse">
<stop stop-color="#231F20"/>
<stop offset="1" stop-color="white"/>
</linearGradient>
<linearGradient id="paint2_linear_10462_21041" x1="21.0648" y1="15.8898" x2="22.1312" y2="12.6476" gradientUnits="userSpaceOnUse">
<stop stop-color="#231F20"/>
<stop offset="1" stop-color="white"/>
</linearGradient>
<linearGradient id="paint3_linear_10462_21041" x1="13.2098" y1="4.24904" x2="18.1234" y2="5.37365" gradientUnits="userSpaceOnUse">
<stop stop-color="#231F20"/>
<stop offset="1" stop-color="white"/>
</linearGradient>
<linearGradient id="paint4_linear_10462_21041" x1="18.3129" y1="16.8261" x2="14.8798" y2="20.5198" gradientUnits="userSpaceOnUse">
<stop stop-color="#231F20"/>
<stop offset="1" stop-color="white"/>
</linearGradient>
<linearGradient id="paint5_linear_10462_21041" x1="4.86792" y1="14.9593" x2="3.38669" y2="10.141" gradientUnits="userSpaceOnUse">
<stop stop-color="#231F20"/>
<stop offset="1" stop-color="white"/>
</linearGradient>
<linearGradient id="paint6_linear_10462_21041" x1="14.2835" y1="6.06065" x2="12.7299" y2="7.6165" gradientUnits="userSpaceOnUse">
<stop stop-color="#231F20"/>
<stop offset="1" stop-color="white"/>
</linearGradient>
<linearGradient id="paint7_linear_10462_21041" x1="5.90122" y1="13.1202" x2="8.02443" y2="13.6905" gradientUnits="userSpaceOnUse">
<stop stop-color="#231F20"/>
<stop offset="1" stop-color="white"/>
</linearGradient>
<linearGradient id="paint8_linear_10462_21041" x1="16.2039" y1="16.8498" x2="15.6351" y2="14.7273" gradientUnits="userSpaceOnUse">
<stop stop-color="#231F20"/>
<stop offset="1" stop-color="white"/>
</linearGradient>
<linearGradient id="paint9_linear_10462_21041" x1="12.97" y1="14.9606" x2="13.9037" y2="13.6728" gradientUnits="userSpaceOnUse">
<stop stop-color="#231F20"/>
<stop offset="1" stop-color="white"/>
</linearGradient>
<linearGradient id="paint10_linear_10462_21041" x1="9.75969" y1="14.4029" x2="7.8941" y2="15.2924" gradientUnits="userSpaceOnUse">
<stop stop-color="#231F20"/>
<stop offset="1" stop-color="white"/>
</linearGradient>
<linearGradient id="paint11_linear_10462_21041" x1="9.08424" y1="11.297" x2="9.66174" y2="12.4967" gradientUnits="userSpaceOnUse">
<stop stop-color="#231F20"/>
<stop offset="1" stop-color="white"/>
</linearGradient>
<linearGradient id="paint12_linear_10462_21041" x1="11.7668" y1="7.59428" x2="11.3682" y2="6.21768" gradientUnits="userSpaceOnUse">
<stop stop-color="#231F20"/>
<stop offset="1" stop-color="white"/>
</linearGradient>
</defs>
</svg>
