<svg width="99" height="24" viewBox="0 0 99 24" fill="none" xmlns="http://www.w3.org/2000/svg">
<path d="M2.91842 4.03119C3.1855 3.99105 3.57664 3.95748 3.79702 4.14649C4.08454 4.34789 4.10424 4.85433 3.86635 5.09661C3.7061 5.27011 3.42744 5.25826 3.17833 5.24767C3.09846 5.24427 3.02163 5.241 2.95271 5.24401C2.72285 5.26955 2.5353 5.03969 2.44774 4.85287C2.31201 4.49165 2.53895 4.10343 2.91842 4.03119Z" fill="white"/>
<path d="M8.86337 4.04931C8.16843 4.05114 7.47368 4.05296 6.78056 4.05625C6.51202 4.04676 6.24639 4.2292 6.16831 4.48679C6.14496 4.67798 6.12599 4.9115 6.25004 5.0735C6.35367 5.22748 6.52807 5.31067 6.7127 5.30556C7.08318 5.31019 7.45392 5.31051 7.82465 5.31083C8.33019 5.31127 8.8357 5.31171 9.34048 5.32307C9.64754 5.35141 9.95563 5.34877 10.2634 5.34614C10.5343 5.34382 10.8049 5.3415 11.0743 5.36029C11.4443 5.40772 11.6625 5.65875 11.8654 5.94481C11.9606 6.08429 12.0627 6.21953 12.1648 6.35473C12.3303 6.5739 12.4958 6.79299 12.6316 7.02993C11.8398 7.03358 11.047 7.0354 10.2542 7.03723C9.46128 7.03905 8.66841 7.04088 7.87663 7.04453C7.61538 7.05109 7.36289 7.14085 7.24614 7.39042C7.06735 7.73267 7.24176 8.17635 7.60809 8.29092C7.89877 8.31047 8.19216 8.3081 8.48528 8.30573C8.67342 8.30421 8.86145 8.30269 9.04859 8.30697C9.86969 8.34672 10.6927 8.34343 11.5154 8.34015C12.0519 8.338 12.5884 8.33586 13.1242 8.34565C13.4555 8.36024 13.732 8.50035 13.932 8.76525C14.2458 9.1885 14.5588 9.6132 14.8646 10.0423C13.825 10.0362 12.7852 10.0389 11.7453 10.0417C10.9189 10.0438 10.0924 10.046 9.26605 10.0438L9.25377 10.0438C9.05432 10.0452 8.87373 10.0464 8.70926 10.178C8.3765 10.4218 8.3962 11.026 8.75669 11.2376C8.93876 11.3501 9.18923 11.348 9.41278 11.3462C9.4634 11.3458 9.51265 11.3454 9.55941 11.3463C10.0715 11.3472 10.5836 11.3476 11.0957 11.348H11.096C12.3398 11.349 13.5836 11.35 14.8267 11.3573C14.6818 11.6107 14.5048 11.8452 14.3279 12.0795C14.2241 12.2171 14.1204 12.3545 14.0232 12.4957C13.8211 12.7817 13.5671 13.0065 13.2008 13.0269C12.6967 13.0355 12.1916 13.0347 11.6866 13.0339C11.2925 13.0332 10.8981 13.0326 10.5044 13.0364C10.3147 13.0415 10.1344 13.0751 9.99141 13.2086C9.73089 13.4392 9.72068 13.88 9.95127 14.1339C10.0746 14.2682 10.249 14.339 10.4307 14.3383C10.766 14.3423 11.1015 14.3415 11.4369 14.3408H11.4374C11.8376 14.34 12.2377 14.3391 12.6374 14.3463C12.4815 14.6051 12.3001 14.8476 12.1186 15.0901L12.1182 15.0906C12.0103 15.2349 11.9023 15.3792 11.7997 15.527C11.61 15.8028 11.3465 16.0043 11.0036 16.0327C10.7642 16.0494 10.5235 16.0468 10.2831 16.0441H10.2827C10.1143 16.0422 9.94599 16.0403 9.77833 16.0451C9.15861 16.0819 8.53715 16.0808 7.91588 16.0797C7.63668 16.0792 7.35725 16.0787 7.0783 16.0816C7.01604 16.0851 6.95177 16.0835 6.8872 16.0819C6.69371 16.077 6.49757 16.0722 6.34491 16.2035C6.07418 16.4341 6.07418 16.9843 6.37629 17.1923C6.52515 17.3134 6.74627 17.3368 6.93089 17.3368C8.12328 17.3382 9.31567 17.3419 10.5081 17.347C10.9481 17.3543 11.3633 17.3521 11.7778 17.1813C12.2091 17.0142 12.563 16.7128 12.833 16.3407C13.2644 15.7543 13.6963 15.1681 14.1281 14.5819L14.1301 14.5792C14.8123 13.6531 15.4946 12.7269 16.1752 11.8002C16.3525 11.5507 16.6167 11.3814 16.9261 11.3617C17.1572 11.3492 17.3896 11.3529 17.6221 11.3566C17.8925 11.361 18.1628 11.3653 18.4308 11.3441C18.7702 11.3033 19.0139 10.9982 18.9942 10.6596C18.9862 10.3495 18.7548 10.0788 18.4447 10.0423C18.2033 10.0256 17.9597 10.0298 17.7162 10.0341C17.4281 10.0392 17.14 10.0442 16.8553 10.0146C16.4781 9.96348 16.262 9.71026 16.0541 9.41763C15.4489 8.59242 14.8416 7.76834 14.2343 6.94426L14.2341 6.94393L14.2335 6.94317L14.2305 6.93917C13.7554 6.29436 13.2802 5.64955 12.806 5.00418C12.3798 4.41017 11.68 4.03727 10.9459 4.04238C10.2525 4.04567 9.55785 4.04749 8.86337 4.04931Z" fill="white"/>
<path d="M4.94636 7.21139C4.72598 7.02238 4.33484 7.05595 4.06775 7.09609C3.68829 7.16833 3.46134 7.55655 3.59707 7.91777C3.68464 8.10459 3.87218 8.33445 4.10205 8.30891C4.17097 8.3059 4.2478 8.30917 4.32767 8.31257C4.57678 8.32316 4.85544 8.33501 5.01568 8.16151C5.25358 7.91923 5.23388 7.41279 4.94636 7.21139Z" fill="white"/>
<path d="M1.38889 7.21139C1.16851 7.02238 0.777366 7.05595 0.510281 7.09609C0.130818 7.16833 -0.0961307 7.55655 0.0396006 7.91777C0.127169 8.10459 0.314712 8.33445 0.544579 8.30891C0.613496 8.3059 0.690327 8.30917 0.770195 8.31257C1.0193 8.32316 1.29796 8.33501 1.45821 8.16151C1.69611 7.91923 1.6764 7.41279 1.38889 7.21139Z" fill="white"/>
<path fill-rule="evenodd" clip-rule="evenodd" d="M29.9741 5.71561C29.0642 5.33542 28.079 5.25734 27.1063 5.37701C26.0102 5.53318 24.974 6.04837 24.1691 6.80584C23.2861 7.65234 22.6906 8.78635 22.5396 10.0036C22.3841 11.1821 22.6067 12.4029 23.2044 13.4333C24.1268 15.076 25.989 16.1655 27.8761 16.1348C29.332 16.1801 30.7966 15.5591 31.8138 14.5228C32.4947 13.8558 32.9719 12.9772 33.2062 12.0556C33.4951 10.8479 33.3893 9.51755 32.8391 8.39667C32.2611 7.18385 31.2183 6.2184 29.9741 5.71561ZM29.7981 7.86111C29.1406 7.4364 28.386 7.262 27.6074 7.32694C26.3333 7.42327 25.1803 8.27925 24.7154 9.46945C24.3542 10.3685 24.4016 11.4361 24.8534 12.295C25.4167 13.4115 26.6222 14.1566 27.8745 14.1463C29.2033 14.1894 30.5161 13.3779 31.0642 12.1644C31.3575 11.5492 31.4436 10.8516 31.3371 10.1802C31.1838 9.23375 30.6154 8.36609 29.7981 7.86111Z" fill="white"/>
<path d="M40.3984 7.76911C39.7394 7.45167 39.0425 7.40935 38.323 7.46189C37.7392 7.52392 37.1766 7.75014 36.7176 8.11719C36.6057 8.20653 36.5016 8.30314 36.3974 8.39995C36.3433 8.45022 36.2891 8.50055 36.2338 8.54993C36.2322 8.42645 36.2323 8.30296 36.2324 8.17948C36.2327 7.95999 36.2329 7.74049 36.2235 7.521C36.0083 7.52124 35.793 7.521 35.5777 7.52075C35.1472 7.52027 34.7166 7.51978 34.2861 7.52319C34.2751 10.367 34.2751 13.213 34.2861 16.0567C34.3638 16.0571 34.4416 16.0575 34.5194 16.0579L34.5212 16.0579C35.0977 16.0607 35.675 16.0635 36.2513 16.0538C36.2509 15.2772 36.2509 14.5007 36.2509 13.7242V13.7033C36.2509 12.9319 36.2509 12.1604 36.2505 11.3886C36.2556 10.9281 36.3301 10.4815 36.5614 10.0773C36.8708 9.53945 37.4663 9.16364 38.0902 9.14467C38.5456 9.12277 38.9929 9.18407 39.376 9.44751C39.7555 9.71459 39.9737 10.1393 40.0707 10.5844C40.1404 10.8971 40.1383 11.1938 40.1361 11.5026V11.5036C40.1355 11.5859 40.1349 11.669 40.1357 11.7535C40.1363 12.3273 40.1359 12.9012 40.1355 13.4751V13.4778C40.135 14.3377 40.1345 15.1976 40.1371 16.0575C40.6211 16.0601 41.1051 16.0597 41.589 16.0593C41.7706 16.0591 41.9521 16.0589 42.1337 16.0589C42.1466 15.0803 42.1448 14.1011 42.1429 13.1221V13.1216C42.1416 12.4466 42.1403 11.7715 42.1439 11.0967C42.1505 10.5224 42.0833 9.95978 41.8848 9.41832C41.6229 8.70317 41.0938 8.09092 40.3984 7.76911Z" fill="white"/>
<path d="M63.4128 7.44723C64.2178 7.41366 65.0117 7.54282 65.6648 8.04342C65.9258 8.23182 66.1079 8.47406 66.2959 8.72416C66.3235 8.7608 66.3512 8.79762 66.3792 8.83446C66.92 8.05875 67.7964 7.54282 68.7392 7.45963C69.5215 7.41001 70.2877 7.46109 70.9985 7.81793C71.6385 8.13902 72.1091 8.71113 72.3594 9.37665C72.5908 9.98379 72.6302 10.599 72.628 11.2426C72.6256 11.8845 72.6266 12.5266 72.6275 13.1686C72.6289 14.1315 72.6303 15.0943 72.6207 16.0567C72.4434 16.0569 72.266 16.0578 72.0886 16.0587H72.0867C71.5907 16.0612 71.0942 16.0637 70.5986 16.0508C70.6023 15.0156 70.6019 13.9806 70.6014 12.9456C70.6012 12.3537 70.601 11.7617 70.6015 11.1696C70.5942 10.596 70.484 10.0436 70.0768 9.61528C69.7025 9.22779 69.1887 9.1227 68.6677 9.14241C68.0708 9.14751 67.5067 9.48684 67.2017 9.99474C66.9586 10.4187 66.8995 10.9076 66.8988 11.3885C66.9 12.2368 66.8999 13.085 66.8998 13.9332V13.9518C66.8997 14.6525 66.8996 15.3531 66.9003 16.0538C66.2318 16.0625 65.559 16.0625 64.8898 16.0538C64.8896 15.4663 64.8901 14.8785 64.8906 14.2905V14.2836C64.8917 13.1719 64.8927 12.0598 64.8884 10.9492C64.8672 10.2757 64.6125 9.6036 63.9682 9.30295C63.2822 9.00886 62.3555 9.09059 61.8125 9.64155C61.3484 10.0743 61.22 10.7048 61.2083 11.3156C61.2076 12.894 61.2076 14.4753 61.2083 16.0538C60.6321 16.0634 60.0547 16.0606 59.4782 16.0578L59.2431 16.0567C59.2322 13.2129 59.2322 10.3669 59.2431 7.52312C59.6735 7.51971 60.1038 7.5202 60.534 7.52068H60.5346C60.7498 7.52093 60.9649 7.52117 61.1798 7.52093C61.1944 7.85515 61.193 8.18937 61.182 8.52359C61.7512 7.87266 62.5394 7.45963 63.4128 7.44723Z" fill="white"/>
<path d="M44.5526 7.52065C44.1224 7.52016 43.6923 7.51968 43.2619 7.52308C43.2509 10.3669 43.2509 13.2129 43.2619 16.0566C43.3 16.0568 43.3382 16.057 43.3764 16.0572L43.497 16.0578C44.0735 16.0606 44.6508 16.0634 45.227 16.0537C45.227 15.61 45.2269 15.1661 45.2268 14.7221C45.2265 13.6108 45.2262 12.4991 45.2278 11.3885C45.2416 10.8573 45.3336 10.2253 45.7408 9.84219C46.1633 9.44813 46.7288 9.39997 47.2791 9.44594C47.5819 9.47415 47.8236 9.60368 48.0814 9.74188C48.1037 9.75383 48.1263 9.76595 48.1489 9.77797C48.249 9.52128 48.3499 9.26472 48.4508 9.00807L48.452 9.00489L48.4533 9.00159C48.5994 8.63001 48.7455 8.25827 48.8896 7.88576C48.2474 7.51578 47.5184 7.45595 46.796 7.55811C46.3859 7.6267 45.9772 7.80914 45.6758 8.09885C45.5372 8.23209 45.4303 8.38102 45.3211 8.53309C45.2832 8.5859 45.245 8.63908 45.2052 8.69212C45.2053 8.5906 45.2062 8.48923 45.2071 8.38792C45.2096 8.09893 45.2121 7.81051 45.1986 7.52089C44.985 7.52114 44.7715 7.52089 44.5581 7.52065H44.5526Z" fill="white"/>
<path d="M92.8839 7.52323C93.3145 7.51982 93.7447 7.52031 94.175 7.52079H94.1776C94.3919 7.52104 94.6062 7.52128 94.8206 7.52104C94.8342 7.81072 94.8316 8.0992 94.8291 8.38826C94.8283 8.4895 94.8274 8.59081 94.8272 8.69227C94.8671 8.63922 94.9053 8.58602 94.9432 8.5332C95.0523 8.38114 95.1592 8.23223 95.2979 8.09899C95.6036 7.80564 96.0138 7.62466 96.4297 7.55607C97.1485 7.45682 97.8731 7.51812 98.5117 7.88591C98.3678 8.2579 98.2218 8.62914 98.076 9.00021L98.0754 9.00163L98.0724 9.00921L98.0714 9.01196C97.971 9.26735 97.8706 9.52268 97.771 9.77812L97.7601 9.77232L97.7035 9.74203C97.4456 9.60383 97.204 9.47429 96.9011 9.44609C96.3509 9.40012 95.7854 9.44828 95.3628 9.84234C94.9556 10.2254 94.8637 10.8574 94.8498 11.3887C94.8483 12.4987 94.8486 13.6098 94.8489 14.7205V14.721C94.849 15.1654 94.8491 15.6097 94.8491 16.0539C94.2729 16.0635 93.6955 16.0607 93.119 16.0579L93.118 16.0579C93.04 16.0575 92.9619 16.0571 92.8839 16.0568C92.873 13.213 92.873 10.367 92.8839 7.52323Z" fill="white"/>
<path fill-rule="evenodd" clip-rule="evenodd" d="M87.5685 7.44514C88.4756 7.4196 89.3826 7.66114 90.1445 8.15591C90.9508 8.68351 91.5485 9.50592 91.8127 10.432C92.0082 11.0895 91.998 11.7324 91.9747 12.4103C91.0828 12.4117 90.1909 12.411 89.299 12.4104C87.8908 12.4093 86.4825 12.4082 85.0743 12.4154C85.2735 13.3181 85.9711 14.0602 86.8752 14.2762C87.5729 14.4411 88.4077 14.4039 89.0324 14.0215C89.487 13.7632 89.784 13.3677 90.0387 12.9218C90.3162 13.0741 90.5921 13.229 90.8681 13.384L90.8687 13.3843C91.1296 13.5308 91.3905 13.6773 91.6528 13.8216C91.0552 15.0089 89.8679 15.8962 88.5442 16.0787C87.5743 16.2049 86.5943 16.1502 85.6931 15.7459C84.7802 15.3504 84.0351 14.6426 83.6089 13.7428C83.209 12.9153 83.0959 11.9746 83.236 11.0698C83.4039 10.0306 83.9709 9.05203 84.8013 8.40329C85.5858 7.78666 86.5666 7.4269 87.5685 7.44514ZM89.1812 9.62992C89.5767 9.88898 89.8343 10.2808 89.9766 10.7274C88.3748 10.734 86.7716 10.7355 85.1698 10.7267C85.4975 9.91743 86.2469 9.37232 87.1029 9.24681C87.8188 9.1607 88.5653 9.22418 89.1812 9.62992Z" fill="white"/>
<path fill-rule="evenodd" clip-rule="evenodd" d="M56.1883 8.55937C55.8417 8.24923 55.498 7.95442 55.0638 7.77052C54.3523 7.43922 53.5795 7.38741 52.8096 7.48739C51.6136 7.66398 50.5161 8.35286 49.8885 9.39346C49.2864 10.3516 49.15 11.4776 49.3032 12.5839C49.4229 13.4063 49.8089 14.1893 50.3679 14.8023C51.5289 16.0589 53.4781 16.5259 55.047 15.7933C55.4943 15.5977 55.8475 15.289 56.189 14.9482C56.19 15.1068 56.1897 15.2652 56.1894 15.4236C56.1891 15.6348 56.1887 15.846 56.1912 16.0574C56.8465 16.0604 57.5033 16.0604 58.1586 16.0574C58.1608 13.2122 58.1608 10.3677 58.1586 7.52241C57.5033 7.5195 56.8465 7.5195 56.1912 7.52241C56.1893 7.70447 56.1894 7.88632 56.1895 8.06819V8.0704C56.1896 8.23333 56.1897 8.39627 56.1883 8.55937ZM54.9018 9.53872C54.4033 9.29061 53.8495 9.24245 53.3036 9.3198C52.5775 9.44677 51.9011 9.88024 51.5296 10.5231C50.9867 11.447 51.1195 12.6846 51.8442 13.472C52.6133 14.3207 53.9385 14.5367 54.9499 14.0164C55.7665 13.5975 56.3145 12.6708 56.2832 11.7527C56.2934 10.8377 55.7315 9.92986 54.9018 9.53872Z" fill="white"/>
<path fill-rule="evenodd" clip-rule="evenodd" d="M79.8919 7.6807C80.8668 8.01054 81.69 8.73298 82.1585 9.64808C82.5978 10.4537 82.7218 11.4337 82.6299 12.3379C82.5328 13.4113 82.0016 14.4439 81.1821 15.1445C79.9568 16.2026 78.1077 16.45 76.6533 15.7363C76.301 15.5675 76.0259 15.3155 75.742 15.0554L75.7134 15.0292C75.708 15.7494 75.7095 16.4699 75.711 17.1903C75.713 18.127 75.7149 19.0635 75.7017 19.9994C75.4865 19.9992 75.2712 19.9994 75.0561 19.9997C74.6258 20.0001 74.1955 20.0006 73.765 19.9972C73.7584 19.779 73.7562 19.5608 73.757 19.3426C73.76 17.6953 73.7591 16.0474 73.7582 14.3995V14.3912C73.757 12.1015 73.7557 9.81165 73.765 7.52308C74.1954 7.51967 74.6259 7.52016 75.0561 7.52065H75.0565C75.2717 7.52089 75.4867 7.52113 75.7017 7.52089C75.7137 7.78785 75.7124 8.05378 75.711 8.31986V8.3203C75.7104 8.4432 75.7098 8.56613 75.7105 8.6892C75.7618 8.64009 75.8121 8.59064 75.8622 8.54143C76.0776 8.32963 76.2886 8.12221 76.5563 7.9653C77.5246 7.33991 78.8257 7.30708 79.8919 7.6807ZM77.7483 9.31253C78.235 9.25196 78.7262 9.28991 79.1786 9.4884C79.8777 9.77883 80.425 10.3801 80.6169 11.1157C80.8869 12.0782 80.5366 13.1685 79.731 13.7683C78.7532 14.5345 77.2149 14.4696 76.3516 13.5567C75.5467 12.7321 75.411 11.4018 76.0269 10.4283C76.3961 9.81751 77.0478 9.41688 77.7483 9.31253Z" fill="white"/>
<path d="M5.84275 10.0986C6.13319 10.065 6.44625 10.0716 6.73814 10.092C7.23728 10.2533 7.23874 11.0998 6.7272 11.256C6.52109 11.2848 6.30657 11.2775 6.09627 11.2704C6.05119 11.2689 6.00627 11.2673 5.9617 11.2662C5.72673 11.2655 5.58662 11.0743 5.50708 10.8765C5.40126 10.6036 5.55013 10.1891 5.84275 10.0986Z" fill="white"/>
<path d="M3.56378 10.092C3.27189 10.0716 2.95883 10.065 2.66839 10.0986C2.37577 10.1891 2.2269 10.6036 2.33272 10.8765C2.41226 11.0743 2.55237 11.2655 2.78734 11.2662C2.83191 11.2673 2.8768 11.2689 2.92188 11.2704C3.13218 11.2775 3.34673 11.2848 3.55284 11.256C4.06438 11.0998 4.06292 10.2533 3.56378 10.092Z" fill="white"/>
<path d="M3.91364 13.1122C4.18875 13.0764 4.52078 13.0786 4.79735 13.1049C5.30087 13.2552 5.29722 14.101 4.80903 14.2557C4.5164 14.2747 4.20407 14.2805 3.91291 14.2469C3.42763 14.047 3.45026 13.3216 3.91364 13.1122Z" fill="white"/>
<path d="M3.64801 16.1698C3.37144 16.1435 3.03941 16.1413 2.7643 16.1771C2.30092 16.3865 2.2783 17.1119 2.76357 17.3118C3.05474 17.3454 3.36707 17.3396 3.65969 17.3206C4.14789 17.1659 4.15153 16.3201 3.64801 16.1698Z" fill="white"/>
<path d="M0.90347 13.1122C1.17858 13.0764 1.51061 13.0786 1.78718 13.1049C2.2907 13.2552 2.28705 14.101 1.79886 14.2557C1.50623 14.2747 1.19391 14.2805 0.90274 14.2469C0.417464 14.047 0.440086 13.3216 0.90347 13.1122Z" fill="white"/>
<path d="M7.97676 13.058C7.72792 13.0171 7.44697 13.0135 7.20834 13.1054C6.85661 13.2506 6.73839 13.7199 6.93834 14.0336C7.09816 14.3438 7.53454 14.3438 7.83373 14.3307C8.09644 14.327 8.31609 14.2051 8.43941 13.9723C8.48685 13.8089 8.48028 13.6199 8.45474 13.4535C8.38395 13.2433 8.19422 13.0937 7.97676 13.058Z" fill="white"/>
</svg>
