<svg width="24" height="24" viewBox="0 0 24 24" fill="none" xmlns="http://www.w3.org/2000/svg">
<path d="M14.6847 11.6021V12.4201C14.6847 12.6415 14.8205 12.8335 15.0158 12.9303V12.7972C15.0158 12.6017 15.187 12.4426 15.3972 12.4426H15.4307C15.6409 12.4426 15.812 12.6017 15.812 12.7972V12.9303C16.0093 12.8335 16.1432 12.6398 16.1432 12.4201V11.6021C16.1432 11.3807 16.0093 11.1887 15.812 11.0919V11.2251C15.812 11.4205 15.6409 11.5796 15.4307 11.5796H15.3972C15.187 11.5796 15.0158 11.4205 15.0158 11.2251V11.0919C14.8186 11.1887 14.6847 11.3824 14.6847 11.6021Z" fill="white"/>
<path d="M18.7253 10.388V9.56997C18.7253 9.35033 18.8592 9.15663 19.0564 9.05978V9.19295C19.0564 9.38838 19.2276 9.54749 19.4378 9.54749H19.4694C19.6796 9.54749 19.8507 9.38838 19.8507 9.19295V9.05978C20.048 9.15663 20.1819 9.3486 20.1819 9.56997V10.388C20.1819 10.6076 20.048 10.8014 19.8507 10.8982V10.765C19.8507 10.5696 19.6796 10.4105 19.4694 10.4105H19.4359C19.2257 10.4105 19.0545 10.5696 19.0545 10.765V10.8982C18.8611 10.8014 18.7253 10.6094 18.7253 10.388Z" fill="white"/>
<path d="M20.1838 14.4522C20.1838 14.6719 20.0498 14.8656 19.8526 14.9624V14.767C19.8526 14.5716 19.6815 14.4125 19.4713 14.4125H19.4396C19.2294 14.4125 19.0583 14.5716 19.0583 14.767V14.9624C18.8611 14.8656 18.7271 14.6736 18.7271 14.4522V13.6342C18.7271 13.4146 18.8611 13.2209 19.0583 13.124V13.1949C19.0583 13.3904 19.2294 13.5495 19.4396 13.5495H19.4731C19.6833 13.5495 19.8545 13.3904 19.8545 13.1949V13.124C20.0517 13.2209 20.1856 13.4128 20.1856 13.6342V14.4522H20.1838Z" fill="white"/>
<path fill-rule="evenodd" clip-rule="evenodd" d="M11.999 23.2499C18.2122 23.2499 23.2489 18.2131 23.2489 12C23.2489 5.78678 18.2122 0.75 11.999 0.75C5.7858 0.75 0.749023 5.78678 0.749023 12C0.749023 18.2131 5.7858 23.2499 11.999 23.2499ZM15.812 13.546V14.4799C16.3534 14.665 16.7571 15.2202 16.8017 15.8912H16.1432V15.6058C16.1432 15.3844 16.0093 15.1924 15.812 15.0956V15.2288C15.812 15.4242 15.6409 15.5833 15.4307 15.5833H15.3972C15.187 15.5833 15.0158 15.4242 15.0158 15.2288V15.0956C14.8186 15.1924 14.6847 15.3862 14.6847 15.6058V15.8912H14.0262C14.0708 15.2202 14.4745 14.665 15.0158 14.4799V13.546C14.441 13.3506 14.0224 12.7383 14.0224 12.012C14.0224 11.2856 14.4428 10.6734 15.0158 10.4779V9.54403C14.4745 9.35898 14.0708 8.80381 14.0262 8.13279H14.6847V8.41815C14.6847 8.63952 14.8186 8.83149 15.0158 8.92834V8.79517C15.0158 8.59974 15.187 8.44063 15.3972 8.44063H15.4307C15.6409 8.44063 15.812 8.59974 15.812 8.79517V8.92834C16.0093 8.83149 16.1432 8.63779 16.1432 8.41815V8.13279H16.8017C16.7571 8.80381 16.3534 9.35898 15.812 9.54403V10.4779C16.3869 10.6734 16.8055 11.2873 16.8055 12.012C16.8055 12.7366 16.3869 13.3489 15.812 13.546ZM19.8526 12.5083V11.5139C20.4274 11.3167 20.8461 10.7045 20.8461 9.97985C20.8461 9.25521 20.4274 8.64125 19.8526 8.44582V8.13279H19.0583V8.44582C18.4834 8.64298 18.0649 9.25521 18.0649 9.97985C18.0649 10.7045 18.4834 11.3185 19.0583 11.5139V12.5083C18.4834 12.7055 18.0649 13.3177 18.0649 14.0424C18.0649 14.767 18.4834 15.381 19.0583 15.5764V15.8894H19.8526V15.5764C20.4274 15.3792 20.8461 14.767 20.8461 14.0424C20.8461 13.3177 20.4274 12.7055 19.8526 12.5083ZM11.2283 11.106C11.2432 11.1423 11.2525 11.1804 11.2599 11.2202C11.3092 11.4948 11.4741 11.6935 11.6538 11.9099C11.9221 12.233 12.2232 12.5956 12.2198 13.3094C12.2198 14.5252 11.3399 15.4833 9.54285 15.4833H8.80616C8.8043 15.4884 8.50107 15.888 7.87787 15.888C7.56534 15.8983 7.42954 15.8845 7.42954 15.8845C6.86422 15.8629 6.57932 15.5134 6.55499 15.4835C6.55402 15.4824 6.55347 15.4817 6.55332 15.4815H5.81664C4.01957 15.4815 3.13965 14.5234 3.13965 13.3076C3.13965 12.5935 3.44142 12.2312 3.71011 11.9086C3.89043 11.6921 4.05584 11.4935 4.10515 11.2184C4.11259 11.1804 4.12376 11.1423 4.13678 11.1043C4.13119 11.0974 2.89781 9.49588 4.04004 8.50663C5.17188 7.52637 6.49188 8.78428 6.52303 8.81397C6.52296 8.8139 6.52331 8.81424 6.52303 8.81397C6.73325 8.75344 6.94585 8.71589 7.15606 8.6986C7.15606 8.6986 7.76625 8.63115 8.20156 8.6986H8.20343C8.4155 8.71589 8.62943 8.75394 8.84151 8.81621C8.84123 8.81647 8.84158 8.81614 8.84151 8.81621C8.87235 8.78681 10.1931 7.52798 11.3251 8.50836C12.445 9.47674 11.2849 11.0301 11.2303 11.1034C11.2291 11.1049 11.2284 11.1058 11.2283 11.106Z" fill="white"/>
</svg>
