<svg width="24" height="24" viewBox="0 0 24 24" fill="none" xmlns="http://www.w3.org/2000/svg">
<g clip-path="url(#clip0_10462_20748)">
<path d="M17.6909 8.52617H15.8415C15.6277 8.52617 15.4227 8.43453 15.2788 8.27305L14.5286 7.42643C14.4151 7.29987 14.2581 7.22568 14.088 7.22568C13.9179 7.22568 13.7609 7.29987 13.6475 7.42643L13.0019 8.15522C12.7926 8.39088 12.4872 8.53054 12.1732 8.53054H2.04941C1.76153 9.34662 1.57397 10.2151 1.49982 11.1184H11.0566C11.2267 11.1184 11.3837 11.0486 11.5015 10.9264L12.3913 9.99686C12.5003 9.87903 12.6573 9.81357 12.8144 9.81357H12.8493C13.0194 9.81357 13.1764 9.88776 13.2898 10.0143L14.04 10.8609C14.184 11.0224 14.389 11.1141 14.6027 11.1141H22.4016C22.3275 10.2151 22.1399 9.34225 21.852 8.52181L17.6909 8.52617Z" fill="black"/>
<path d="M7.28356 16.5648C7.45367 16.5648 7.6107 16.495 7.72847 16.3728L8.61828 15.4432C8.73168 15.3254 8.88435 15.2599 9.04573 15.2599H9.08063C9.25074 15.2599 9.41213 15.3341 9.52117 15.4563L10.2714 16.3029C10.4153 16.4644 10.6203 16.5561 10.8341 16.5561H21.4071C21.804 15.7356 22.0919 14.8584 22.2664 13.9376H12.1164C11.9027 13.9376 11.6977 13.846 11.5538 13.6845L10.8035 12.8466C10.6901 12.72 10.5331 12.6502 10.363 12.6502C10.1929 12.6502 10.0315 12.7244 9.92246 12.8466L9.27691 13.5754C9.06754 13.8154 8.76222 13.9507 8.4438 13.9507H1.64374C1.81821 14.8715 2.10609 15.7487 2.50301 16.5691L7.28356 16.5648Z" fill="black"/>
<path d="M14.7815 5.69387C14.9516 5.69387 15.1086 5.62405 15.2264 5.50185L16.1162 4.57231C16.2253 4.45448 16.3823 4.38902 16.5437 4.38902H16.5786C16.7487 4.38902 16.9057 4.46321 17.0191 4.58976L17.7694 5.44076C17.9133 5.60223 18.1183 5.69387 18.332 5.69387H20.3428C18.428 3.14526 15.3834 1.5 11.9551 1.5C8.52667 1.5 5.47776 3.14526 3.56293 5.69387H14.7815Z" fill="black"/>
<path d="M10.7469 19.1614H7.99892C7.78519 19.1614 7.58018 19.0697 7.43624 18.9083L6.68601 18.0616C6.57261 17.9351 6.41558 17.8653 6.24547 17.8653C6.07536 17.8653 5.91397 17.9395 5.80493 18.0616L5.15938 18.7904C4.95001 19.0305 4.64468 19.1658 4.32627 19.1658H4.28265C6.19749 21.2169 8.92362 22.5043 11.9551 22.5043C14.9865 22.5043 17.7083 21.2169 19.6275 19.1658L10.7469 19.1614Z" fill="black"/>
</g>
<defs>
<clipPath id="clip0_10462_20748">
<rect width="20.9062" height="20.9999" fill="white" transform="translate(1.49982 1.5)"/>
</clipPath>
</defs>
</svg>
