<svg width="24" height="24" viewBox="0 0 24 24" fill="none" xmlns="http://www.w3.org/2000/svg">
<path fill-rule="evenodd" clip-rule="evenodd" d="M19.5 0H4.5C2.01472 0 0 2.01472 0 4.5V19.5C0 21.9853 2.01472 24 4.5 24H19.5C21.9853 24 24 21.9853 24 19.5V4.5C24 2.01472 21.9853 0 19.5 0ZM5.98343 7.62937C6.10967 7.545 6.2581 7.5 6.40995 7.5C6.61343 7.5 6.80858 7.58078 6.95252 7.72463C7.09646 7.8684 7.17741 8.06355 7.17757 8.26702C7.17769 8.41883 7.13278 8.56733 7.04851 8.69363C6.96424 8.81993 6.84439 8.9184 6.70414 8.9766C6.56389 9.0348 6.40953 9.0501 6.26058 9.02055C6.11164 8.991 5.9748 8.91795 5.86738 8.81063C5.75997 8.7033 5.6868 8.5665 5.65713 8.41763C5.62746 8.26867 5.64262 8.11432 5.70071 7.974C5.75878 7.83367 5.85718 7.71375 5.98343 7.62937ZM4.37138 7.5816H3V15.879H4.37138V7.5816ZM21.5438 9.9555C21.0684 10.9745 20.5079 11.9516 19.8684 12.8765L21.75 15.8747H20.13L18.9736 14.0248C17.8116 15.3494 16.6608 15.9974 15.5511 15.9974C14.1997 15.9974 13.647 15.0317 13.647 13.9319C13.647 13.7926 13.6481 13.6363 13.6491 13.4901C13.65 13.3619 13.6508 13.2411 13.6508 13.1469C13.6508 11.6976 13.4981 11.2901 13.009 11.3525C12.0688 11.4789 10.6419 13.6192 9.71238 15.8747H8.42261V9.9555H9.79331V12.917C10.5759 11.5973 11.2912 10.4664 12.4452 10.0303C13.1162 9.77543 13.68 9.88635 13.9741 10.016C15.0377 10.4852 15.0359 11.6297 15.0215 13.1643C15.0178 13.3668 15.0178 13.5836 15.0178 13.8155C15.0178 14.3718 15.1717 14.6161 15.5505 14.6534C15.7761 14.6728 16.0021 14.6228 16.1985 14.5102V7.5816H17.5692V13.5195C17.5692 13.5195 18.7581 12.4322 20.0154 9.9555H21.5438ZM5.72412 9.95865H7.0955V15.8797H5.72412V9.95865Z" fill="white"/>
</svg>
