<svg width="24" height="24" viewBox="0 0 24 24" fill="none" xmlns="http://www.w3.org/2000/svg">
<path d="M13.7497 21.7498C12.3582 21.7498 11.3426 21.4147 10.7028 20.7444C10.1101 20.1769 9.7662 19.398 9.74618 18.5777C9.73898 18.3285 9.79673 18.0817 9.91376 17.8616C10.0229 17.6714 10.1806 17.5136 10.3707 17.4043C10.5917 17.2941 10.8352 17.2367 11.0822 17.2367C11.3291 17.2367 11.5726 17.2941 11.7936 17.4043C11.9834 17.5132 12.1403 17.6711 12.248 17.8616C12.3684 18.0807 12.4283 18.3278 12.4216 18.5777C12.434 18.8761 12.3484 19.1704 12.1779 19.4156C12.0357 19.6157 11.8325 19.7644 11.5987 19.8394C11.8273 20.1304 12.1508 20.3321 12.5128 20.4092C12.9178 20.5268 13.3372 20.5873 13.7589 20.5889C14.3172 20.5938 14.8641 20.4303 15.3281 20.1197C15.8094 19.7796 16.1684 19.2935 16.3518 18.7334C16.5843 18.0668 16.6977 17.3645 16.6869 16.6586C16.7057 15.9226 16.5815 15.19 16.3213 14.5013C16.1256 13.9505 15.7541 13.4794 15.2641 13.1607C14.8086 12.8725 14.2799 12.7213 13.7409 12.725C13.2713 12.7648 12.8184 12.9186 12.4216 13.1729L11.4433 13.6634V13.1729L15.8399 7.27486H9.74618V13.3954C9.72897 13.837 9.84581 14.2736 10.0813 14.6476C10.1953 14.8106 10.3494 14.9414 10.5288 15.0273C10.7081 15.1133 10.9066 15.1514 11.1051 15.1381C11.4717 15.1307 11.8263 15.0057 12.1165 14.7817C12.4456 14.5405 12.7319 14.246 12.9636 13.9102C12.9845 13.8513 13.0229 13.8003 13.0738 13.7641C13.1146 13.7288 13.1667 13.7093 13.2207 13.7092C13.3265 13.7189 13.4267 13.7615 13.5071 13.831C13.6089 13.9448 13.6644 14.0927 13.6624 14.2454C13.6507 14.348 13.6324 14.4498 13.6076 14.5501C13.3911 15.074 13.0283 15.5245 12.5625 15.8476C12.1298 16.1403 11.6189 16.2956 11.0965 16.2929C9.77715 16.2929 8.86316 16.0329 8.35451 15.5129C8.09306 15.2255 7.89156 14.8888 7.76181 14.5226C7.63207 14.1564 7.57667 13.768 7.59887 13.3801V7.27486H4.49945V6.13768H7.61331V3.54479L6.9004 2.83139V2.24994H8.96913L9.74618 2.65218V6.13768L17.7959 6.11319L18.5973 6.91755L13.6613 11.8775C13.9595 11.7576 14.2736 11.6816 14.5936 11.652C15.2271 11.6797 15.8451 11.8562 16.3977 12.167C17.0376 12.4711 17.5769 12.9524 17.9517 13.5538C18.2875 14.0628 18.5251 14.6301 18.6525 15.2265C18.7572 15.6969 18.8133 16.1768 18.8201 16.6587C18.8233 17.5783 18.6148 18.4863 18.2107 19.3124C17.8275 20.1123 17.1825 20.7574 16.3825 21.1406C15.5637 21.5441 14.6626 21.7526 13.7497 21.7498Z" fill="white"/>
</svg>
