<svg width="78" height="24" viewBox="0 0 78 24" fill="none" xmlns="http://www.w3.org/2000/svg">
<path d="M9.41316 1.84616H3.41316C3.02854 1.84616 2.64393 2.15385 2.567 2.53847L0.182389 17.9231C0.105466 18.2308 0.336235 18.4615 0.643928 18.4615H3.49008C3.8747 18.4615 4.25931 18.1539 4.33624 17.7692L4.95162 13.6154C5.02854 13.2308 5.33624 12.9231 5.79777 12.9231H7.72085C11.6439 12.9231 13.9516 11 14.567 7.23078C14.7978 5.61539 14.567 4.3077 13.7978 3.38462C12.9516 2.38462 11.4132 1.84616 9.41316 1.84616ZM10.1055 7.46155C9.79777 9.61539 8.10547 9.61539 6.567 9.61539H5.64393L6.25931 5.61539C6.25931 5.38462 6.49008 5.23078 6.72085 5.23078H7.10547C8.18239 5.23078 9.18239 5.23078 9.72085 5.84616C10.1055 6.15385 10.2593 6.69232 10.1055 7.46155Z" fill="white"/>
<path d="M27.2593 7.38462H24.4131C24.1824 7.38462 23.9516 7.53846 23.9516 7.76923L23.7978 8.53846L23.567 8.23077C22.9516 7.30769 21.567 7 20.1824 7C17.0285 7 14.3362 9.38461 13.7978 12.7692C13.4901 14.4615 13.8747 16.0769 14.8747 17.1538C15.7208 18.1538 17.0285 18.6154 18.4901 18.6154C21.0285 18.6154 22.4901 17 22.4901 17L22.3362 17.7692C22.2593 18.0769 22.4901 18.3846 22.7978 18.3846H25.4131C25.7978 18.3846 26.1824 18.0769 26.2593 17.6923L27.7978 7.84615C27.8747 7.69231 27.567 7.38462 27.2593 7.38462ZM23.3362 12.9231C23.0285 14.5385 21.7978 15.6923 20.1055 15.6923C19.2593 15.6923 18.6439 15.4615 18.1824 14.9231C17.7208 14.3846 17.567 13.6923 17.7208 12.9231C17.9516 11.3077 19.3362 10.1538 20.9516 10.1538C21.7978 10.1538 22.4131 10.4615 22.8747 10.9231C23.2593 11.4615 23.4131 12.1538 23.3362 12.9231Z" fill="white"/>
<path d="M42.5669 7.38461H39.7207C39.413 7.38461 39.1823 7.53846 39.0284 7.76923L35.0284 13.6154L33.3361 8C33.2592 7.61538 32.8746 7.38461 32.5669 7.38461H29.7207C29.413 7.38461 29.1053 7.69231 29.2592 8.07692L32.413 17.3846L29.413 21.5385C29.1823 21.8462 29.413 22.3077 29.7976 22.3077H32.6438C32.9515 22.3077 33.1823 22.1538 33.3361 21.9231L42.9515 8.07692C43.1823 7.84615 42.9515 7.38461 42.5669 7.38461Z" fill="white"/>
<path d="M52.1053 1.84616H46.1053C45.7207 1.84616 45.3361 2.15385 45.2591 2.53847L42.8745 17.8462C42.7976 18.1539 43.0284 18.3846 43.3361 18.3846H46.413C46.7207 18.3846 46.9515 18.1539 46.9515 17.9231L47.6438 13.5385C47.7207 13.1539 48.0284 12.8462 48.4899 12.8462H50.413C54.3361 12.8462 56.6438 10.9231 57.2591 7.15385C57.4899 5.53847 57.2591 4.23078 56.4899 3.3077C55.5668 2.38462 54.1053 1.84616 52.1053 1.84616ZM52.7976 7.46154C52.4899 9.61539 50.7976 9.61539 49.2591 9.61539H48.3361L48.9515 5.61539C48.9515 5.38462 49.1822 5.23078 49.413 5.23078H49.7976C50.8745 5.23078 51.8745 5.23078 52.413 5.84616C52.7976 6.15385 52.8745 6.69231 52.7976 7.46154Z" fill="white"/>
<path d="M69.9514 7.38462H67.1053C66.8745 7.38462 66.6437 7.53846 66.6437 7.76923L66.4899 8.53846L66.2591 8.23077C65.6437 7.30769 64.2591 7 62.8745 7C59.7207 7 57.0284 9.38461 56.4899 12.7692C56.1822 14.4615 56.5668 16.0769 57.5668 17.1538C58.413 18.1538 59.7207 18.6154 61.1822 18.6154C63.7207 18.6154 65.1822 17 65.1822 17L65.0284 17.7692C64.9514 18.0769 65.1822 18.3846 65.4899 18.3846H68.1053C68.4899 18.3846 68.8745 18.0769 68.9514 17.6923L70.4899 7.84615C70.4899 7.69231 70.2591 7.38462 69.9514 7.38462ZM65.9514 12.9231C65.6437 14.5385 64.413 15.6923 62.7207 15.6923C61.8745 15.6923 61.2591 15.4615 60.7976 14.9231C60.3361 14.3846 60.1822 13.6923 60.3361 12.9231C60.5668 11.3077 61.9514 10.1538 63.5668 10.1538C64.413 10.1538 65.0284 10.4615 65.4899 10.9231C65.9514 11.4615 66.1053 12.1538 65.9514 12.9231Z" fill="white"/>
<path d="M73.3363 2.23078L70.8748 17.8462C70.7978 18.1539 71.0286 18.3846 71.3363 18.3846H73.7978C74.1825 18.3846 74.5671 18.0769 74.644 17.6923L77.1055 2.38462C77.1825 2.07693 76.9517 1.84616 76.644 1.84616H73.8748C73.5671 1.84616 73.4132 2.00001 73.3363 2.23078Z" fill="white"/>
</svg>
