<svg width="24" height="24" viewBox="0 0 24 24" fill="none" xmlns="http://www.w3.org/2000/svg">
<path d="M10.8071 13.1924L10.8069 14.3849C10.8069 15.0374 10.2669 15.5774 9.61436 15.5774C8.96186 15.5774 8.42186 15.0374 8.42186 14.3849C8.42186 13.7324 8.96186 13.1924 9.61436 13.1924L10.8071 13.1924Z" fill="white"/>
<path fill-rule="evenodd" clip-rule="evenodd" d="M11.9993 23.2499C18.2125 23.2499 23.2493 18.2131 23.2493 12C23.2493 5.78678 18.2125 0.75 11.9993 0.75C5.78617 0.75 0.74939 5.78678 0.74939 12C0.74939 18.2131 5.78617 23.2499 11.9993 23.2499ZM17.1519 10.0199H13.9796V9.61497C13.9796 8.96247 14.5196 8.42247 15.1721 8.42247H18.7496V5.24997H15.1721C12.7646 5.24997 10.8071 7.20747 10.8071 9.61497V10.0199H13.9796V13.1924H17.1519V10.0199ZM13.9796 13.1924H10.8071V10.0199H9.61436C7.20686 10.0199 5.24936 11.9774 5.24936 14.3849C5.24936 16.7924 7.20686 18.7499 9.61436 18.7499C12.0219 18.7499 13.9794 16.7924 13.9794 14.3849L13.9796 13.1924Z" fill="white"/>
</svg>
