<svg width="24" height="24" viewBox="0 0 24 24" fill="none" xmlns="http://www.w3.org/2000/svg">
<path d="M17.1171 3C16.089 2.9992 15.1026 3.40748 14.3744 4.13523C13.6462 4.86297 13.2357 5.85071 13.2331 6.88162V11.1854C12.8331 11.2125 12.4241 11.2295 12.0001 11.2295C11.5761 11.2295 11.1691 11.2466 10.7671 11.2706V6.88162C10.7507 5.85965 10.3344 4.88508 9.60788 4.16817C8.88136 3.45125 7.90291 3.04946 6.88361 3.04946C5.8643 3.04946 4.88585 3.45125 4.15934 4.16817C3.43282 4.88508 3.01648 5.85965 3.00012 6.88162V17.1678C3.01648 18.1897 3.43282 19.1643 4.15934 19.8812C4.88585 20.5981 5.8643 20.9999 6.88361 20.9999C7.90291 20.9999 8.88136 20.5981 9.60788 19.8812C10.3344 19.1643 10.7507 18.1897 10.7671 17.1678V12.864C11.1671 12.8369 11.5761 12.8199 12.0001 12.8199C12.4241 12.8199 12.8311 12.8028 13.2331 12.7788V17.1678C13.2494 18.1897 13.6658 19.1643 14.3923 19.8812C15.1188 20.5981 16.0973 20.9999 17.1166 20.9999C18.1359 20.9999 19.1143 20.5981 19.8408 19.8812C20.5674 19.1643 20.9837 18.1897 21.0001 17.1678V6.88162C20.9974 5.85088 20.5871 4.8633 19.8591 4.13558C19.1311 3.40787 18.145 2.99947 17.1171 3ZM6.88311 4.59035C7.48985 4.59008 8.07192 4.83118 8.50161 5.26073C8.9313 5.69028 9.17351 6.27321 9.1751 6.88162V11.4391C8.03888 11.6042 6.92933 11.9187 5.87511 12.3746C5.41835 12.5757 4.98836 12.833 4.59512 13.1407V6.88162C4.5967 6.27391 4.83836 5.69158 5.26719 5.26214C5.69601 4.83271 6.27706 4.59115 6.88311 4.59035ZM9.1751 17.1678C9.1751 17.7773 8.93362 18.3619 8.50379 18.7929C8.07396 19.2239 7.49098 19.4661 6.88311 19.4661C6.27523 19.4661 5.69226 19.2239 5.26242 18.7929C4.83259 18.3619 4.59112 17.7773 4.59112 17.1678V16.1359C4.59112 15.2244 5.31111 14.3611 6.51811 13.8236C7.36858 13.4557 8.26094 13.194 9.1751 13.0445V17.1678ZM17.1171 19.459C16.5103 19.4593 15.9283 19.2182 15.4986 18.7887C15.0689 18.3591 14.8267 17.7762 14.8251 17.1678V12.6103C15.9613 12.4452 17.0708 12.1306 18.1251 11.6747C18.5818 11.4737 19.0118 11.2164 19.4051 10.9086V17.1678C19.4035 17.7755 19.1618 18.3578 18.733 18.7872C18.3042 19.2167 17.7231 19.4582 17.1171 19.459ZM17.4821 10.2198C16.6316 10.5877 15.7392 10.8494 14.8251 10.9989V6.88162C14.8251 6.27208 15.0666 5.6875 15.4964 5.25649C15.9262 4.82547 16.5092 4.58333 17.1171 4.58333C17.7249 4.58333 18.3079 4.82547 18.7378 5.25649C19.1676 5.6875 19.4091 6.27208 19.4091 6.88162V7.91344C19.4091 8.82093 18.6891 9.68429 17.4821 10.2198Z" fill="white"/>
</svg>
