<svg width="24" height="24" viewBox="0 0 24 24" fill="none" xmlns="http://www.w3.org/2000/svg">
<path d="M21.1136 17.6079C21.1172 17.1147 22.9982 17.1358 22.9853 16.6748C22.9761 16.3194 22.1431 16.3276 22.4049 15.5754C22.7906 14.455 23 13.2518 23 12C23 5.9246 18.0736 1 12 1C5.92461 1 1.00001 5.9246 1.00001 12C0.998751 13.2449 1.20932 14.481 1.6227 15.6553C1.77883 16.154 1.00184 16.3497 1.00184 16.6472C1.00184 17.1138 2.63848 17.0513 2.63848 17.5932C2.63848 18.0671 1.02113 18.2122 1.02113 18.6898C1.02113 19.3483 4.60391 19.1187 4.64892 19.6854C4.68473 20.1235 3.41822 20.1492 3.40996 20.6167C3.39802 21.3624 8.30058 21.1181 8.30058 21.615C8.30058 21.9906 6.07064 21.8547 6.07064 22.2983C6.07064 22.7419 9.00593 23.0239 12.2406 23.0239C15.4753 23.0239 17.708 22.6639 17.708 22.2744C17.708 21.8859 15.625 21.9668 15.6682 21.615C15.7435 21.0024 20.365 21.3156 20.365 20.6075C20.365 20.2337 19.0939 20.1464 19.1343 19.7442C19.1931 19.1747 23 19.2602 23 18.6696C23 18.2058 21.1145 18.091 21.1163 17.6097L21.1136 17.6079ZM18.1654 16.1788C18.0644 16.5545 19.2234 16.6105 19.2234 17.0027C19.2234 17.4793 15.6893 17.2892 15.7242 17.9202C15.7463 18.3169 18.2352 18.384 18.1874 18.7991C18.1195 19.3998 14.3337 19.1004 14.2961 19.6753C14.2685 20.0978 16.1439 20.1115 16.1476 20.4964C16.1513 20.8206 14.6745 20.9969 11.8494 20.9969C8.62846 20.9969 7.06438 20.8233 7.24163 20.4615C7.40787 20.1235 10.2587 20.1859 10.2302 19.6542C10.2008 19.1233 5.16783 19.2804 5.01537 18.7651C4.88954 18.3371 6.66945 18.249 6.65843 17.8421C6.64649 17.4279 4.37798 17.5216 4.32838 17.0201C4.29624 16.6895 5.51407 16.7115 5.46172 16.2964C5.42315 15.9952 4.91985 16.0374 4.62228 15.4147C4.04865 14.1764 3.79613 12.8135 3.88804 11.4518C3.97994 10.0902 4.41331 8.77361 5.14815 7.62358C5.88299 6.47355 6.89563 5.52712 8.09265 4.8716C9.28966 4.21609 10.6325 3.8726 11.9972 3.87284C13.3351 3.87251 14.6524 4.20251 15.8321 4.83355C17.0118 5.46458 18.0175 6.37713 18.7598 7.49018C19.5022 8.60323 19.9582 9.88234 20.0875 11.214C20.2167 12.5456 20.0152 13.8885 19.5008 15.1236C19.1196 15.9887 18.2609 15.8151 18.1626 16.1798H18.1645L18.1654 16.1788Z" fill="#07D3BA"/>
</svg>
