<svg width="24" height="24" viewBox="0 0 24 24" fill="none" xmlns="http://www.w3.org/2000/svg">
<g clip-path="url(#clip0_10462_20730)">
<path d="M11.9998 23.2499C18.213 23.2499 23.2498 18.2131 23.2498 12C23.2498 5.78678 18.213 0.75 11.9998 0.75C5.78665 0.75 0.749878 5.78678 0.749878 12C0.749878 18.2131 5.78665 23.2499 11.9998 23.2499Z" fill="#FF1256"/>
<path d="M9.23654 7.93013L11.3118 6.64891C11.4945 6.54576 11.4945 6.33202 11.3628 6.20154L9.62924 4.52513C9.59568 4.49158 9.53976 4.49158 9.50621 4.52513L9.34217 4.69041C9.13216 4.90167 9.1334 5.24217 9.34466 5.45219L10.0219 6.07727C10.1375 6.1916 10.1151 6.38297 9.97719 6.46872L9.1682 6.96455C8.91593 7.11989 8.83764 7.45169 8.99422 7.70396L9.116 7.90155C9.14086 7.94256 9.19554 7.95498 9.23654 7.93013Z" fill="white"/>
<path d="M11.2398 14.8022C11.41 14.0653 11.2087 13.2911 10.6992 12.7306L9.38819 11.2444C8.65872 10.4167 8.83891 9.13426 9.76845 8.54026L11.9133 7.16956C12.0513 7.08133 12.2327 7.09748 12.3533 7.20808C13.1374 7.93133 15.8676 10.5385 15.7458 13.2314C15.7458 13.2314 15.7495 17.4131 11.6312 18.9777C11.0261 19.2076 10.4134 18.6546 10.5725 18.027C11.1416 15.7728 11.241 14.801 11.241 14.801L11.2398 14.8022ZM11.7766 8.36379C11.4486 8.57132 10.8136 8.97396 10.2717 9.31818C9.90888 9.54808 9.83556 10.0464 10.1164 10.372L11.4871 11.9564C12.2725 12.8201 12.5844 14.0131 12.3209 15.1514L12.091 16.1592C11.9916 16.5967 12.5073 16.9024 12.8478 16.6091C14.2919 15.3627 16.3162 12.3665 12.0935 8.39486C12.0078 8.31408 11.8773 8.30166 11.7766 8.36504V8.36379Z" fill="white"/>
</g>
<defs>
<clipPath id="clip0_10462_20730">
<rect width="22.4999" height="22.4999" fill="white" transform="translate(0.749878 0.75)"/>
</clipPath>
</defs>
</svg>
