<svg width="35" height="24" viewBox="0 0 35 24" fill="none" xmlns="http://www.w3.org/2000/svg">
<mask id="mask0_8945_141" style="mask-type:alpha" maskUnits="userSpaceOnUse" x="0" y="0" width="35" height="24">
<rect width="35" height="24" fill="#016FD0"/>
</mask>
<g mask="url(#mask0_8945_141)">
<rect width="35" height="24" rx="4" fill="#016FD0"/>
<path d="M6.80798 18.3608V12.8545H12.6381L13.2636 13.6699L13.9098 12.8545H35.0717V17.981C35.0717 17.981 34.5182 18.3553 33.8782 18.3608H22.1604L21.4552 17.4928V18.3608H19.1442V16.8791C19.1442 16.8791 18.8285 17.0859 18.146 17.0859H17.3594V18.3608H13.8603L13.2357 17.5278L12.6015 18.3608H6.80798Z" fill="white"/>
<path d="M0 8.70446L1.31471 5.6394H3.58837L4.33449 7.35633V5.6394H7.16086L7.60502 6.88034L8.03562 5.6394H20.7231V6.26327C20.7231 6.26327 21.3901 5.6394 22.4862 5.6394L26.6028 5.65379L27.336 7.34824V5.6394H29.7013L30.3523 6.61273V5.6394H32.7392V11.1457H30.3523L29.7284 10.1692V11.1457H26.2533L25.9039 10.2777H24.9696L24.6259 11.1457H22.2692C21.326 11.1457 20.7231 10.5345 20.7231 10.5345V11.1457H17.1698L16.4645 10.2777V11.1457H3.25154L2.90232 10.2777H1.97108L1.62432 11.1457H0V8.70446Z" fill="white"/>
<path d="M1.77912 6.31799L0.00585938 10.4409H1.16034L1.48753 9.61531H3.38963L3.71513 10.4409H4.89504L3.12348 6.31799H1.77912ZM2.43519 7.27752L3.01498 8.72021H1.85371L2.43519 7.27752Z" fill="#016FD0"/>
<path d="M5.01721 10.4399V6.31702L6.6578 6.32311L7.61202 8.98131L8.54339 6.31702H10.1709V10.4399H9.14013V7.402L8.04753 10.4399H7.14358L6.04794 7.402V10.4399H5.01721Z" fill="#016FD0"/>
<path d="M10.8768 10.44V6.31702H14.2403V7.23926H11.9184V7.9445H14.186V8.81249H11.9184V9.54486H14.2403V10.44H10.8768Z" fill="#016FD0"/>
<path d="M14.8362 6.31799V10.4409H15.8669V8.97621H16.3009L17.5368 10.4409H18.7964L17.4402 8.92197C17.9968 8.875 18.5709 8.39727 18.5709 7.65558C18.5709 6.78797 17.8899 6.31799 17.1299 6.31799H14.8362ZM15.8669 7.24023H17.0452C17.3278 7.24023 17.5334 7.46132 17.5334 7.67423C17.5334 7.94814 17.267 8.10822 17.0604 8.10822H15.8669V7.24023Z" fill="#016FD0"/>
<path d="M20.0456 10.44H18.9932V6.31702H20.0456V10.44Z" fill="#016FD0"/>
<path d="M22.5408 10.44H22.3136C21.2145 10.44 20.5471 9.57402 20.5471 8.39545C20.5471 7.18776 21.207 6.31702 22.595 6.31702H23.7343V7.29351H22.5534C21.9899 7.29351 21.5914 7.73323 21.5914 8.40562C21.5914 9.20408 22.0471 9.53943 22.7035 9.53943H22.9748L22.5408 10.44Z" fill="#016FD0"/>
<path d="M24.7845 6.31799L23.0112 10.4409H24.1657L24.4929 9.61531H26.395L26.7205 10.4409H27.9004L26.1288 6.31799H24.7845ZM25.4406 7.27752L26.0203 8.72021H24.8591L25.4406 7.27752Z" fill="#016FD0"/>
<path d="M28.0195 10.44V6.31702H29.33L31.0032 8.90743V6.31702H32.034V10.44H30.7659L29.0503 7.78175V10.44H28.0195Z" fill="#016FD0"/>
<path d="M7.51355 17.6555V13.5326H10.877V14.4548H8.55514V15.1601H10.8228V16.0281H8.55514V16.7604H10.877V17.6555H7.51355Z" fill="#016FD0"/>
<path d="M23.9937 17.6555V13.5326H27.3571V14.4548H25.0352V15.1601H27.292V16.0281H25.0352V16.7604H27.3571V17.6555H23.9937Z" fill="#016FD0"/>
<path d="M11.0079 17.6555L12.6455 15.6195L10.9689 13.5326H12.2675L13.266 14.8227L14.2679 13.5326H15.5156L13.861 15.5941L15.5017 17.6555H14.2033L13.2338 16.3857L12.2878 17.6555H11.0079Z" fill="#016FD0"/>
<path d="M15.6229 13.5331V17.656H16.6808V16.3541H17.7658C18.6838 16.3541 19.3797 15.867 19.3797 14.9198C19.3797 14.1352 18.8339 13.5331 17.8997 13.5331H15.6229ZM16.6808 14.4655H17.8234C18.12 14.4655 18.332 14.6473 18.332 14.9402C18.332 15.2153 18.1211 15.4149 17.82 15.4149H16.6808V14.4655Z" fill="#016FD0"/>
<path d="M19.8279 13.5326V17.6555H20.8586V16.1908H21.2926L22.5285 17.6555H23.7881L22.4319 16.1366C22.9885 16.0896 23.5626 15.6119 23.5626 14.8702C23.5626 14.0026 22.8816 13.5326 22.1216 13.5326H19.8279ZM20.8586 14.4548H22.0368C22.3195 14.4548 22.5251 14.6759 22.5251 14.8888C22.5251 15.1627 22.2587 15.3228 22.0521 15.3228H20.8586V14.4548Z" fill="#016FD0"/>
<path d="M27.8353 17.6555V16.7604H29.8982C30.2034 16.7604 30.3356 16.5955 30.3356 16.4146C30.3356 16.2413 30.2038 16.066 29.8982 16.066H28.966C28.1557 16.066 27.7045 15.5724 27.7045 14.8312C27.7045 14.1701 28.1177 13.5326 29.3218 13.5326H31.329L30.895 14.4603H29.159C28.8272 14.4603 28.725 14.6344 28.725 14.8007C28.725 14.9716 28.8513 15.1601 29.1048 15.1601H30.0813C30.9845 15.1601 31.3765 15.6724 31.3765 16.3434C31.3765 17.0647 30.9397 17.6555 30.0321 17.6555H27.8353Z" fill="#016FD0"/>
<path d="M31.6175 17.6555V16.7604H33.6803C33.9855 16.7604 34.1177 16.5955 34.1177 16.4146C34.1177 16.2413 33.9859 16.066 33.6803 16.066H32.7481C31.9378 16.066 31.4866 15.5724 31.4866 14.8312C31.4866 14.1701 31.8998 13.5326 33.1039 13.5326H35.0701L34.6771 14.4603H32.9411C32.6093 14.4603 32.5071 14.6344 32.5071 14.8007C32.5071 14.9716 32.6334 15.1601 32.8869 15.1601H33.8634C34.7666 15.1601 35.1586 15.6724 35.1586 16.3434C35.1586 17.0647 34.7218 17.6555 33.8142 17.6555H31.6175Z" fill="#016FD0"/>
</g>
</svg>
