<svg width="24" height="24" viewBox="0 0 24 24" fill="none" xmlns="http://www.w3.org/2000/svg">
<g clip-path="url(#clip0_11434_22214)">
<path d="M12 24C18.65 24 24 18.65 24 12C24 5.34996 18.65 0 12 0C5.34996 0 0 5.34996 0 12C0 18.65 5.34996 24 12 24Z" fill="#2775CA"/>
<path d="M15.7 13.8C15.7 12.05 14.65 11.45 12.55 11.2001C11.05 11 10.75 10.6001 10.75 9.9C10.75 9.19992 11.25 8.75004 12.25 8.75004C13.15 8.75004 13.65 9.05004 13.9 9.80004C13.95 9.95004 14.1 10.05 14.25 10.05H15.0499C15.25 10.05 15.4 9.9 15.4 9.70008V9.65004C15.1999 8.55 14.2999 7.70004 13.15 7.60008V6.40008C13.15 6.20004 13 6.05004 12.75 6H12C11.8 6 11.65 6.15 11.5999 6.40008V7.55004C10.0999 7.75008 9.15 8.75004 9.15 10.0001C9.15 11.6501 10.15 12.3 12.25 12.5501C13.65 12.8 14.1 13.1 14.1 13.9001C14.1 14.7001 13.3999 15.2501 12.45 15.2501C11.1499 15.2501 10.6999 14.7 10.5499 13.95C10.5 13.7501 10.35 13.65 10.2 13.65H9.34992C9.15 13.65 9 13.8 9 14V14.0501C9.19992 15.3 9.99996 16.2 11.65 16.4501V17.6501C11.65 17.85 11.8 18 12.0499 18.05H12.7999C13 18.05 13.15 17.9 13.2 17.6501V16.4501C14.7 16.2 15.7 15.15 15.7 13.8Z" fill="white"/>
<path d="M9.47441 18.65C5.57441 17.25 3.57437 12.9 5.02445 9.04996C5.77445 6.94996 7.42445 5.35 9.47441 4.6C9.67445 4.50004 9.77441 4.35004 9.77441 4.09996V3.4C9.77441 3.19996 9.67445 3.04996 9.47441 3.00004C9.42437 3.00004 9.32441 3.00004 9.27437 3.04996C4.52441 4.54996 1.92437 9.60004 3.42437 14.35C4.32437 17.15 6.47441 19.3 9.27437 20.2C9.47441 20.3 9.67445 20.2 9.72437 20C9.77441 19.95 9.77441 19.9 9.77441 19.8V19.1C9.77441 18.95 9.62441 18.75 9.47441 18.65ZM14.7745 3.04996C14.5744 2.95 14.3744 3.04996 14.3245 3.25C14.2744 3.30004 14.2744 3.34996 14.2744 3.45004V4.15C14.2744 4.35004 14.4244 4.54996 14.5744 4.65004C18.4744 6.04996 20.4745 10.4 19.0244 14.25C18.2744 16.35 16.6244 17.95 14.5744 18.7C14.3744 18.8 14.2744 18.95 14.2744 19.2V19.9C14.2744 20.1 14.3744 20.25 14.5744 20.3C14.6245 20.3 14.7244 20.3 14.7745 20.25C19.5244 18.75 22.1245 13.7 20.6245 8.95C19.7245 6.1 17.5244 3.94996 14.7745 3.04996Z" fill="white"/>
</g>
<defs>
<clipPath id="clip0_11434_22214">
<rect width="24" height="24" fill="white"/>
</clipPath>
</defs>
</svg>
