<svg width="24" height="24" viewBox="0 0 24 24" fill="none" xmlns="http://www.w3.org/2000/svg">
<g clip-path="url(#clip0_11434_22229)">
<rect width="24" height="24" rx="12" fill="#FE0420"/>
<g clip-path="url(#clip1_11434_22229)">
<path d="M11.9992 30C21.9404 30 29.9992 21.9411 29.9992 12C29.9992 2.05888 21.9404 -6 11.9992 -6C2.05811 -6 -6.00076 2.05888 -6.00076 12C-6.00076 21.9411 2.05811 30 11.9992 30Z" fill="white"/>
<path fill-rule="evenodd" clip-rule="evenodd" d="M11.9992 30C21.9403 30 29.9992 21.9411 29.9992 12C29.9992 2.05889 21.9403 -6 11.9992 -6C2.05813 -6 -6.00076 2.05889 -6.00076 12C-6.00076 21.9411 2.05813 30 11.9992 30ZM5.22476 16.9442C5.71724 17.0993 6.25076 17.1768 6.82532 17.1768C8.14774 17.1768 9.2011 16.8713 9.9854 16.2602C10.7697 15.6401 11.3169 14.7053 11.627 13.4558C11.7182 13.0637 11.8048 12.6715 11.8869 12.2794C11.9781 11.8872 12.0556 11.4905 12.1195 11.0892C12.2289 10.4691 12.2107 9.9264 12.0648 9.46128C11.928 8.99616 11.6863 8.60398 11.3397 8.2848C11.0023 7.96562 10.5873 7.72846 10.0948 7.57344C9.6115 7.40928 9.08252 7.3272 8.50796 7.3272C7.17646 7.3272 6.11849 7.64638 5.3342 8.2848C4.5499 8.92322 4.00724 9.858 3.70628 11.0892C3.61505 11.4905 3.5239 11.8872 3.43268 12.2794C3.3506 12.6715 3.27305 13.0637 3.20012 13.4558C3.09982 14.076 3.11804 14.6186 3.25484 15.0838C3.40078 15.5489 3.64241 15.9365 3.97988 16.2466C4.31734 16.5567 4.73228 16.7892 5.22476 16.9442ZM8.30276 14.7691C7.92886 15.0609 7.49564 15.2069 7.00316 15.2069C6.50153 15.2069 6.14132 15.0609 5.92244 14.7691C5.70356 14.4773 5.64884 14.0122 5.75828 13.3738C5.83121 12.9725 5.90422 12.594 5.97716 12.2383C6.05924 11.8826 6.15046 11.5133 6.25076 11.1302C6.40577 10.4918 6.66569 10.0267 7.03052 9.73488C7.40441 9.44306 7.83764 9.29712 8.33012 9.29712C8.8226 9.29712 9.18281 9.44306 9.41084 9.73488C9.63886 10.0267 9.69358 10.4918 9.575 11.1302C9.51113 11.5133 9.4382 11.8826 9.35612 12.2383C9.28318 12.594 9.19649 12.9725 9.0962 13.3738C8.94118 14.0122 8.67665 14.4773 8.30276 14.7691ZM12.4603 16.9442C12.515 17.0081 12.588 17.04 12.6792 17.04H14.5397C14.64 17.04 14.7266 17.0081 14.7996 16.9442C14.8817 16.8804 14.9318 16.7983 14.9501 16.698L15.5794 13.7021H17.4262C18.6026 13.7021 19.5374 13.4513 20.2306 12.9497C20.9328 12.4481 21.3979 11.6729 21.6259 10.6241C21.7354 10.0951 21.7308 9.63458 21.6122 9.2424C21.4937 8.84114 21.2839 8.50822 20.983 8.24376C20.682 7.97931 20.3035 7.78318 19.8475 7.65552C19.4006 7.52786 18.899 7.464 18.3427 7.464H14.7038C14.6126 7.464 14.526 7.4959 14.4439 7.55976C14.3618 7.62362 14.3117 7.7057 14.2934 7.806L12.4056 16.698C12.3873 16.7983 12.4056 16.8804 12.4603 16.9442ZM17.5082 11.8142H15.935L16.4686 9.36552H18.1102C18.4385 9.36552 18.6801 9.42024 18.8352 9.52968C18.9994 9.63912 19.0951 9.78506 19.1225 9.96744C19.1498 10.1498 19.1407 10.3596 19.0951 10.5967C19.0039 11.0071 18.8078 11.3126 18.5069 11.5133C18.215 11.7139 17.8821 11.8142 17.5082 11.8142Z" fill="#FF0420"/>
</g>
</g>
<defs>
<clipPath id="clip0_11434_22229">
<rect width="24" height="24" rx="12" fill="white"/>
</clipPath>
<clipPath id="clip1_11434_22229">
<rect width="36" height="36" fill="white" transform="translate(-6.00076 -6)"/>
</clipPath>
</defs>
</svg>
