<svg width="24" height="24" viewBox="0 0 24 24" fill="none" xmlns="http://www.w3.org/2000/svg">
<rect width="24" height="24" rx="12" fill="black"/>
<path d="M6.86618 5.34258L11.9998 2.375L17.1334 5.34258L15.2084 6.38516L11.9998 4.54024L8.7111 6.38516L6.86618 5.34258ZM17.0525 9.03242L15.2076 7.98984L11.9998 9.83476L8.7111 7.98984L6.86618 9.03242V11.1984L10.0748 13.0434V16.8133L11.9197 17.9359L13.7646 16.8133V13.1234L16.9732 11.2785V9.03242H17.0525ZM17.0525 14.9676V12.8023L15.2084 13.925V16.0102L17.0525 14.9676ZM18.4162 15.6898L15.2076 17.5348V19.7L20.3412 16.7324V10.7973L18.4162 12V15.6898ZM16.572 7.1875L18.417 8.31016V10.4762L20.2619 9.35351V7.1875L18.417 6.06484L16.572 7.1875ZM10.0748 18.3363V20.5016L11.9197 21.6242L13.7646 20.5016V18.3363L11.9197 19.459L10.0748 18.3363ZM6.86618 14.9676L8.7111 16.0102V13.8449L6.86618 12.7223V14.9676ZM10.0748 7.1875L11.9197 8.31016L13.8447 7.1875L11.9998 6.06484L10.0748 7.1875ZM5.50251 8.31016L7.42751 7.1875L5.50251 6.06484L3.65836 7.1875V9.35274L5.50328 10.4754V8.31016H5.50251ZM5.50251 12L3.65759 10.8773V16.8125L8.79118 19.7801V17.6148L5.58259 15.7699V12H5.50251Z" fill="#F3BA2F"/>
</svg>
