<svg width="32" height="32" viewBox="0 0 32 32" fill="none" xmlns="http://www.w3.org/2000/svg">
<path d="M6.55283 9.83058C11.772 4.72314 20.2316 4.72314 25.4508 9.83058L26.0779 10.4469C26.3375 10.7029 26.3375 11.1174 26.0779 11.3733L23.9297 13.4746C23.8 13.6008 23.5873 13.6008 23.4575 13.4746L22.5925 12.6276C18.952 9.06646 13.048 9.06646 9.40752 12.6276L8.48119 13.5323C8.35143 13.6585 8.13877 13.6585 8.00901 13.5323L5.86078 11.4309C5.60126 11.175 5.60126 10.7605 5.86078 10.5046L6.54922 9.83058H6.55283ZM29.895 14.1775L31.8054 16.0482C32.0649 16.3041 32.0649 16.7186 31.8054 16.9745L23.1836 25.4125C22.9241 25.6684 22.4988 25.6684 22.2392 25.4125L16.1189 19.4255C16.0541 19.3607 15.9495 19.3607 15.8811 19.4255L9.76076 25.4125C9.50124 25.6684 9.07592 25.6684 8.8164 25.4125L0.194638 16.9745C-0.0648795 16.7186 -0.0648795 16.3041 0.194638 16.0482L2.10498 14.1775C2.3645 13.9216 2.78982 13.9216 3.04934 14.1775L9.16963 20.1644C9.23451 20.2293 9.33904 20.2293 9.40752 20.1644L15.5278 14.1775C15.7873 13.9216 16.2127 13.9216 16.4722 14.1775L22.5925 20.168C22.6574 20.2329 22.7619 20.2329 22.8304 20.168L28.9507 14.1811C29.2102 13.9252 29.6355 13.9252 29.895 14.1811V14.1775Z" fill="#3B99FC"/>
</svg>
