<svg width="24" height="24" viewBox="0 0 24 24" fill="none" xmlns="http://www.w3.org/2000/svg">
<path d="M16.5 2.625V4.5H19.875C20.1734 4.5 20.4595 4.61853 20.6705 4.8295C20.8815 5.04048 21 5.32663 21 5.625C21 5.92337 20.8815 6.20952 20.6705 6.4205C20.4595 6.63147 20.1734 6.75 19.875 6.75H4.125C3.82663 6.75 3.54048 6.63147 3.3295 6.4205C3.11853 6.20952 3 5.92337 3 5.625C3 5.32663 3.11853 5.04048 3.3295 4.8295C3.54048 4.61853 3.82663 4.5 4.125 4.5H7.5V2.625C7.5 1.176 8.676 0 10.125 0H13.875C15.324 0 16.5 1.176 16.5 2.625ZM6.744 10.0125L7.734 19.9125C7.7433 20.0051 7.78668 20.0909 7.8557 20.1532C7.92473 20.2156 8.01447 20.2501 8.1075 20.25H15.8925C15.9855 20.2501 16.0753 20.2156 16.1443 20.1532C16.2133 20.0909 16.2567 20.0051 16.266 19.9125L17.256 10.0125C17.2932 9.72191 17.4423 9.45729 17.6715 9.27492C17.9008 9.09254 18.1922 9.00679 18.4837 9.0359C18.7752 9.06502 19.0439 9.20669 19.2325 9.43081C19.4212 9.65492 19.515 9.9438 19.494 10.236L18.504 20.136C18.4399 20.784 18.1371 21.3849 17.6544 21.8219C17.1716 22.2588 16.5436 22.5006 15.8925 22.5H8.1075C7.45681 22.4999 6.82935 22.2582 6.34681 21.8216C5.86428 21.3851 5.56107 20.7849 5.496 20.1375L4.506 10.2375C4.48721 10.0886 4.49843 9.93735 4.53899 9.7928C4.57954 9.64825 4.64862 9.51329 4.74215 9.39585C4.83568 9.27842 4.95177 9.18089 5.08358 9.10902C5.21539 9.03715 5.36024 8.99238 5.50962 8.97736C5.659 8.96235 5.80987 8.97738 5.95334 9.02157C6.09682 9.06577 6.23 9.13824 6.34503 9.2347C6.46007 9.33117 6.55463 9.44969 6.62315 9.58327C6.69167 9.71685 6.73276 9.86279 6.744 10.0125ZM9.75 2.625V4.5H14.25V2.625C14.25 2.52554 14.2105 2.43016 14.1402 2.35984C14.0698 2.28951 13.9745 2.25 13.875 2.25H10.125C10.0255 2.25 9.93016 2.28951 9.85983 2.35984C9.78951 2.43016 9.75 2.52554 9.75 2.625Z" fill="#6851FF"/>
</svg>
