<svg width="24" height="24" viewBox="0 0 24 24" fill="none" xmlns="http://www.w3.org/2000/svg">
<g clip-path="url(#clip0_11176_25357)">
<path fill-rule="evenodd" clip-rule="evenodd" d="M1.5 3C1.5 1.34531 2.84531 0 4.5 0H12C13.6547 0 15 1.34531 15 3V12H15.375C17.6531 12 19.5 13.8469 19.5 16.125V17.625C19.5 18.2484 20.0016 18.75 20.625 18.75C21.2484 18.75 21.75 18.2484 21.75 17.625V10.4062C20.4562 10.0734 19.5 8.89688 19.5 7.5V4.5L18 3C17.5875 2.5875 17.5875 1.9125 18 1.5C18.4125 1.0875 19.0875 1.0875 19.5 1.5L23.1234 5.12344C23.6859 5.68594 24 6.45 24 7.24688V17.625C24 19.4906 22.4906 21 20.625 21C18.7594 21 17.25 19.4906 17.25 17.625V16.125C17.25 15.0891 16.4109 14.25 15.375 14.25H15V21C15.8297 21 16.5 21.6703 16.5 22.5C16.5 23.3297 15.8297 24 15 24H1.5C0.670312 24 0 23.3297 0 22.5C0 21.6703 0.670312 21 1.5 21V3ZM4.35 2C3.88056 2 3.5 2.38056 3.5 2.85V4.15C3.5 4.61944 3.88056 5 4.35 5H12.15C12.6194 5 13 4.61944 13 4.15V2.85C13 2.38056 12.6194 2 12.15 2H4.35ZM9.90339 10.2923C10.0809 10.2033 10.2807 10.2033 10.436 10.2923L12.2337 11.3383C12.4112 11.4496 12.5 11.6276 12.5 11.8056V13.9199C12.5 14.1202 12.389 14.2982 12.2337 14.3872L10.436 15.4332C10.2585 15.5223 10.0587 15.5223 9.90339 15.4332L8.10574 14.3872C7.9282 14.276 7.83943 14.0979 7.83943 13.9199V13.1855L8.68277 12.6958V13.408C8.68277 13.6083 8.79373 13.7864 8.94909 13.8754L9.90339 14.4318C10.0809 14.5208 10.2807 14.5208 10.436 14.4318L11.3681 13.8754C11.5457 13.7641 11.6345 13.5861 11.6345 13.408V12.2953C11.6345 12.095 11.5235 11.9169 11.3681 11.8279L10.4138 11.2715C10.2363 11.1825 10.0366 11.1825 9.8812 11.2715L8.66057 11.9837L7.81723 12.4733L6.59661 13.1855C6.41906 13.2745 6.21932 13.2745 6.06397 13.1855L4.26632 12.1395C4.08877 12.0282 4 11.8501 4 11.6721V9.58012C4 9.40208 4.08877 9.22404 4.26632 9.13502L6.08616 8.06677C6.26371 7.97774 6.46345 7.97774 6.6188 8.06677L8.39426 9.11276C8.5718 9.22404 8.66057 9.40208 8.66057 9.58012V10.3368L7.81723 10.8264V10.092C7.81723 9.89169 7.70627 9.71365 7.55091 9.62463L6.59661 9.04599C6.41906 8.95697 6.21932 8.95697 6.06397 9.04599L5.10966 9.60237C4.93211 9.71365 4.84334 9.89169 4.84334 10.0697V11.1825C4.84334 11.3828 4.95431 11.5608 5.10966 11.6499L6.06397 12.2285C6.24151 12.3175 6.44125 12.3175 6.59661 12.2285L7.81723 11.4941L8.66057 11.0267L9.90339 10.2923ZM9.80638 18.953C9.88178 19.0085 9.92445 19.0864 9.9344 19.1867H10.4502C10.4477 19.035 10.4071 18.9016 10.3284 18.7865C10.2497 18.6713 10.1395 18.5814 9.99778 18.5167C9.85692 18.4521 9.69203 18.4198 9.50311 18.4198C9.31751 18.4198 9.15179 18.4521 9.00595 18.5167C8.86012 18.5814 8.74536 18.6713 8.66167 18.7865C8.57881 18.9016 8.53779 19.0363 8.53862 19.1904C8.53779 19.3785 8.59953 19.528 8.72381 19.6391C8.8481 19.7501 9.01755 19.8317 9.23216 19.8839L9.50933 19.9535C9.60213 19.9759 9.68043 20.0008 9.74423 20.0281C9.80886 20.0555 9.85775 20.0886 9.8909 20.1275C9.92487 20.1665 9.94185 20.2145 9.94185 20.2717C9.94185 20.333 9.92321 20.3873 9.88592 20.4345C9.84864 20.4818 9.79602 20.5186 9.72808 20.5452C9.66096 20.5717 9.58183 20.5849 9.49068 20.5849C9.39788 20.5849 9.31461 20.5708 9.24086 20.5427C9.16794 20.5137 9.10953 20.471 9.06561 20.4146C9.02252 20.3575 8.99808 20.2862 8.99228 20.2009H8.47151C8.47565 20.384 8.51998 20.5377 8.6045 20.662C8.68984 20.7854 8.80833 20.8787 8.95996 20.9416C9.11243 21.0046 9.2914 21.0361 9.4969 21.0361C9.70405 21.0361 9.88095 21.005 10.0276 20.9429C10.1751 20.8799 10.2878 20.7917 10.3657 20.6781C10.4444 20.5638 10.4842 20.4287 10.485 20.273C10.4842 20.1669 10.4647 20.0729 10.4266 19.9908C10.3893 19.9088 10.3367 19.8375 10.2687 19.777C10.2008 19.7166 10.1204 19.6656 10.0276 19.6242C9.93481 19.5827 9.83289 19.5496 9.72186 19.5247L9.49317 19.47C9.43765 19.4576 9.38545 19.4427 9.33656 19.4253C9.28768 19.4071 9.24459 19.3859 9.2073 19.3619C9.17002 19.3371 9.1406 19.3076 9.11906 19.2737C9.09834 19.2397 9.08881 19.1999 9.09047 19.1544C9.09047 19.0997 9.10621 19.0508 9.1377 19.0077C9.17001 18.9646 9.21642 18.931 9.2769 18.907C9.33739 18.8822 9.41155 18.8697 9.49938 18.8697C9.62864 18.8697 9.73098 18.8975 9.80638 18.953ZM3.34563 18.8983V18.4546H5.43619V18.8983H4.65689V21.0001H4.12493V18.8983H3.34563ZM6.09547 21.0001V18.4546H7.81067V18.8983H6.63365V19.5049H7.72242V19.9486H6.63365V20.5563H7.81564V21.0001H6.09547ZM11.065 18.8983V18.4546H13.1556V18.8983H12.3763V21.0001H11.8443V18.8983H11.065Z" fill="#6851FF"/>
</g>
<defs>
<clipPath id="clip0_11176_25357">
<rect width="24" height="24" fill="white"/>
</clipPath>
</defs>
</svg>
