<svg width="24" height="24" viewBox="0 0 24 24" fill="none" xmlns="http://www.w3.org/2000/svg">
<path d="M10.7446 7C10.7446 6.30964 11.3043 5.75 11.9946 5.75H12.0036C12.694 5.75 13.2536 6.30964 13.2536 7C13.2536 7.69036 12.694 8.25 12.0036 8.25H11.9946C11.3043 8.25 10.7446 7.69036 10.7446 7Z" fill="#6851FF"/>
<path d="M12 10C12.5523 10 13 10.4477 13 11V17C13 17.5523 12.5523 18 12 18C11.4477 18 11 17.5523 11 17V11C11 10.4477 11.4477 10 12 10Z" fill="#6851FF"/>
<path fill-rule="evenodd" clip-rule="evenodd" d="M12 0C5.37258 0 0 5.37258 0 12C0 18.6274 5.37258 24 12 24C18.6274 24 24 18.6274 24 12C24 5.37258 18.6274 0 12 0ZM2 12C2 6.47715 6.47715 2 12 2C17.5228 2 22 6.47715 22 12C22 17.5228 17.5228 22 12 22C6.47715 22 2 17.5228 2 12Z" fill="#6851FF"/>
</svg>
