<svg width="24" height="24" viewBox="0 0 24 24" fill="none" xmlns="http://www.w3.org/2000/svg">
<path fill-rule="evenodd" clip-rule="evenodd" d="M14.7475 2.49064C17.0688 1.69181 19.4219 1.65741 20.8797 3.11517C22.3375 4.57293 22.303 6.92602 21.5042 9.24737C21.186 10.172 20.7342 11.1355 20.1619 12.1067C20.6998 13.0256 21.1291 13.9348 21.4383 14.808C22.2517 17.1045 22.3203 19.4428 20.8811 20.8821C19.4418 22.3213 17.1035 22.2527 14.807 21.4393C13.934 21.1301 13.0249 20.701 12.1062 20.1632C11.1343 20.7361 10.1702 21.1882 9.24494 21.5066C6.92359 22.3055 4.57051 22.3399 3.11274 20.8821C1.65498 19.4244 1.68938 17.0713 2.48821 14.7499C2.80667 13.8245 3.25894 12.8602 3.83198 11.8881C3.2947 10.9701 2.86589 10.0616 2.55689 9.18918C1.74356 6.89272 1.67489 4.55439 3.11414 3.11513C4.5534 1.67588 6.89173 1.74455 9.18819 2.55788C10.0608 2.86693 10.9694 3.29585 11.8877 3.83326C12.8591 3.26077 13.8227 2.80889 14.7475 2.49064ZM10.3709 4.82191C9.7816 4.51444 9.20602 4.26158 8.65403 4.06609C6.50429 3.30472 4.99715 3.49487 4.24551 4.2465C3.49388 4.99814 3.30373 6.50528 4.0651 8.65502C4.26056 9.20691 4.51336 9.78237 4.82075 10.3716C5.55044 9.35129 6.40581 8.34017 7.37178 7.37421C8.3383 6.40768 9.35003 5.55188 10.3709 4.82191ZM5.71677 11.8912C6.46811 10.756 7.40268 9.60605 8.50315 8.50558C9.6042 7.40452 10.7548 6.46954 11.8906 5.71801C13.0633 6.48846 14.2564 7.4549 15.3989 8.59735C16.5408 9.73923 17.5068 10.9318 18.2771 12.1039C17.5255 13.2398 16.5905 14.3905 15.4893 15.4917C14.3887 16.5923 13.2386 17.5269 12.1033 18.2783C10.9311 17.508 9.73836 16.5419 8.59636 15.3999C7.45379 14.2573 6.48726 13.064 5.71677 11.8912ZM4.81575 13.4082C4.47958 14.0476 4.20694 14.6725 4.00114 15.2705C3.2585 17.4286 3.46028 18.9669 4.24411 19.7507C5.02795 20.5346 6.56624 20.7364 8.72431 19.9937C9.32226 19.788 9.94704 19.5154 10.5863 19.1793C9.52573 18.4265 8.47178 17.538 7.46499 16.5312C6.45766 15.5239 5.56878 14.4694 4.81575 13.4082ZM13.6227 19.1745C14.2126 19.4823 14.7887 19.7355 15.3412 19.9311C17.4909 20.6925 18.9981 20.5023 19.7497 19.7507C20.5014 18.9991 20.6915 17.4919 19.9301 15.3422C19.7344 14.7896 19.4812 14.2134 19.1733 13.6234C18.4433 14.6445 17.5873 15.6564 16.6207 16.6231C15.6545 17.5892 14.6432 18.4447 13.6227 19.1745ZM19.1779 10.5868C18.4252 9.52636 17.5369 8.4726 16.5302 7.46598C15.5231 6.45882 14.4688 5.57008 13.4078 4.81713C14.0465 4.48145 14.6707 4.20915 15.2681 4.00357C17.4262 3.26092 18.9645 3.46271 19.7483 4.24654C20.5322 5.03037 20.7339 6.56867 19.9913 8.72674C19.7857 9.32407 19.5135 9.94817 19.1779 10.5868ZM11.9982 14.7489C13.517 14.7489 14.7482 13.5176 14.7482 11.9989C14.7482 10.4801 13.517 9.24887 11.9982 9.24887C10.4794 9.24887 9.24822 10.4801 9.24822 11.9989C9.24822 13.5176 10.4794 14.7489 11.9982 14.7489Z" fill="#6851FF"/>
</svg>
