<svg width="24" height="24" viewBox="0 0 24 24" fill="none" xmlns="http://www.w3.org/2000/svg">
<path fill-rule="evenodd" clip-rule="evenodd" d="M14.2628 0.239095C7.79128 -1.14294 1.99999 3.65189 1.99999 9.83699C1.99999 13.2747 4.14256 16.424 6.77979 18.1918V18.9377C6.77979 18.9839 6.77854 19.0279 6.77689 19.0861L6.77576 19.1265C6.77382 19.197 6.77152 19.2924 6.7751 19.3913C6.78188 19.579 6.81104 19.8992 7.00168 20.2136C7.4269 20.9149 8.24323 21.005 8.87914 20.9998H15.1605C15.9708 20.9998 16.6864 20.7352 17.0486 20.0545C17.2016 19.7671 17.2421 19.4859 17.2542 19.294C17.2604 19.1958 17.2597 19.1085 17.2585 19.0454C17.2576 19.003 17.2569 18.9807 17.2564 18.9653C17.2559 18.9499 17.2557 18.9413 17.2557 18.9265V18.1804C21.0065 15.6598 23.5296 10.3805 20.9575 5.31469C19.6385 2.71676 17.1206 0.858741 14.2659 0.239749L14.2628 0.239095ZM12.599 6.19416C13.0441 6.52115 13.1399 7.14703 12.8129 7.59211L11.4112 9.50004H13.0859C13.6185 9.50004 14.3124 9.64028 14.7256 10.209C15.215 10.8828 14.9729 11.6331 14.6277 12.0985L12.8155 14.5885C12.4905 15.035 11.8651 15.1336 11.4185 14.8086C10.972 14.4836 10.8735 13.8581 11.1984 13.4116L12.5897 11.5H10.9109C10.3791 11.5 9.69468 11.356 9.28221 10.7972C8.79008 10.1305 9.01522 9.37741 9.37068 8.89946L11.2011 6.40799C11.5281 5.96291 12.154 5.86717 12.599 6.19416ZM13.033 10.89C13.033 10.89 13.0326 10.8907 13.0317 10.8921L13.033 10.89ZM10.9656 10.1074C10.9656 10.1074 10.9658 10.1071 10.9661 10.1065L10.9668 10.1055L10.9656 10.1074ZM8.49998 22C7.9477 22 7.49998 22.4477 7.49998 23C7.49998 23.5523 7.9477 24 8.49998 24H15.5C16.0522 24 16.5 23.5523 16.5 23C16.5 22.4477 16.0522 22 15.5 22H8.49998Z" fill="#6851FF"/>
</svg>
