<svg width="24" height="24" viewBox="0 0 24 24" fill="none" xmlns="http://www.w3.org/2000/svg">
<path fill-rule="evenodd" clip-rule="evenodd" d="M13 2.06836C16.2263 2.51278 18.8196 5.07759 19.2287 8.39117L19.4292 10.0149C19.5641 11.0844 19.9441 12.1083 20.5398 13.0068L21.201 13.9987C21.4483 14.3697 21.6708 14.7033 21.8243 14.9863C21.978 15.2696 22.1538 15.6583 22.1283 16.1122C22.0953 16.701 21.804 17.2451 21.3324 17.5993C20.9689 17.8723 20.548 17.9416 20.2271 17.9708C19.9064 18.0001 19.5054 18 19.0595 18H19.0595H4.94048H4.94044C4.49455 18 4.0936 18.0001 3.77288 17.9708C3.45198 17.9416 3.03105 17.8723 2.66754 17.5993C2.19597 17.2451 1.90472 16.701 1.87165 16.1122C1.84616 15.6583 2.02197 15.2696 2.17564 14.9863C2.32922 14.7033 2.55167 14.3696 2.79905 13.9986L3.46021 13.0068C4.05585 12.1083 4.43592 11.0844 4.57079 10.0149L4.77126 8.39117C5.18035 5.07758 7.77372 2.51277 11 2.06835V2C11 1.44772 11.4477 1 12 1C12.5523 1 13 1.44772 13 2V2.06836ZM12 4C9.33228 4 7.08306 5.98862 6.75619 8.63622L6.55507 10.2651C6.38167 11.6402 5.89301 12.9567 5.12719 14.1119L4.48699 15.0723C4.20818 15.4905 4.03824 15.7472 3.93356 15.9401C3.92678 15.9526 3.92061 15.9643 3.915 15.9751C3.92712 15.9765 3.94024 15.9778 3.95442 15.9791C4.173 15.999 4.48086 16 4.9835 16H19.0165C19.5191 16 19.827 15.999 20.0456 15.9791C20.0597 15.9778 20.0729 15.9765 20.085 15.9751C20.0794 15.9643 20.0732 15.9526 20.0664 15.9401C19.9617 15.7472 19.7918 15.4905 19.513 15.0723L18.8728 14.1119C18.107 12.9567 17.6183 11.6402 17.4449 10.2651L17.2438 8.63622C16.9169 5.98862 14.6677 4 12 4ZM10.4334 20.5822C10.7905 20.8202 11.3415 21 12 21C12.6585 21 13.2095 20.8202 13.5666 20.5822C13.9307 20.3394 14 20.1139 14 20H16C16 20.9907 15.3977 21.7651 14.676 22.2463C13.9474 22.732 12.9983 23 12 23C11.0017 23 10.0526 22.732 9.32398 22.2463C8.6023 21.7651 8 20.9907 8 20H10C10 20.1139 10.0693 20.3394 10.4334 20.5822Z" fill="#6851FF"/>
</svg>
