<svg width="24" height="24" viewBox="0 0 24 24" fill="none" xmlns="http://www.w3.org/2000/svg">
<path fill-rule="evenodd" clip-rule="evenodd" d="M11.9502 0.500106L12 0.5L12.0498 0.500106C12.8782 0.503624 13.5469 1.17804 13.5434 2.00646C13.5399 2.83488 12.8654 3.5036 12.037 3.50008L12 3.5L11.963 3.50008C11.1346 3.5036 10.4601 2.83488 10.4566 2.00646C10.4531 1.17804 11.1218 0.503624 11.9502 0.500106ZM17.9753 3.84238C18.5586 3.25409 19.5083 3.25001 20.0966 3.83328C20.1201 3.85656 20.1434 3.87994 20.1667 3.90341C20.75 4.4917 20.7459 5.44144 20.1576 6.02471C19.5693 6.60798 18.6196 6.60391 18.0363 6.01561C18.0191 5.99823 18.0018 5.98092 17.9844 5.96368C17.3961 5.38041 17.392 4.43067 17.9753 3.84238ZM6.02471 3.84238C6.60798 4.43067 6.60391 5.38041 6.01561 5.96368C5.99823 5.98092 5.98092 5.99823 5.96368 6.01562C5.38041 6.60391 4.43067 6.60798 3.84238 6.02471C3.25409 5.44144 3.25001 4.49171 3.83328 3.90341C3.85656 3.87994 3.87994 3.85656 3.90341 3.83328C4.4917 3.25001 5.44144 3.25409 6.02471 3.84238ZM2.00646 10.4566C2.83488 10.4601 3.5036 11.1346 3.50008 11.963L3.5 12L3.50008 12.037C3.5036 12.8654 2.83488 13.5399 2.00646 13.5434C1.17804 13.5469 0.503624 12.8782 0.500106 12.0498L0.5 12L0.500106 11.9502C0.503624 11.1218 1.17804 10.4531 2.00646 10.4566ZM21.9935 10.4566C22.822 10.4531 23.4964 11.1218 23.4999 11.9502L23.5 12L23.4999 12.0498C23.4964 12.8782 22.822 13.5469 21.9935 13.5434C21.1651 13.5399 20.4964 12.8654 20.4999 12.037L20.5 12L20.4999 11.963C20.4964 11.1346 21.1651 10.4601 21.9935 10.4566ZM3.84238 17.9753C4.43067 17.392 5.38041 17.3961 5.96368 17.9844C5.98092 18.0018 5.99823 18.0191 6.01562 18.0363C6.60391 18.6196 6.60798 19.5693 6.02471 20.1576C5.44144 20.7459 4.49171 20.75 3.90341 20.1667C3.87994 20.1434 3.85656 20.1201 3.83328 20.0966C3.25001 19.5083 3.25409 18.5586 3.84238 17.9753ZM20.1576 17.9753C20.7459 18.5586 20.75 19.5083 20.1667 20.0966C20.1434 20.1201 20.1201 20.1434 20.0966 20.1667C19.5083 20.75 18.5586 20.7459 17.9753 20.1576C17.392 19.5693 17.3961 18.6196 17.9844 18.0363C18.0018 18.0191 18.0191 18.0018 18.0363 17.9844C18.6196 17.3961 19.5693 17.392 20.1576 17.9753ZM10.4566 21.9935C10.4601 21.1651 11.1346 20.4964 11.963 20.4999L12 20.5L12.037 20.4999C12.8654 20.4964 13.5399 21.1651 13.5434 21.9935C13.5469 22.822 12.8782 23.4964 12.0498 23.4999L12 23.5L11.9502 23.4999C11.1218 23.4964 10.4531 22.822 10.4566 21.9935Z" fill="#6851FF"/>
</svg>
