<svg width="24" height="24" viewBox="0 0 24 24" fill="none" xmlns="http://www.w3.org/2000/svg">
<path d="M6.29289 6.77522C5.75943 6.63227 5.21109 6.94886 5.06815 7.48232C4.92521 8.01579 5.24179 8.56413 5.77525 8.70707L7.70711 9.22471C8.24057 9.36765 8.78891 9.05107 8.93185 8.5176C9.07479 7.98413 8.75821 7.4358 8.22474 7.29285L6.29289 6.77522Z" fill="#6851FF"/>
<path d="M6.29289 10.7752C5.75943 10.6323 5.21109 10.9489 5.06815 11.4823C4.92521 12.0158 5.24179 12.5641 5.77525 12.7071L7.70711 13.2247C8.24057 13.3676 8.78891 13.0511 8.93185 12.5176C9.07479 11.9841 8.75821 11.4358 8.22474 11.2929L6.29289 10.7752Z" fill="#6851FF"/>
<path fill-rule="evenodd" clip-rule="evenodd" d="M4.24221 1.67329C6.50031 1.85647 9.82699 2.96526 11.7416 4.1567L11.9682 4.29261L11.9743 4.29344C11.9819 4.29435 11.9906 4.29491 12 4.29491C12.0094 4.29491 12.0181 4.29435 12.0257 4.29344L12.0289 4.29303L12.1674 4.20345C14.0824 2.99848 17.4258 1.87717 19.6846 1.68356C19.713 1.68113 19.7415 1.67991 19.77 1.67991H19.792C21.5395 1.5581 23 2.89448 23 4.66991V16.7399C23 18.1964 21.8522 19.5287 20.384 19.7122L20.3803 19.7126L20.0563 19.7519C18.0022 20.0263 14.7706 21.0937 12.9595 22.0919C12.6417 22.2723 12.2892 22.3324 11.9938 22.3324C11.7006 22.3324 11.3587 22.2733 11.0476 22.1067L11.0228 22.0943C11.0118 22.0889 11.001 22.0832 10.9902 22.0773C9.17756 21.086 5.94525 20.0248 3.89754 19.7511L3.89336 19.7505L3.60881 19.7113C2.14408 19.5243 1 18.194 1 16.7399V4.65991C1 2.88918 2.46557 1.52484 4.24221 1.67329ZM4.07626 3.66639C3.47359 3.61575 3 4.05114 3 4.65991V16.7399C3 17.2034 3.41219 17.6711 3.86403 17.7276L3.87665 17.7292L4.16246 17.7687L4.16455 17.769C6.12916 18.0319 8.95603 18.9057 11 19.8479V6.04362C10.9834 6.03418 10.9669 6.02443 10.9504 6.01436L10.7055 5.8674L10.6909 5.85844C9.04473 4.83192 6.01823 3.82361 4.07931 3.66665L4.07626 3.66639ZM13 6.04362V19.8362C15.0429 18.8954 17.8435 18.0287 19.7981 17.7686L19.8097 17.7671L20.136 17.7276L20.1373 17.7275C20.5886 17.6702 21 17.2029 21 16.7399V4.66991C21 4.06079 20.526 3.62494 19.9137 3.67639C19.8859 3.67873 19.858 3.67991 19.83 3.67991H19.8141C17.8734 3.85685 14.8723 4.86644 13.2378 5.89304L13.0732 5.99948L13.0574 6.00955C13.0384 6.02133 13.0193 6.03268 13 6.04362Z" fill="#6851FF"/>
</svg>
