<svg width="24" height="24" viewBox="0 0 24 24" fill="none" xmlns="http://www.w3.org/2000/svg">
<path fill-rule="evenodd" clip-rule="evenodd" d="M10.8 1.65357C11.5426 1.22485 12.4574 1.22485 13.2 1.65357L20.3603 5.78755C21.1028 6.21626 21.5603 7.00857 21.5603 7.86601V16.134C21.5603 16.9914 21.1028 17.7837 20.3603 18.2124L13.2 22.3464C12.4574 22.7751 11.5426 22.7751 10.8 22.3464L3.63976 18.2124C2.8972 17.7837 2.43976 16.9914 2.43976 16.134V7.86601C2.43976 7.00857 2.8972 6.21626 3.63976 5.78755L10.8 1.65357ZM12.3 3.21242C12.1144 3.10524 11.8857 3.10524 11.7 3.21242L4.53976 7.34639C4.35412 7.45357 4.23976 7.65165 4.23976 7.86601V16.134C4.23976 16.3483 4.35412 16.5464 4.53976 16.6536L11.7 20.7875C11.8857 20.8947 12.1144 20.8947 12.3 20.7875L19.4603 16.6536C19.6459 16.5464 19.7603 16.3483 19.7603 16.134V7.86601C19.7603 7.65165 19.6459 7.45357 19.4603 7.34639L12.3 3.21242ZM12 7.76795C12.4971 7.76795 12.9 8.17089 12.9 8.66795V10.4398L14.4367 9.55259C14.8672 9.30406 15.4176 9.45155 15.6662 9.88201C15.9147 10.3125 15.7672 10.8629 15.3367 11.1114L13.8 11.9987L15.3368 12.8859C15.7673 13.1345 15.9147 13.6849 15.6662 14.1153C15.4177 14.5458 14.8673 14.6933 14.4368 14.4448L12.9 13.5575V15.3346C12.9 15.8317 12.4971 16.2346 12 16.2346C11.503 16.2346 11.1 15.8317 11.1 15.3346V13.5575L9.56323 14.4448C9.13276 14.6933 8.58233 14.5458 8.3338 14.1153C8.08528 13.6849 8.23276 13.1345 8.66323 12.8859L10.2 11.9987L8.66329 11.1114C8.23283 10.8629 8.08534 10.3125 8.33387 9.88201C8.5824 9.45155 9.13283 9.30406 9.56329 9.55259L11.1 10.4398V8.66795C11.1 8.17089 11.503 7.76795 12 7.76795Z" fill="#6851FF"/>
</svg>
