<svg width="24" height="24" viewBox="0 0 24 24" fill="none" xmlns="http://www.w3.org/2000/svg">
<path d="M8 21.0002H4C3.73478 21.0002 3.48043 20.8948 3.29289 20.7073C3.10536 20.5198 3 20.2654 3 20.0002V16.0002C3 15.735 2.89464 15.4806 2.70711 15.2931C2.51957 15.1055 2.26522 15.0002 2 15.0002C1.73478 15.0002 1.48043 15.1055 1.29289 15.2931C1.10536 15.4806 1 15.735 1 16.0002V20.0002C1 20.7958 1.31607 21.5589 1.87868 22.1215C2.44129 22.6841 3.20435 23.0002 4 23.0002H8C8.26522 23.0002 8.51957 22.8948 8.70711 22.7073C8.89464 22.5198 9 22.2654 9 22.0002C9 21.735 8.89464 21.4806 8.70711 21.2931C8.51957 21.1055 8.26522 21.0002 8 21.0002ZM22 15.0002C21.7348 15.0002 21.4804 15.1055 21.2929 15.2931C21.1054 15.4806 21 15.735 21 16.0002V20.0002C21 20.2654 20.8946 20.5198 20.7071 20.7073C20.5196 20.8948 20.2652 21.0002 20 21.0002H16C15.7348 21.0002 15.4804 21.1055 15.2929 21.2931C15.1054 21.4806 15 21.735 15 22.0002C15 22.2654 15.1054 22.5198 15.2929 22.7073C15.4804 22.8948 15.7348 23.0002 16 23.0002H20C20.7956 23.0002 21.5587 22.6841 22.1213 22.1215C22.6839 21.5589 23 20.7958 23 20.0002V16.0002C23 15.735 22.8946 15.4806 22.7071 15.2931C22.5196 15.1055 22.2652 15.0002 22 15.0002ZM20 1.00018H16C15.7348 1.00018 15.4804 1.10554 15.2929 1.29308C15.1054 1.48061 15 1.73497 15 2.00018C15 2.2654 15.1054 2.51975 15.2929 2.70729C15.4804 2.89483 15.7348 3.00018 16 3.00018H20C20.2652 3.00018 20.5196 3.10554 20.7071 3.29308C20.8946 3.48061 21 3.73497 21 4.00018V8.00018C21 8.2654 21.1054 8.51975 21.2929 8.70729C21.4804 8.89483 21.7348 9.00018 22 9.00018C22.2652 9.00018 22.5196 8.89483 22.7071 8.70729C22.8946 8.51975 23 8.2654 23 8.00018V4.00018C23 3.20453 22.6839 2.44147 22.1213 1.87886C21.5587 1.31625 20.7956 1.00018 20 1.00018ZM2 9.00018C2.26522 9.00018 2.51957 8.89483 2.70711 8.70729C2.89464 8.51975 3 8.2654 3 8.00018V4.00018C3 3.73497 3.10536 3.48061 3.29289 3.29308C3.48043 3.10554 3.73478 3.00018 4 3.00018H8C8.26522 3.00018 8.51957 2.89483 8.70711 2.70729C8.89464 2.51975 9 2.2654 9 2.00018C9 1.73497 8.89464 1.48061 8.70711 1.29308C8.51957 1.10554 8.26522 1.00018 8 1.00018H4C3.20435 1.00018 2.44129 1.31625 1.87868 1.87886C1.31607 2.44147 1 3.20453 1 4.00018V8.00018C1 8.2654 1.10536 8.51975 1.29289 8.70729C1.48043 8.89483 1.73478 9.00018 2 9.00018ZM10 5.00018H6C5.73478 5.00018 5.48043 5.10554 5.29289 5.29308C5.10536 5.48061 5 5.73497 5 6.00018V10.0002C5 10.2654 5.10536 10.5198 5.29289 10.7073C5.48043 10.8948 5.73478 11.0002 6 11.0002H10C10.2652 11.0002 10.5196 10.8948 10.7071 10.7073C10.8946 10.5198 11 10.2654 11 10.0002V6.00018C11 5.73497 10.8946 5.48061 10.7071 5.29308C10.5196 5.10554 10.2652 5.00018 10 5.00018ZM9 9.00018H7V7.00018H9V9.00018ZM14 11.0002H18C18.2652 11.0002 18.5196 10.8948 18.7071 10.7073C18.8946 10.5198 19 10.2654 19 10.0002V6.00018C19 5.73497 18.8946 5.48061 18.7071 5.29308C18.5196 5.10554 18.2652 5.00018 18 5.00018H14C13.7348 5.00018 13.4804 5.10554 13.2929 5.29308C13.1054 5.48061 13 5.73497 13 6.00018V10.0002C13 10.2654 13.1054 10.5198 13.2929 10.7073C13.4804 10.8948 13.7348 11.0002 14 11.0002ZM15 7.00018H17V9.00018H15V7.00018ZM10 13.0002H6C5.73478 13.0002 5.48043 13.1055 5.29289 13.2931C5.10536 13.4806 5 13.735 5 14.0002V18.0002C5 18.2654 5.10536 18.5198 5.29289 18.7073C5.48043 18.8948 5.73478 19.0002 6 19.0002H10C10.2652 19.0002 10.5196 18.8948 10.7071 18.7073C10.8946 18.5198 11 18.2654 11 18.0002V14.0002C11 13.735 10.8946 13.4806 10.7071 13.2931C10.5196 13.1055 10.2652 13.0002 10 13.0002ZM9 17.0002H7V15.0002H9V17.0002ZM14 16.0002C14.2652 16.0002 14.5196 15.8948 14.7071 15.7073C14.8946 15.5198 15 15.2654 15 15.0002C15.2652 15.0002 15.5196 14.8948 15.7071 14.7073C15.8946 14.5198 16 14.2654 16 14.0002C16 13.735 15.8946 13.4806 15.7071 13.2931C15.5196 13.1055 15.2652 13.0002 15 13.0002H14C13.7348 13.0002 13.4804 13.1055 13.2929 13.2931C13.1054 13.4806 13 13.735 13 14.0002V15.0002C13 15.2654 13.1054 15.5198 13.2929 15.7073C13.4804 15.8948 13.7348 16.0002 14 16.0002ZM18 13.0002C17.7348 13.0002 17.4804 13.1055 17.2929 13.2931C17.1054 13.4806 17 13.735 17 14.0002V17.0002C16.7348 17.0002 16.4804 17.1055 16.2929 17.2931C16.1054 17.4806 16 17.735 16 18.0002C16 18.2654 16.1054 18.5198 16.2929 18.7073C16.4804 18.8948 16.7348 19.0002 17 19.0002H18C18.2652 19.0002 18.5196 18.8948 18.7071 18.7073C18.8946 18.5198 19 18.2654 19 18.0002V14.0002C19 13.735 18.8946 13.4806 18.7071 13.2931C18.5196 13.1055 18.2652 13.0002 18 13.0002ZM14 17.0002C13.8022 17.0002 13.6089 17.0588 13.4444 17.1687C13.28 17.2786 13.1518 17.4348 13.0761 17.6175C13.0004 17.8002 12.9806 18.0013 13.0192 18.1953C13.0578 18.3893 13.153 18.5674 13.2929 18.7073C13.4327 18.8471 13.6109 18.9424 13.8049 18.981C13.9989 19.0196 14.2 18.9998 14.3827 18.9241C14.5654 18.8484 14.7216 18.7202 14.8315 18.5558C14.9413 18.3913 15 18.198 15 18.0002C15 17.735 14.8946 17.4806 14.7071 17.2931C14.5196 17.1055 14.2652 17.0002 14 17.0002Z" fill="#6851FF"/>
</svg>
