<svg width="24" height="24" viewBox="0 0 24 24" fill="none" xmlns="http://www.w3.org/2000/svg">
<path fill-rule="evenodd" clip-rule="evenodd" d="M12 2C6.48028 2 2 6.48028 2 12C2 17.5197 6.48028 22 12 22C17.5197 22 22 17.5197 22 12C22 11.7056 21.9873 11.4144 21.9624 11.1268C21.9148 10.5766 22.3222 10.0919 22.8725 10.0443C23.4227 9.99672 23.9073 10.4042 23.955 10.9544C23.9848 11.2992 24 11.648 24 12C24 18.6243 18.6243 24 12 24C5.37572 24 0 18.6243 0 12C0 5.37572 5.37572 0 12 0C12.352 0 12.7008 0.0152101 13.0456 0.0450455C13.5958 0.0926563 14.0033 0.577301 13.9557 1.12753C13.9081 1.67776 13.4234 2.08521 12.8732 2.0376C12.5856 2.01272 12.2944 2 12 2ZM15.7434 1.60565C15.9773 1.10533 16.5725 0.889322 17.0728 1.12319C17.7087 1.42047 18.3142 1.77176 18.8832 2.17108C19.3353 2.48832 19.4446 3.11198 19.1274 3.56406C18.8102 4.01614 18.1865 4.12545 17.7344 3.80821C17.2599 3.47523 16.7554 3.18254 16.2259 2.93502C15.7255 2.70116 15.5095 2.10598 15.7434 1.60565ZM20.4359 4.8726C20.888 4.55536 21.5117 4.66467 21.8289 5.11675C22.2282 5.6858 22.5795 6.29125 22.8768 6.92722C23.1107 7.42755 22.8947 8.02273 22.3943 8.25659C21.894 8.49046 21.2988 8.27446 21.065 7.77413C20.8175 7.24461 20.5248 6.74009 20.1918 6.26558C19.8745 5.8135 19.9839 5.18984 20.4359 4.8726ZM13 7.00001C13 6.44772 12.5523 6 12 6C11.4478 6 11 6.44771 11 6.99999L11 11.6459C11 12.8726 11.7468 13.9758 12.8858 14.4314L16.6286 15.9285C17.1414 16.1336 17.7234 15.8842 17.9285 15.3714C18.1336 14.8586 17.8842 14.2766 17.3714 14.0715L13.6286 12.5744C13.2489 12.4226 13 12.0548 13 11.6459L13 7.00001Z" fill="#6851FF"/>
</svg>
