<svg width="24" height="24" viewBox="0 0 24 24" fill="none" xmlns="http://www.w3.org/2000/svg">
<g clip-path="url(#clip0_11075_21138)">
<path d="M-6.75 29.6562C-6.75 29.9463 -6.63477 30.2245 -6.42965 30.4296C-6.22453 30.6348 -5.94633 30.75 -5.65625 30.75L-0.1875 30.75C0.102581 30.75 0.38078 30.6348 0.585898 30.4296C0.791017 30.2245 0.90625 29.9463 0.90625 29.6562C0.90625 29.3662 0.791017 29.088 0.585899 28.8829C0.38078 28.6777 0.102581 28.5625 -0.1875 28.5625L-2.99844 28.5625L0.589063 24.9641C0.691579 24.8624 0.772947 24.7414 0.828476 24.6081C0.884003 24.4748 0.912592 24.3319 0.912593 24.1875C0.912593 24.0431 0.884003 23.9002 0.828476 23.7669C0.772947 23.6336 0.691579 23.5126 0.589063 23.4109C0.487385 23.3084 0.366416 23.2271 0.233132 23.1715C0.0998485 23.116 -0.0431111 23.0874 -0.187499 23.0874C-0.331888 23.0874 -0.474846 23.116 -0.60813 23.1715C-0.741413 23.2271 -0.862383 23.3084 -0.964062 23.4109L-4.5625 27.0094L-4.5625 24.1875C-4.5625 23.8974 -4.67773 23.6192 -4.88285 23.4141C-5.08797 23.209 -5.36617 23.0937 -5.65625 23.0937C-5.94633 23.0937 -6.22453 23.209 -6.42965 23.4141C-6.63477 23.6192 -6.75 23.8974 -6.75 24.1875L-6.75 29.6562ZM3.41094 20.5891C3.51262 20.6916 3.63359 20.7729 3.76687 20.8285C3.90015 20.884 4.04311 20.9126 4.1875 20.9126C4.33189 20.9126 4.47485 20.884 4.60813 20.8285C4.74142 20.7729 4.86239 20.6916 4.96406 20.5891L8.5625 17.0016L8.5625 19.8125C8.5625 20.1026 8.67774 20.3808 8.88285 20.5859C9.08797 20.791 9.36617 20.9062 9.65625 20.9062C9.94633 20.9062 10.2245 20.791 10.4296 20.5859C10.6348 20.3808 10.75 20.1026 10.75 19.8125L10.75 14.3438C10.75 14.0537 10.6348 13.7755 10.4296 13.5704C10.2245 13.3652 9.94633 13.25 9.65625 13.25L4.1875 13.25C3.89742 13.25 3.61922 13.3652 3.4141 13.5704C3.20899 13.7755 3.09375 14.0537 3.09375 14.3437C3.09375 14.6338 3.20899 14.912 3.4141 15.1171C3.61922 15.3223 3.89742 15.4375 4.1875 15.4375L7.00938 15.4375L3.41094 19.0359C3.30842 19.1376 3.22705 19.2586 3.17153 19.3919C3.116 19.5252 3.08741 19.6681 3.08741 19.8125C3.08741 19.9569 3.116 20.0998 3.17153 20.2331C3.22705 20.3664 3.30842 20.4874 3.41094 20.5891Z" fill="#6851FF"/>
</g>
<g clip-path="url(#clip1_11075_21138)">
<path d="M30.75 -5.65625C30.75 -5.94633 30.6348 -6.22453 30.4296 -6.42965C30.2245 -6.63476 29.9463 -6.75 29.6562 -6.75L24.1875 -6.75C23.8974 -6.75 23.6192 -6.63476 23.4141 -6.42965C23.209 -6.22453 23.0937 -5.94633 23.0937 -5.65625C23.0937 -5.36617 23.209 -5.08797 23.4141 -4.88285C23.6192 -4.67773 23.8974 -4.5625 24.1875 -4.5625L26.9984 -4.5625L23.4109 -0.964062C23.3084 -0.862384 23.2271 -0.741414 23.1715 -0.60813C23.116 -0.474846 23.0874 -0.331887 23.0874 -0.187499C23.0874 -0.0431114 23.116 0.0998477 23.1715 0.233131C23.2271 0.366415 23.3084 0.487385 23.4109 0.589064C23.5126 0.691579 23.6336 0.772947 23.7669 0.828475C23.9002 0.884004 24.0431 0.912593 24.1875 0.912593C24.3319 0.912593 24.4748 0.884004 24.6081 0.828476C24.7414 0.772947 24.8624 0.691579 24.9641 0.589064L28.5625 -3.00937L28.5625 -0.187499C28.5625 0.102582 28.6777 0.380782 28.8829 0.585899C29.088 0.791017 29.3662 0.906251 29.6562 0.906251C29.9463 0.906251 30.2245 0.791017 30.4296 0.585899C30.6348 0.380782 30.75 0.102582 30.75 -0.187498L30.75 -5.65625ZM20.5891 3.41094C20.4874 3.30842 20.3664 3.22705 20.2331 3.17153C20.0998 3.116 19.9569 3.08741 19.8125 3.08741C19.6681 3.08741 19.5252 3.116 19.3919 3.17153C19.2586 3.22705 19.1376 3.30842 19.0359 3.41094L15.4375 6.99844L15.4375 4.1875C15.4375 3.89742 15.3223 3.61922 15.1171 3.4141C14.912 3.20898 14.6338 3.09375 14.3437 3.09375C14.0537 3.09375 13.7755 3.20898 13.5704 3.4141C13.3652 3.61922 13.25 3.89742 13.25 4.1875L13.25 9.65625C13.25 9.94633 13.3652 10.2245 13.5704 10.4296C13.7755 10.6348 14.0537 10.75 14.3437 10.75L19.8125 10.75C20.1026 10.75 20.3808 10.6348 20.5859 10.4296C20.791 10.2245 20.9062 9.94633 20.9062 9.65625C20.9062 9.36617 20.791 9.08797 20.5859 8.88285C20.3808 8.67773 20.1026 8.5625 19.8125 8.5625L16.9906 8.5625L20.5891 4.96406C20.6916 4.86238 20.7729 4.74141 20.8285 4.60813C20.884 4.47485 20.9126 4.33189 20.9126 4.1875C20.9126 4.04311 20.884 3.90015 20.8285 3.76687C20.7729 3.63359 20.6916 3.51262 20.5891 3.41094Z" fill="#6851FF"/>
</g>
<defs>
<clipPath id="clip0_11075_21138">
<rect width="10" height="10" fill="white" transform="translate(12 22) rotate(-180)"/>
</clipPath>
<clipPath id="clip1_11075_21138">
<rect width="10" height="10" fill="white" transform="translate(12 2)"/>
</clipPath>
</defs>
</svg>
