<svg width="24" height="24" viewBox="0 0 24 24" fill="none" xmlns="http://www.w3.org/2000/svg">
<path d="M7.991 6.5C7.16257 6.5 6.491 7.17157 6.491 8C6.491 8.82843 7.16257 9.5 7.991 9.5H8.009C8.83742 9.5 9.509 8.82843 9.509 8C9.509 7.17157 8.83742 6.5 8.009 6.5H7.991Z" fill="#6851FF"/>
<path d="M5.491 14C5.491 13.1716 6.16257 12.5 6.991 12.5H7.009C7.83742 12.5 8.509 13.1716 8.509 14C8.509 14.8284 7.83742 15.5 7.009 15.5H6.991C6.16257 15.5 5.491 14.8284 5.491 14Z" fill="#6851FF"/>
<path d="M13.991 5.5C13.1626 5.5 12.491 6.17157 12.491 7C12.491 7.82843 13.1626 8.5 13.991 8.5H14.009C14.8374 8.5 15.509 7.82843 15.509 7C15.509 6.17157 14.8374 5.5 14.009 5.5H13.991Z" fill="#6851FF"/>
<path fill-rule="evenodd" clip-rule="evenodd" d="M16.3519 1.89748C14.1376 0.943627 11.6713 0.743682 9.33226 1.3284C6.99325 1.91312 4.91112 3.25011 3.40616 5.13372C1.9012 7.01732 1.05677 9.3432 1.00276 11.7536C0.948752 14.164 1.68816 16.5253 3.10724 18.4745C4.52631 20.4236 6.54646 21.8525 8.85694 22.5414C10.1042 22.9133 11.3988 23.0584 12.6809 22.9789C13.8965 22.9035 14.805 22.1944 15.2803 21.2595C15.7451 20.3454 15.8024 19.2186 15.4139 18.1924L14.7287 16.3828C14.1905 14.9614 15.3719 13.4828 16.877 13.694L18.7932 13.9628C19.8798 14.1153 20.9662 13.8107 21.7552 13.1556C22.5621 12.4856 23.0532 11.443 22.8584 10.2407C22.653 8.97276 22.2257 7.74211 21.5876 6.60768C20.4057 4.50625 18.5662 2.85133 16.3519 1.89748ZM9.8173 3.26869C11.731 2.79029 13.749 2.95388 15.5606 3.7343C17.3723 4.51472 18.8774 5.86875 19.8444 7.5881C20.3665 8.51627 20.7161 9.52313 20.8842 10.5606C20.9543 10.9939 20.7963 11.3523 20.4776 11.6169C20.1409 11.8964 19.6252 12.06 19.071 11.9822L17.1548 11.7134C14.1446 11.2911 11.7819 14.2482 12.8583 17.091L13.5434 18.9006C13.7416 19.4239 13.6959 19.963 13.4975 20.353C13.3098 20.7223 12.9951 20.9556 12.5571 20.9827C11.5081 21.0478 10.4489 20.9291 9.4284 20.6248C7.53802 20.0611 5.88517 18.892 4.7241 17.2973C3.56304 15.7026 2.95807 13.7705 3.00226 11.7984C3.04645 9.82626 3.73735 7.92326 4.96868 6.38213C6.20001 4.841 7.90357 3.7471 9.8173 3.26869Z" fill="#6851FF"/>
</svg>
