<svg width="24" height="24" viewBox="0 0 24 24" fill="none" xmlns="http://www.w3.org/2000/svg">
<path fill-rule="evenodd" clip-rule="evenodd" d="M14.4072 1.1672C14.0002 1 13.4832 1 12.4503 1C11.4174 1 10.9015 1 10.4934 1.1672C9.95164 1.38963 9.52036 1.81814 9.29445 2.3585C9.19105 2.6038 9.15145 2.8909 9.13495 3.3078C9.12761 3.60986 9.04335 3.90507 8.89014 4.16549C8.73692 4.42592 8.51982 4.64296 8.25935 4.7961C7.99397 4.94361 7.69565 5.02176 7.39203 5.0233C7.08841 5.02484 6.78931 4.94972 6.52245 4.8049C6.15065 4.6091 5.88115 4.5013 5.61495 4.4661C5.03256 4.38963 4.44353 4.54618 3.97595 4.9017C3.62615 5.1679 3.36765 5.6123 2.85175 6.5C2.33475 7.3877 2.07735 7.831 2.01905 8.2655C1.94205 8.8441 2.10045 9.4293 2.45905 9.8924C2.62185 10.1036 2.85175 10.2807 3.20705 10.5029C3.73175 10.8296 4.06835 11.3862 4.06835 12C4.06835 12.6138 3.73175 13.1704 3.20815 13.496C2.85175 13.7193 2.62185 13.8964 2.45795 14.1076C2.28094 14.3363 2.15101 14.5979 2.07568 14.8771C2.00035 15.1564 1.9811 15.4478 2.01905 15.7345C2.07735 16.1679 2.33475 16.6123 2.85175 17.5C3.36875 18.3877 3.62615 18.831 3.97595 19.0983C4.44235 19.4536 5.03195 19.6098 5.61495 19.5339C5.88115 19.4987 6.15065 19.3909 6.52245 19.1951C6.78945 19.0501 7.08874 18.9749 7.39258 18.9764C7.69641 18.9779 7.99493 19.0562 8.26045 19.2039C8.79505 19.5119 9.11185 20.0784 9.13495 20.6922C9.15145 21.1102 9.19105 21.3962 9.29445 21.6415C9.51885 22.1805 9.95005 22.6095 10.4934 22.8328C10.9004 23 11.4174 23 12.4503 23C13.4832 23 14.0002 23 14.4072 22.8328C14.949 22.6104 15.3803 22.1819 15.6062 21.6415C15.7096 21.3962 15.7492 21.1102 15.7657 20.6922C15.7877 20.0784 16.1056 19.5108 16.6413 19.2039C16.9067 19.0564 17.205 18.9782 17.5087 18.9767C17.8123 18.9752 18.1114 19.0503 18.3782 19.1951C18.75 19.3909 19.0195 19.4987 19.2857 19.5339C19.8687 19.6109 20.4583 19.4536 20.9247 19.0983C21.2745 18.8321 21.533 18.3877 22.0489 17.5C22.5659 16.6123 22.8233 16.169 22.8816 15.7345C22.9194 15.4477 22.9 15.1563 22.8245 14.877C22.749 14.5978 22.6188 14.3363 22.4416 14.1076C22.2788 13.8964 22.0489 13.7193 21.6936 13.4971C21.1689 13.1704 20.8323 12.6138 20.8323 12C20.8323 11.3862 21.1689 10.8296 21.6925 10.504C22.0489 10.2807 22.2788 10.1036 22.4427 9.8924C22.6198 9.66366 22.7497 9.40212 22.825 9.12287C22.9003 8.84363 22.9196 8.55223 22.8816 8.2655C22.8233 7.8321 22.5659 7.3877 22.0489 6.5C21.5319 5.6123 21.2745 5.169 20.9247 4.9017C20.4572 4.54618 19.8681 4.38963 19.2857 4.4661C19.0195 4.5013 18.75 4.6091 18.3782 4.8049C18.1112 4.94991 17.8119 5.02514 17.5081 5.0236C17.2043 5.02206 16.9058 4.94381 16.6402 4.7961C16.38 4.64283 16.1631 4.42572 16.0101 4.16531C15.8571 3.90489 15.773 3.60976 15.7657 3.3078C15.7492 2.8898 15.7096 2.6038 15.6062 2.3585C15.4944 2.09091 15.331 1.84797 15.1253 1.64356C14.9195 1.43916 14.6756 1.27729 14.4072 1.1672ZM12.4503 15.3C14.2873 15.3 15.7756 13.8227 15.7756 12C15.7756 10.1773 14.2862 8.7 12.4503 8.7C10.6133 8.7 9.12505 10.1773 9.12505 12C9.12505 13.8227 10.6144 15.3 12.4503 15.3Z" fill="#6851FF"/>
</svg>
