<svg width="24" height="24" viewBox="0 0 24 24" fill="none" xmlns="http://www.w3.org/2000/svg">
<path fill-rule="evenodd" clip-rule="evenodd" d="M8.33333 13.2222C8.98164 13.2222 9.60339 13.4798 10.0618 13.9382C10.5202 14.3966 10.7778 15.0184 10.7778 15.6667V20.5556C10.7778 21.2039 10.5202 21.8256 10.0618 22.284C9.60339 22.7425 8.98164 23 8.33333 23H3.44444C2.79614 23 2.17438 22.7425 1.71596 22.284C1.25754 21.8256 1 21.2039 1 20.5556V15.6667C1 15.0184 1.25754 14.3966 1.71596 13.9382C2.17438 13.4798 2.79614 13.2222 3.44444 13.2222H8.33333ZM20.5556 13.2222C21.2039 13.2222 21.8256 13.4798 22.284 13.9382C22.7425 14.3966 23 15.0184 23 15.6667V20.5556C23 21.2039 22.7425 21.8256 22.284 22.284C21.8256 22.7425 21.2039 23 20.5556 23H15.6667C15.0184 23 14.3966 22.7425 13.9382 22.284C13.4798 21.8256 13.2222 21.2039 13.2222 20.5556V15.6667C13.2222 15.0184 13.4798 14.3966 13.9382 13.9382C14.3966 13.4798 15.0184 13.2222 15.6667 13.2222H20.5556ZM8.33333 1C8.98164 1 9.60339 1.25754 10.0618 1.71596C10.5202 2.17438 10.7778 2.79614 10.7778 3.44444V8.33333C10.7778 8.98164 10.5202 9.60339 10.0618 10.0618C9.60339 10.5202 8.98164 10.7778 8.33333 10.7778H3.44444C2.79614 10.7778 2.17438 10.5202 1.71596 10.0618C1.25754 9.60339 1 8.98164 1 8.33333V3.44444C1 2.79614 1.25754 2.17438 1.71596 1.71596C2.17438 1.25754 2.79614 1 3.44444 1H8.33333ZM20.5556 1C21.2039 1 21.8256 1.25754 22.284 1.71596C22.7425 2.17438 23 2.79614 23 3.44444V8.33333C23 8.98164 22.7425 9.60339 22.284 10.0618C21.8256 10.5202 21.2039 10.7778 20.5556 10.7778H15.6667C15.0184 10.7778 14.3966 10.5202 13.9382 10.0618C13.4798 9.60339 13.2222 8.98164 13.2222 8.33333V3.44444C13.2222 2.79614 13.4798 2.17438 13.9382 1.71596C14.3966 1.25754 15.0184 1 15.6667 1H20.5556Z" fill="#6851FF"/>
</svg>
