<svg width="24" height="24" viewBox="0 0 24 24" fill="none" xmlns="http://www.w3.org/2000/svg">
<path fill-rule="evenodd" clip-rule="evenodd" d="M12 24C18.6274 24 24 18.6274 24 12C24 5.37258 18.6274 0 12 0C5.37258 0 0 5.37258 0 12C0 18.6274 5.37258 24 12 24ZM4.76139 12.1293C4.57562 8.58147 6.69161 6.08318 9.4298 5.1499C12.1757 4.21398 15.5254 4.86382 17.7734 7.68921C18.0313 8.01334 18.5031 8.06704 18.8272 7.80914C19.1514 7.55125 19.2051 7.07942 18.9472 6.75529C16.2759 3.39789 12.2466 2.6051 8.94588 3.73011C5.63744 4.85775 3.03914 7.92397 3.26344 12.2077C3.2851 12.6213 3.63799 12.9391 4.05164 12.9175C4.46528 12.8958 4.78305 12.5429 4.76139 12.1293ZM10.005 7.92799C11.3099 7.45942 12.4252 7.45178 13.3397 7.72764C14.2563 8.00411 15.0234 8.58104 15.6049 9.36805C16.7787 10.9569 17.1692 13.3777 16.4186 15.6421C16.2882 16.0353 16.5013 16.4597 16.8945 16.59C17.2876 16.7203 17.712 16.5073 17.8424 16.1141C18.7315 13.4321 18.302 10.4945 16.8113 8.47671C16.0605 7.46041 15.0341 6.67199 13.7729 6.29155C12.5096 5.91049 11.0628 5.95437 9.49807 6.51625C9.10823 6.65624 8.90569 7.08575 9.04568 7.47559C9.18567 7.86543 9.61518 8.06798 10.005 7.92799ZM11.801 10.0332C11.005 10.0332 10.4012 10.5305 10.0532 11.5801C9.88808 12.0784 9.75777 12.9912 9.63323 14.0844C9.59956 14.38 9.56653 14.6864 9.53331 14.9944C9.44875 15.7785 9.363 16.5736 9.26284 17.2282C9.20019 17.6377 8.81748 17.9188 8.40803 17.8561C7.99858 17.7935 7.71745 17.4108 7.7801 17.0013C7.87491 16.3817 7.95478 15.641 8.03776 14.8715C8.07185 14.5553 8.10647 14.2342 8.14287 13.9147C8.26273 12.8625 8.40571 11.783 8.62945 11.1081C9.10135 9.68467 10.1373 8.5332 11.801 8.5332C13.8588 8.5332 15.4206 10.1094 15.4206 12.1685C15.4206 13.4485 15.1835 14.75 14.8997 16.3084L14.8995 16.3097C14.7995 16.8584 14.6938 17.439 14.5906 18.0618C14.5229 18.4704 14.1367 18.7468 13.728 18.6791C13.3194 18.6113 13.043 18.2251 13.1108 17.8165C13.2275 17.1121 13.3415 16.4857 13.4453 15.9152C13.7179 14.4168 13.9206 13.303 13.9206 12.1685C13.9206 10.9301 13.0227 10.0332 11.801 10.0332ZM11.8478 11.4198C12.2612 11.4455 12.5755 11.8015 12.5498 12.2149C12.4803 13.3332 12.3138 15.0721 12.0381 16.6654C11.9004 17.4609 11.7325 18.2382 11.5298 18.8906C11.3388 19.5051 11.0795 20.1404 10.6933 20.5288C10.4012 20.8225 9.92631 20.8238 9.63262 20.5317C9.33893 20.2396 9.33763 19.7647 9.62972 19.4711C9.73538 19.3648 9.90994 19.0486 10.0973 18.4455C10.273 17.8802 10.4279 17.1736 10.5601 16.4097C10.8241 14.8841 10.9856 13.2018 11.0527 12.1218C11.0784 11.7084 11.4344 11.3941 11.8478 11.4198ZM7.70634 8.65808C8.05157 8.88697 8.14587 9.35239 7.91698 9.69761C7.60269 10.1716 7.31358 11.1625 7.10855 12.3478C6.9099 13.4963 6.81207 14.6899 6.81207 15.466C6.81207 15.8802 6.47629 16.216 6.06207 16.216C5.64786 16.216 5.31207 15.8802 5.31207 15.466C5.31207 14.5934 5.41921 13.3138 5.6305 12.0922C5.83542 10.9075 6.16122 9.63126 6.66681 8.86871C6.8957 8.52349 7.36112 8.42918 7.70634 8.65808ZM19.354 9.39573C19.7472 9.26538 20.1716 9.47845 20.3019 9.87162C20.5289 10.5561 20.6394 11.23 20.6942 11.7255C20.7218 11.9752 20.7357 12.1842 20.7427 12.3327C20.748 12.4443 20.7495 12.5222 20.7498 12.5585L20.75 12.5732L20.75 12.5779L20.75 12.5796C20.75 12.5796 20.75 12.5732 20.75 12.5808C20.75 12.995 20.4142 13.3308 20 13.3308C19.5859 13.3308 19.2502 12.9952 19.25 12.5812C19.2491 12.522 19.2472 12.4628 19.2444 12.4037C19.2386 12.2817 19.2269 12.1043 19.2033 11.8903C19.1556 11.4584 19.0612 10.8957 18.8781 10.3436C18.7478 9.95046 18.9609 9.52607 19.354 9.39573Z" fill="#6851FF"/>
</svg>
