<svg width="130" height="48" viewBox="0 0 130 48" fill="none" xmlns="http://www.w3.org/2000/svg">
<path fill-rule="evenodd" clip-rule="evenodd" d="M19.8835 0C21.9584 2.5413 24.2469 4.90135 26.7217 7.05272C25.0727 12.4011 24.1849 18.0834 24.1849 23.973C24.1849 29.8625 25.0727 35.5448 26.7217 40.8933C24.2469 43.0447 21.9584 45.4047 19.8835 47.9458C17.8086 45.4047 15.52 43.0447 13.0453 40.8933C14.6942 35.5448 15.582 29.8625 15.582 23.973C15.582 18.0834 14.6942 12.4011 13.0453 7.05276C15.52 4.90135 17.8086 2.54131 19.8835 0ZM8.31503 37.1953C5.6955 35.3594 2.91539 33.7366 4.12927e-06 32.3528C0.808715 29.7021 1.24376 26.8883 1.24376 23.973C1.24376 21.0576 0.808712 18.2438 0 15.5931C2.91539 14.2092 5.6955 12.5865 8.31503 10.7505C9.3167 14.9953 9.8467 19.4222 9.8467 23.973C9.8467 28.5237 9.3167 32.9505 8.31503 37.1953ZM29.9202 23.973C29.9202 28.5237 30.4502 32.9505 31.4519 37.1953C34.0715 35.3594 36.8515 33.7366 39.7669 32.3528C38.9583 29.7021 38.5233 26.8883 38.5233 23.973C38.5233 21.0576 38.9583 18.2438 39.7669 15.5931C36.8515 14.2091 34.0715 12.5865 31.4519 10.7505C30.4502 14.9953 29.9202 19.4222 29.9202 23.973Z" fill="#6851FF"/>
<path d="M70.7321 32.7029H74.8236V13.6182H69.1011L64.466 25.5211L59.8306 13.6182H54.1367V32.7029H58.1995V18.9688L63.5789 32.7029H65.3527L70.7321 18.9688V32.7029Z" fill="white"/>
<path fill-rule="evenodd" clip-rule="evenodd" d="M90.4593 32.7029H86.8254V31.2723C85.8813 32.3881 84.2502 33.0463 82.4474 33.0463C80.2444 33.0463 77.6406 31.5584 77.6406 28.4682C77.6406 25.235 80.2444 24.0618 82.4474 24.0618C84.2789 24.0618 85.9096 24.6341 86.8254 25.75V23.8329C86.8254 22.4309 85.6235 21.5153 83.7924 21.5153C82.3044 21.5153 80.9311 22.059 79.7579 23.1462L78.3846 20.7141C80.0727 19.2263 82.2473 18.5396 84.422 18.5396C87.5694 18.5396 90.4593 19.7985 90.4593 23.7757V32.7029ZM83.9068 30.5856C85.0799 30.5856 86.2244 30.185 86.8254 29.3838V27.667C86.2244 26.8659 85.0799 26.4653 83.9068 26.4653C82.4761 26.4653 81.3029 27.2379 81.3029 28.5541C81.3029 29.8416 82.4761 30.5856 83.9068 30.5856Z" fill="white"/>
<path fill-rule="evenodd" clip-rule="evenodd" d="M99.728 38.311C97.3533 38.311 95.4935 37.7674 93.7767 36.2508L95.4074 33.6186C96.5233 34.8488 97.9826 35.3354 99.728 35.3354C101.473 35.3354 103.534 34.5627 103.534 31.8445V30.4425C102.446 31.8159 100.959 32.6171 99.2702 32.6171C95.808 32.6171 93.1758 30.185 93.1758 25.5783C93.1758 21.0575 95.7796 18.5396 99.2702 18.5396C100.93 18.5396 102.418 19.2549 103.534 20.6569V18.8829H107.196V31.7587C107.196 37.0234 103.133 38.311 99.728 38.311ZM100.415 29.3838C101.617 29.3838 102.933 28.6971 103.534 27.8101V23.3465C102.933 22.4309 101.617 21.7728 100.415 21.7728C98.3548 21.7728 96.9241 23.2035 96.9241 25.5783C96.9241 27.9532 98.3548 29.3838 100.415 29.3838Z" fill="white"/>
<path fill-rule="evenodd" clip-rule="evenodd" d="M114.777 14.677C114.777 15.8788 113.804 16.8516 112.602 16.8516C111.429 16.8516 110.428 15.8788 110.428 14.677C110.428 13.4753 111.429 12.5024 112.602 12.5024C113.804 12.5024 114.777 13.4753 114.777 14.677ZM114.434 32.7031H110.8V18.8831H114.434V32.7031Z" fill="white"/>
<path d="M117.15 25.7786C117.15 30.0419 120.212 33.0463 124.475 33.0463C127.308 33.0463 129.025 31.8159 129.94 30.5284L127.565 28.3251C126.907 29.2408 125.906 29.813 124.647 29.813C122.444 29.813 120.899 28.1821 120.899 25.7786C120.899 23.3751 122.444 21.7728 124.647 21.7728C125.906 21.7728 126.907 22.3164 127.565 23.2607L129.94 21.0575C129.025 19.7699 127.308 18.5396 124.475 18.5396C120.212 18.5396 117.15 21.5439 117.15 25.7786Z" fill="white"/>
</svg>
